<?xml version="1.0" encoding="UTF-8" standalone="no"?>
<!DOCTYPE svg PUBLIC "-//W3C//DTD SVG 1.1//EN"
 "http://www.w3.org/Graphics/SVG/1.1/DTD/svg11.dtd">
<!-- Generated by graphviz version 2.40.1 (20161225.0304)
 -->
<!-- Pages: 1 -->
<svg width="734pt" height="263pt"
 viewBox="0.00 0.00 734.02 262.80" xmlns="http://www.w3.org/2000/svg" xmlns:xlink="http://www.w3.org/1999/xlink">
<g id="graph0" class="graph" transform="scale(1 1) rotate(0) translate(4 258.8)">
<polygon fill="#ffffff" stroke="transparent" points="-4,4 -4,-258.8 730.0193,-258.8 730.0193,4 -4,4"/>
<g id="node1" class="node">
<title></title>
</g>
<!-- q1z1 -->
<g id="node2" class="node">
<title>q1z1</title>
<ellipse fill="none" stroke="#000000" cx="143.9096" cy="-76" rx="29.6185" ry="29.6185"/>
<text text-anchor="middle" x="143.9096" y="-71.8" font-family="Times,serif" font-size="14.00" fill="#000000">q1z1</text>
</g>
<!-- &#45;&gt;q1z1 -->
<g id="edge1" class="edge">
<title>&#45;&gt;q1z1</title>
<path fill="none" stroke="#000000" d="M54.1153,-76C68.8339,-76 87.3161,-76 103.6808,-76"/>
<polygon fill="#000000" stroke="#000000" points="104.0681,-79.5001 114.068,-76 104.068,-72.5001 104.0681,-79.5001"/>
<text text-anchor="middle" x="84.0505" y="-80.2" font-family="Times,serif" font-size="14.00" fill="#000000">start</text>
</g>
<!-- q1z2 -->
<g id="node3" class="node">
<title>q1z2</title>
<ellipse fill="none" stroke="#000000" cx="250.5269" cy="-180" rx="29.6409" ry="29.6409"/>
<ellipse fill="none" stroke="#000000" cx="250.5269" cy="-180" rx="33.6184" ry="33.6184"/>
<text text-anchor="middle" x="250.5269" y="-175.8" font-family="Times,serif" font-size="14.00" fill="#000000">q1z2</text>
</g>
<!-- q1z1&#45;&gt;q1z2 -->
<g id="edge8" class="edge">
<title>q1z1&#45;&gt;q1z2</title>
<path fill="none" stroke="#000000" d="M165.4852,-97.046C180.6819,-111.8695 201.2879,-131.9697 218.41,-148.6715"/>
<polygon fill="#000000" stroke="#000000" points="216.3975,-151.5978 225.9999,-156.075 221.2854,-146.5869 216.3975,-151.5978"/>
<text text-anchor="middle" x="195.2183" y="-132.2" font-family="Times,serif" font-size="14.00" fill="#000000">b</text>
</g>
<!-- q2z1 -->
<g id="node5" class="node">
<title>q2z1</title>
<ellipse fill="none" stroke="#000000" cx="581.5934" cy="-58" rx="29.6409" ry="29.6409"/>
<ellipse fill="none" stroke="#000000" cx="581.5934" cy="-58" rx="33.6184" ry="33.6184"/>
<text text-anchor="middle" x="581.5934" y="-53.8" font-family="Times,serif" font-size="14.00" fill="#000000">q2z1</text>
</g>
<!-- q1z1&#45;&gt;q2z1 -->
<g id="edge2" class="edge">
<title>q1z1&#45;&gt;q2z1</title>
<path fill="none" stroke="#000000" d="M162.3004,-51.9531C181.602,-29.6875 214.1569,0 250.5269,0 250.5269,0 250.5269,0 470.9761,0 498.9918,0 526.9043,-14.773 547.6819,-29.4075"/>
<polygon fill="#000000" stroke="#000000" points="545.7153,-32.3058 555.8453,-35.4096 549.8619,-26.6661 545.7153,-32.3058"/>
<text text-anchor="middle" x="361.1442" y="-4.2" font-family="Times,serif" font-size="14.00" fill="#000000">a</text>
</g>
<!-- q1z3 -->
<g id="node4" class="node">
<title>q1z3</title>
<ellipse fill="none" stroke="#000000" cx="361.1442" cy="-123" rx="29.6409" ry="29.6409"/>
<ellipse fill="none" stroke="#000000" cx="361.1442" cy="-123" rx="33.6184" ry="33.6184"/>
<text text-anchor="middle" x="361.1442" y="-118.8" font-family="Times,serif" font-size="14.00" fill="#000000">q1z3</text>
</g>
<!-- q1z2&#45;&gt;q1z3 -->
<g id="edge9" class="edge">
<title>q1z2&#45;&gt;q1z3</title>
<path fill="none" stroke="#000000" d="M280.7536,-164.4245C293.4353,-157.8897 308.349,-150.2048 321.8649,-143.2402"/>
<polygon fill="#000000" stroke="#000000" points="323.6681,-146.2485 330.9541,-138.5567 320.4616,-140.026 323.6681,-146.2485"/>
<text text-anchor="middle" x="305.8356" y="-157.2" font-family="Times,serif" font-size="14.00" fill="#000000">b</text>
</g>
<!-- q2z2 -->
<g id="node6" class="node">
<title>q2z2</title>
<ellipse fill="none" stroke="#000000" cx="692.2107" cy="-158" rx="29.6409" ry="29.6409"/>
<ellipse fill="none" stroke="#000000" cx="692.2107" cy="-158" rx="33.6184" ry="33.6184"/>
<text text-anchor="middle" x="692.2107" y="-153.8" font-family="Times,serif" font-size="14.00" fill="#000000">q2z2</text>
</g>
<!-- q1z2&#45;&gt;q2z2 -->
<g id="edge4" class="edge">
<title>q1z2&#45;&gt;q2z2</title>
<path fill="none" stroke="#000000" d="M276.275,-202.5904C297.5265,-218.8758 329.2685,-238 361.1442,-238 361.1442,-238 361.1442,-238 581.5934,-238 614.6666,-238 644.5518,-214.2288 664.8973,-192.6021"/>
<polygon fill="#000000" stroke="#000000" points="667.5814,-194.852 671.6854,-185.0844 662.3859,-190.1608 667.5814,-194.852"/>
<text text-anchor="middle" x="470.9761" y="-242.2" font-family="Times,serif" font-size="14.00" fill="#000000">a</text>
</g>
<!-- q1z3&#45;&gt;q1z1 -->
<g id="edge10" class="edge">
<title>q1z3&#45;&gt;q1z1</title>
<path fill="none" stroke="#000000" d="M328.055,-115.8409C289.1455,-107.4226 224.6284,-93.464 183.2097,-84.5028"/>
<polygon fill="#000000" stroke="#000000" points="183.7209,-81.0325 173.2069,-82.3386 182.2406,-87.8742 183.7209,-81.0325"/>
<text text-anchor="middle" x="250.5269" y="-110.2" font-family="Times,serif" font-size="14.00" fill="#000000">b</text>
</g>
<!-- q2z3 -->
<g id="node7" class="node">
<title>q2z3</title>
<ellipse fill="none" stroke="#000000" cx="470.9761" cy="-115" rx="29.6409" ry="29.6409"/>
<ellipse fill="none" stroke="#000000" cx="470.9761" cy="-115" rx="33.6184" ry="33.6184"/>
<text text-anchor="middle" x="470.9761" y="-110.8" font-family="Times,serif" font-size="14.00" fill="#000000">q2z3</text>
</g>
<!-- q1z3&#45;&gt;q2z3 -->
<g id="edge6" class="edge">
<title>q1z3&#45;&gt;q2z3</title>
<path fill="none" stroke="#000000" d="M394.9936,-120.5345C405.1197,-119.7969 416.3722,-118.9773 427.0472,-118.1997"/>
<polygon fill="#000000" stroke="#000000" points="427.3301,-121.6885 437.0494,-117.4712 426.8215,-114.707 427.3301,-121.6885"/>
<text text-anchor="middle" x="416.0602" y="-123.2" font-family="Times,serif" font-size="14.00" fill="#000000">a</text>
</g>
<!-- q2z1&#45;&gt;q1z1 -->
<g id="edge3" class="edge">
<title>q2z1&#45;&gt;q1z1</title>
<path fill="none" stroke="#000000" d="M547.7221,-55.6757C525.8364,-54.3699 496.7363,-53 470.9761,-53 250.5269,-53 250.5269,-53 250.5269,-53 227.5244,-53 202.3454,-58.1788 182.2349,-63.6216"/>
<polygon fill="#000000" stroke="#000000" points="181.1766,-60.2837 172.5108,-66.3792 183.0864,-67.0181 181.1766,-60.2837"/>
<text text-anchor="middle" x="361.1442" y="-57.2" font-family="Times,serif" font-size="14.00" fill="#000000">a</text>
</g>
<!-- q2z1&#45;&gt;q2z2 -->
<g id="edge11" class="edge">
<title>q2z1&#45;&gt;q2z2</title>
<path fill="none" stroke="#000000" d="M608.4944,-78.497C618.7088,-86.5608 630.3073,-96.0637 640.402,-105.2 647.5344,-111.6552 654.9286,-118.8534 661.8207,-125.807"/>
<polygon fill="#000000" stroke="#000000" points="659.57,-128.5112 669.0661,-133.2097 664.5726,-123.6149 659.57,-128.5112"/>
<text text-anchor="middle" x="636.902" y="-110.2" font-family="Times,serif" font-size="14.00" fill="#000000">b</text>
</g>
<!-- q2z2&#45;&gt;q1z2 -->
<g id="edge5" class="edge">
<title>q2z2&#45;&gt;q1z2</title>
<path fill="none" stroke="#000000" d="M660.2816,-170.0785C638.4515,-177.2674 608.6758,-185 581.5934,-185 361.1442,-185 361.1442,-185 361.1442,-185 339.2078,-185 314.8494,-184.0066 294.5865,-182.9054"/>
<polygon fill="#000000" stroke="#000000" points="294.5813,-179.3995 284.3982,-182.3243 294.1827,-186.3881 294.5813,-179.3995"/>
<text text-anchor="middle" x="470.9761" y="-189.2" font-family="Times,serif" font-size="14.00" fill="#000000">a</text>
</g>
<!-- q2z2&#45;&gt;q2z3 -->
<g id="edge12" class="edge">
<title>q2z2&#45;&gt;q2z3</title>
<path fill="none" stroke="#000000" d="M659.0186,-151.5487C620.557,-144.0731 557.0446,-131.7286 514.616,-123.482"/>
<polygon fill="#000000" stroke="#000000" points="515.061,-120.0031 504.5769,-121.5308 513.7254,-126.8745 515.061,-120.0031"/>
<text text-anchor="middle" x="581.5934" y="-146.2" font-family="Times,serif" font-size="14.00" fill="#000000">b</text>
</g>
<!-- q2z3&#45;&gt;q1z3 -->
<g id="edge7" class="edge">
<title>q2z3&#45;&gt;q1z3</title>
<path fill="none" stroke="#000000" d="M440.4356,-100.1511C431.6213,-97.5037 421.9526,-96.157 412.9529,-98.2 408.7409,-99.1561 404.4712,-100.4987 400.2838,-102.0694"/>
<polygon fill="#000000" stroke="#000000" points="398.5982,-98.9808 390.7285,-106.0744 401.3041,-105.4367 398.5982,-98.9808"/>
<text text-anchor="middle" x="416.0602" y="-103.2" font-family="Times,serif" font-size="14.00" fill="#000000">a</text>
</g>
<!-- q2z3&#45;&gt;q2z1 -->
<g id="edge13" class="edge">
<title>q2z3&#45;&gt;q2z1</title>
<path fill="none" stroke="#000000" d="M501.2028,-99.4245C513.8845,-92.8897 528.7982,-85.2048 542.3141,-78.2402"/>
<polygon fill="#000000" stroke="#000000" points="544.1172,-81.2485 551.4033,-73.5567 540.9108,-75.026 544.1172,-81.2485"/>
<text text-anchor="middle" x="526.2847" y="-93.2" font-family="Times,serif" font-size="14.00" fill="#000000">b</text>
</g>
</g>
</svg>
