<?xml version="1.0" encoding="UTF-8" standalone="no"?>
<!DOCTYPE svg PUBLIC "-//W3C//DTD SVG 1.1//EN"
 "http://www.w3.org/Graphics/SVG/1.1/DTD/svg11.dtd">
<!-- Generated by graphviz version 2.40.1 (20161225.0304)
 -->
<!-- Title: graph_3_1_2 Pages: 1 -->
<svg width="588pt" height="150pt"
 viewBox="0.00 0.00 588.32 150.07" xmlns="http://www.w3.org/2000/svg" xmlns:xlink="http://www.w3.org/1999/xlink">
<g id="graph0" class="graph" transform="scale(1 1) rotate(0) translate(4 146.0667)">
<title>graph_3_1_2</title>
<polygon fill="#ffffff" stroke="transparent" points="-4,4 -4,-146.0667 584.3151,-146.0667 584.3151,4 -4,4"/>
<!-- {3, 6, 10} -->
<g id="node1" class="node">
<title>{3, 6, 10}</title>
<ellipse fill="none" stroke="#000000" cx="245.5917" cy="-53.2761" rx="49.0698" ry="49.0698"/>
<ellipse fill="none" stroke="#000000" cx="245.5917" cy="-53.2761" rx="53.0531" ry="53.0531"/>
<text text-anchor="middle" x="245.5917" y="-49.0761" font-family="Times,serif" font-size="14.00" fill="#000000">{3, 6, 10}</text>
</g>
<!-- {4, 7} -->
<g id="node5" class="node">
<title>{4, 7}</title>
<ellipse fill="none" stroke="#000000" cx="376.6584" cy="-107.2761" rx="34.5826" ry="34.5826"/>
<text text-anchor="middle" x="376.6584" y="-103.0761" font-family="Times,serif" font-size="14.00" fill="#000000">{4, 7}</text>
</g>
<!-- {3, 6, 10}&#45;&gt;{4, 7} -->
<g id="edge3" class="edge">
<title>{3, 6, 10}&#45;&gt;{4, 7}</title>
<path fill="none" stroke="#000000" d="M295.1424,-73.6912C308.1977,-79.07 322.1543,-84.8202 334.7628,-90.0149"/>
<polygon fill="#000000" stroke="#000000" points="333.5253,-93.2905 344.1047,-93.8638 336.192,-86.8183 333.5253,-93.2905"/>
<text text-anchor="middle" x="320.3678" y="-89.4761" font-family="Times,serif" font-size="14.00" fill="#000000">b</text>
</g>
<!-- {8, 3, 6, 10} -->
<g id="node2" class="node">
<title>{8, 3, 6, 10}</title>
<ellipse fill="none" stroke="#000000" cx="517.3821" cy="-70.2761" rx="58.8704" ry="58.8704"/>
<ellipse fill="none" stroke="#000000" cx="517.3821" cy="-70.2761" rx="62.8661" ry="62.8661"/>
<text text-anchor="middle" x="517.3821" y="-66.0761" font-family="Times,serif" font-size="14.00" fill="#000000">{8, 3, 6, 10}</text>
</g>
<!-- {8, 3, 6, 10}&#45;&gt;{3, 6, 10} -->
<g id="edge6" class="edge">
<title>{8, 3, 6, 10}&#45;&gt;{3, 6, 10}</title>
<path fill="none" stroke="#000000" d="M456.4331,-54.1706C441.8038,-50.9767 426.1558,-48.1078 411.4491,-46.4761 380.7127,-43.0658 372.7736,-45.386 341.8678,-46.4761 331.1622,-46.8537 319.7995,-47.4667 308.7755,-48.1741"/>
<polygon fill="#000000" stroke="#000000" points="308.518,-44.6835 298.7752,-48.8463 308.9874,-51.6677 308.518,-44.6835"/>
<text text-anchor="middle" x="376.6584" y="-51.4761" font-family="Times,serif" font-size="14.00" fill="#000000">a</text>
</g>
<!-- {8, 3, 6, 10}&#45;&gt;{4, 7} -->
<g id="edge5" class="edge">
<title>{8, 3, 6, 10}&#45;&gt;{4, 7}</title>
<path fill="none" stroke="#000000" d="M454.2212,-65.8215C445.7688,-66.554 437.311,-67.9964 429.4491,-70.4761 423.296,-72.4168 417.2325,-75.3546 411.5314,-78.7409"/>
<polygon fill="#000000" stroke="#000000" points="409.3816,-75.964 402.9099,-84.3526 413.2002,-81.8307 409.3816,-75.964"/>
<text text-anchor="middle" x="432.9491" y="-75.4761" font-family="Times,serif" font-size="14.00" fill="#000000">b</text>
</g>
<g id="node3" class="node">
<title></title>
</g>
<!-- 1 -->
<g id="node4" class="node">
<title>1</title>
<ellipse fill="none" stroke="#000000" cx="132.101" cy="-53.2761" rx="18" ry="18"/>
<text text-anchor="middle" x="132.101" y="-49.0761" font-family="Times,serif" font-size="14.00" fill="#000000">1</text>
</g>
<!-- &#45;&gt;1 -->
<g id="edge1" class="edge">
<title>&#45;&gt;1</title>
<path fill="none" stroke="#000000" d="M54.0661,-53.2761C69.3856,-53.2761 88.5175,-53.2761 104.0034,-53.2761"/>
<polygon fill="#000000" stroke="#000000" points="104.0503,-56.7762 114.0503,-53.2761 104.0503,-49.7762 104.0503,-56.7762"/>
<text text-anchor="middle" x="84.0505" y="-57.4761" font-family="Times,serif" font-size="14.00" fill="#000000">start</text>
</g>
<!-- 1&#45;&gt;{3, 6, 10} -->
<g id="edge2" class="edge">
<title>1&#45;&gt;{3, 6, 10}</title>
<path fill="none" stroke="#000000" d="M150.3352,-53.2761C159.1554,-53.2761 170.3259,-53.2761 181.8877,-53.2761"/>
<polygon fill="#000000" stroke="#000000" points="182.0996,-56.7762 192.0995,-53.2761 182.0995,-49.7762 182.0996,-56.7762"/>
<text text-anchor="middle" x="171.2083" y="-57.4761" font-family="Times,serif" font-size="14.00" fill="#000000">a</text>
</g>
<!-- {4, 7}&#45;&gt;{8, 3, 6, 10} -->
<g id="edge4" class="edge">
<title>{4, 7}&#45;&gt;{8, 3, 6, 10}</title>
<path fill="none" stroke="#000000" d="M410.3652,-98.4137C421.3805,-95.5174 434.0586,-92.184 446.7486,-88.8475"/>
<polygon fill="#000000" stroke="#000000" points="447.6463,-92.2305 456.4276,-86.3026 445.8663,-85.4606 447.6463,-92.2305"/>
<text text-anchor="middle" x="432.9491" y="-96.4761" font-family="Times,serif" font-size="14.00" fill="#000000">a</text>
</g>
</g>
</svg>
