<?xml version="1.0" encoding="UTF-8" standalone="no"?>
<!DOCTYPE svg PUBLIC "-//W3C//DTD SVG 1.1//EN"
 "http://www.w3.org/Graphics/SVG/1.1/DTD/svg11.dtd">
<!-- Generated by graphviz version 2.40.1 (20161225.0304)
 -->
<!-- Title: graph_3_2_3 Pages: 1 -->
<svg width="602pt" height="181pt"
 viewBox="0.00 0.00 602.35 180.60" xmlns="http://www.w3.org/2000/svg" xmlns:xlink="http://www.w3.org/1999/xlink">
<g id="graph0" class="graph" transform="scale(1 1) rotate(0) translate(4 176.5979)">
<title>graph_3_2_3</title>
<polygon fill="#ffffff" stroke="transparent" points="-4,4 -4,-176.5979 598.3462,-176.5979 598.3462,4 -4,4"/>
<!-- {{6, 8}, {2, 8}, 6} -->
<g id="node1" class="node">
<title>{{6, 8}, {2, 8}, 6}</title>
<ellipse fill="none" stroke="#000000" cx="278.6146" cy="-86.299" rx="82.1077" ry="82.1077"/>
<ellipse fill="none" stroke="#000000" cx="278.6146" cy="-86.299" rx="86.0984" ry="86.0984"/>
<text text-anchor="middle" x="278.6146" y="-82.099" font-family="Times,serif" font-size="14.00" fill="#000000">{{6, 8}, {2, 8}, 6}</text>
</g>
<!-- {{3, 7}, 5} -->
<g id="node4" class="node">
<title>{{3, 7}, 5}</title>
<ellipse fill="none" stroke="#000000" cx="461.6299" cy="-86.299" rx="53.9336" ry="53.9336"/>
<text text-anchor="middle" x="461.6299" y="-82.099" font-family="Times,serif" font-size="14.00" fill="#000000">{{3, 7}, 5}</text>
</g>
<!-- {{6, 8}, {2, 8}, 6}&#45;&gt;{{3, 7}, 5} -->
<g id="edge3" class="edge">
<title>{{6, 8}, {2, 8}, 6}&#45;&gt;{{3, 7}, 5}</title>
<path fill="none" stroke="#000000" d="M365.0309,-86.299C375.9288,-86.299 386.9233,-86.299 397.3936,-86.299"/>
<polygon fill="#000000" stroke="#000000" points="397.6662,-89.7991 407.6662,-86.299 397.6662,-82.7991 397.6662,-89.7991"/>
<text text-anchor="middle" x="386.4135" y="-90.499" font-family="Times,serif" font-size="14.00" fill="#000000">a</text>
</g>
<g id="node2" class="node">
<title></title>
</g>
<!-- 1 -->
<g id="node3" class="node">
<title>1</title>
<ellipse fill="none" stroke="#000000" cx="132.101" cy="-86.299" rx="18" ry="18"/>
<text text-anchor="middle" x="132.101" y="-82.099" font-family="Times,serif" font-size="14.00" fill="#000000">1</text>
</g>
<!-- &#45;&gt;1 -->
<g id="edge1" class="edge">
<title>&#45;&gt;1</title>
<path fill="none" stroke="#000000" d="M54.0661,-86.299C69.3856,-86.299 88.5175,-86.299 104.0034,-86.299"/>
<polygon fill="#000000" stroke="#000000" points="104.0503,-89.7991 114.0503,-86.299 104.0503,-82.7991 104.0503,-89.7991"/>
<text text-anchor="middle" x="84.0505" y="-90.499" font-family="Times,serif" font-size="14.00" fill="#000000">start</text>
</g>
<!-- 1&#45;&gt;{{6, 8}, {2, 8}, 6} -->
<g id="edge2" class="edge">
<title>1&#45;&gt;{{6, 8}, {2, 8}, 6}</title>
<path fill="none" stroke="#000000" d="M150.3608,-86.299C158.9907,-86.299 170.0202,-86.299 181.9782,-86.299"/>
<polygon fill="#000000" stroke="#000000" points="182.209,-89.7991 192.2089,-86.299 182.2089,-82.7991 182.209,-89.7991"/>
<text text-anchor="middle" x="171.2083" y="-90.499" font-family="Times,serif" font-size="14.00" fill="#000000">a</text>
</g>
<!-- {{3, 7}, 5}&#45;&gt;{{6, 8}, {2, 8}, 6} -->
<g id="edge4" class="edge">
<title>{{3, 7}, 5}&#45;&gt;{{6, 8}, {2, 8}, 6}</title>
<path fill="none" stroke="#000000" d="M410.3029,-69.5315C403.5095,-67.8686 396.5877,-66.4473 389.9135,-65.499 384.1784,-64.6841 378.2888,-64.3324 372.3563,-64.3481"/>
<polygon fill="#000000" stroke="#000000" points="372.2207,-60.8506 362.3516,-64.7045 372.4699,-67.8462 372.2207,-60.8506"/>
<text text-anchor="middle" x="386.4135" y="-70.499" font-family="Times,serif" font-size="14.00" fill="#000000">b</text>
</g>
<!-- 4 -->
<g id="node5" class="node">
<title>4</title>
<ellipse fill="none" stroke="#000000" cx="576.3462" cy="-86.299" rx="18" ry="18"/>
<text text-anchor="middle" x="576.3462" y="-82.099" font-family="Times,serif" font-size="14.00" fill="#000000">4</text>
</g>
<!-- {{3, 7}, 5}&#45;&gt;4 -->
<g id="edge5" class="edge">
<title>{{3, 7}, 5}&#45;&gt;4</title>
<path fill="none" stroke="#000000" d="M515.6289,-86.299C526.8956,-86.299 538.3357,-86.299 548.2024,-86.299"/>
<polygon fill="#000000" stroke="#000000" points="548.2087,-89.7991 558.2086,-86.299 548.2086,-82.7991 548.2087,-89.7991"/>
<text text-anchor="middle" x="536.8462" y="-90.499" font-family="Times,serif" font-size="14.00" fill="#000000">a</text>
</g>
<!-- 4&#45;&gt;{{3, 7}, 5} -->
<g id="edge6" class="edge">
<title>4&#45;&gt;{{3, 7}, 5}</title>
<path fill="none" stroke="#000000" d="M561.7117,-75.5056C555.4597,-71.5352 547.8759,-67.5178 540.3462,-65.499 534.164,-63.8414 527.7061,-63.421 521.2634,-63.8519"/>
<polygon fill="#000000" stroke="#000000" points="520.6525,-60.402 511.1935,-65.1744 521.5641,-67.3424 520.6525,-60.402"/>
<text text-anchor="middle" x="536.8462" y="-70.499" font-family="Times,serif" font-size="14.00" fill="#000000">b</text>
</g>
</g>
</svg>
