<?xml version="1.0" encoding="UTF-8" standalone="no"?>
<!DOCTYPE svg PUBLIC "-//W3C//DTD SVG 1.1//EN"
 "http://www.w3.org/Graphics/SVG/1.1/DTD/svg11.dtd">
<!-- Generated by graphviz version 2.40.1 (20161225.0304)
 -->
<!-- Title: graph_3_1_1 Pages: 1 -->
<svg width="594pt" height="186pt"
 viewBox="0.00 0.00 594.48 186.00" xmlns="http://www.w3.org/2000/svg" xmlns:xlink="http://www.w3.org/1999/xlink">
<g id="graph0" class="graph" transform="scale(1 1) rotate(0) translate(4 182)">
<title>graph_3_1_1</title>
<polygon fill="#ffffff" stroke="transparent" points="-4,4 -4,-182 590.4795,-182 590.4795,4 -4,4"/>
<g id="node1" class="node">
<title></title>
</g>
<!-- 1 -->
<g id="node3" class="node">
<title>1</title>
<ellipse fill="none" stroke="#000000" cx="132.101" cy="-69" rx="18" ry="18"/>
<text text-anchor="middle" x="132.101" y="-64.8" font-family="Times,serif" font-size="14.00" fill="#000000">1</text>
</g>
<!-- &#45;&gt;1 -->
<g id="edge1" class="edge">
<title>&#45;&gt;1</title>
<path fill="none" stroke="#000000" d="M54.0661,-69C69.3856,-69 88.5175,-69 104.0034,-69"/>
<polygon fill="#000000" stroke="#000000" points="104.0503,-72.5001 114.0503,-69 104.0503,-65.5001 104.0503,-72.5001"/>
<text text-anchor="middle" x="84.0505" y="-73.2" font-family="Times,serif" font-size="14.00" fill="#000000">start</text>
</g>
<!-- 10 -->
<g id="node2" class="node">
<title>10</title>
<ellipse fill="none" stroke="#000000" cx="561.7861" cy="-53" rx="20.8568" ry="20.8568"/>
<ellipse fill="none" stroke="#000000" cx="561.7861" cy="-53" rx="24.8884" ry="24.8884"/>
<text text-anchor="middle" x="561.7861" y="-48.8" font-family="Times,serif" font-size="14.00" fill="#000000">10</text>
</g>
<!-- 2 -->
<g id="node4" class="node">
<title>2</title>
<ellipse fill="none" stroke="#000000" cx="225.8822" cy="-102" rx="18" ry="18"/>
<text text-anchor="middle" x="225.8822" y="-97.8" font-family="Times,serif" font-size="14.00" fill="#000000">2</text>
</g>
<!-- 1&#45;&gt;2 -->
<g id="edge2" class="edge">
<title>1&#45;&gt;2</title>
<path fill="none" stroke="#000000" d="M149.3019,-75.0527C163.1825,-79.9371 182.9597,-86.8963 198.9386,-92.519"/>
<polygon fill="#000000" stroke="#000000" points="198.1955,-95.9678 208.7903,-95.9857 200.5191,-89.3647 198.1955,-95.9678"/>
<text text-anchor="middle" x="178.9916" y="-93.2" font-family="Times,serif" font-size="14.00" fill="#000000">lmb</text>
</g>
<!-- 5 -->
<g id="node5" class="node">
<title>5</title>
<ellipse fill="none" stroke="#000000" cx="225.8822" cy="-158" rx="18" ry="18"/>
<text text-anchor="middle" x="225.8822" y="-153.8" font-family="Times,serif" font-size="14.00" fill="#000000">5</text>
</g>
<!-- 1&#45;&gt;5 -->
<g id="edge3" class="edge">
<title>1&#45;&gt;5</title>
<path fill="none" stroke="#000000" d="M143.5835,-83.1584C150.4109,-91.2945 159.4109,-101.5445 168.101,-110 179.1244,-120.7259 192.2544,-131.7565 203.2104,-140.5347"/>
<polygon fill="#000000" stroke="#000000" points="201.0783,-143.3107 211.0938,-146.766 205.419,-137.8191 201.0783,-143.3107"/>
<text text-anchor="middle" x="178.9916" y="-134.2" font-family="Times,serif" font-size="14.00" fill="#000000">lmb</text>
</g>
<!-- 9 -->
<g id="node11" class="node">
<title>9</title>
<ellipse fill="none" stroke="#000000" cx="476.878" cy="-53" rx="18" ry="18"/>
<text text-anchor="middle" x="476.878" y="-48.8" font-family="Times,serif" font-size="14.00" fill="#000000">9</text>
</g>
<!-- 1&#45;&gt;9 -->
<g id="edge12" class="edge">
<title>1&#45;&gt;9</title>
<path fill="none" stroke="#000000" d="M142.63,-54.028C158.2661,-33.7346 189.7,0 225.8822,0 225.8822,0 225.8822,0 383.0968,0 411.3158,0 438.85,-18.4128 456.7031,-33.5328"/>
<polygon fill="#000000" stroke="#000000" points="454.3869,-36.1569 464.1923,-40.1702 459.0298,-30.9182 454.3869,-36.1569"/>
<text text-anchor="middle" x="304.0968" y="-4.2" font-family="Times,serif" font-size="14.00" fill="#000000">lmb</text>
</g>
<!-- 3 -->
<g id="node6" class="node">
<title>3</title>
<ellipse fill="none" stroke="#000000" cx="304.0968" cy="-106" rx="18" ry="18"/>
<text text-anchor="middle" x="304.0968" y="-101.8" font-family="Times,serif" font-size="14.00" fill="#000000">3</text>
</g>
<!-- 2&#45;&gt;3 -->
<g id="edge4" class="edge">
<title>2&#45;&gt;3</title>
<path fill="none" stroke="#000000" d="M244.0228,-102.9277C253.4996,-103.4124 265.3086,-104.0163 275.9424,-104.5601"/>
<polygon fill="#000000" stroke="#000000" points="275.8888,-108.0619 286.0546,-105.0773 276.2464,-101.071 275.8888,-108.0619"/>
<text text-anchor="middle" x="264.9895" y="-109.2" font-family="Times,serif" font-size="14.00" fill="#000000">a</text>
</g>
<!-- 6 -->
<g id="node8" class="node">
<title>6</title>
<ellipse fill="none" stroke="#000000" cx="304.0968" cy="-160" rx="18" ry="18"/>
<text text-anchor="middle" x="304.0968" y="-155.8" font-family="Times,serif" font-size="14.00" fill="#000000">6</text>
</g>
<!-- 5&#45;&gt;6 -->
<g id="edge6" class="edge">
<title>5&#45;&gt;6</title>
<path fill="none" stroke="#000000" d="M244.0228,-158.4639C253.4996,-158.7062 265.3086,-159.0082 275.9424,-159.2801"/>
<polygon fill="#000000" stroke="#000000" points="275.9683,-162.7818 286.0546,-159.5386 276.1474,-155.7841 275.9683,-162.7818"/>
<text text-anchor="middle" x="264.9895" y="-163.2" font-family="Times,serif" font-size="14.00" fill="#000000">a</text>
</g>
<!-- 4 -->
<g id="node7" class="node">
<title>4</title>
<ellipse fill="none" stroke="#000000" cx="383.0968" cy="-102" rx="18" ry="18"/>
<text text-anchor="middle" x="383.0968" y="-97.8" font-family="Times,serif" font-size="14.00" fill="#000000">4</text>
</g>
<!-- 3&#45;&gt;4 -->
<g id="edge5" class="edge">
<title>3&#45;&gt;4</title>
<path fill="none" stroke="#000000" d="M322.4196,-105.0723C331.9915,-104.5876 343.9191,-103.9837 354.6597,-103.4399"/>
<polygon fill="#000000" stroke="#000000" points="355.0632,-106.924 364.8734,-102.9227 354.7092,-99.933 355.0632,-106.924"/>
<text text-anchor="middle" x="343.5968" y="-109.2" font-family="Times,serif" font-size="14.00" fill="#000000">b</text>
</g>
<!-- 4&#45;&gt;9 -->
<g id="edge9" class="edge">
<title>4&#45;&gt;9</title>
<path fill="none" stroke="#000000" d="M399.4322,-93.4649C413.8212,-85.9467 435.0091,-74.8762 451.5875,-66.2141"/>
<polygon fill="#000000" stroke="#000000" points="453.4875,-69.1704 460.7298,-61.4373 450.2458,-62.9662 453.4875,-69.1704"/>
<text text-anchor="middle" x="429.9874" y="-86.2" font-family="Times,serif" font-size="14.00" fill="#000000">lmb</text>
</g>
<!-- 7 -->
<g id="node9" class="node">
<title>7</title>
<ellipse fill="none" stroke="#000000" cx="383.0968" cy="-158" rx="18" ry="18"/>
<text text-anchor="middle" x="383.0968" y="-153.8" font-family="Times,serif" font-size="14.00" fill="#000000">7</text>
</g>
<!-- 6&#45;&gt;7 -->
<g id="edge7" class="edge">
<title>6&#45;&gt;7</title>
<path fill="none" stroke="#000000" d="M322.4196,-159.5361C331.9915,-159.2938 343.9191,-158.9918 354.6597,-158.7199"/>
<polygon fill="#000000" stroke="#000000" points="354.9652,-162.2134 364.8734,-158.4614 354.788,-155.2157 354.9652,-162.2134"/>
<text text-anchor="middle" x="343.5968" y="-163.2" font-family="Times,serif" font-size="14.00" fill="#000000">b</text>
</g>
<!-- 8 -->
<g id="node10" class="node">
<title>8</title>
<ellipse fill="none" stroke="#000000" cx="476.878" cy="-135" rx="18" ry="18"/>
<text text-anchor="middle" x="476.878" y="-130.8" font-family="Times,serif" font-size="14.00" fill="#000000">8</text>
</g>
<!-- 7&#45;&gt;8 -->
<g id="edge8" class="edge">
<title>7&#45;&gt;8</title>
<path fill="none" stroke="#000000" d="M400.7363,-153.6739C414.4902,-150.3007 433.8343,-145.5565 449.5828,-141.6942"/>
<polygon fill="#000000" stroke="#000000" points="450.4391,-145.088 459.3176,-139.3067 448.7717,-138.2895 450.4391,-145.088"/>
<text text-anchor="middle" x="429.9874" y="-152.2" font-family="Times,serif" font-size="14.00" fill="#000000">a</text>
</g>
<!-- 8&#45;&gt;9 -->
<g id="edge10" class="edge">
<title>8&#45;&gt;9</title>
<path fill="none" stroke="#000000" d="M476.878,-116.8524C476.878,-106.4579 476.878,-93.184 476.878,-81.4342"/>
<polygon fill="#000000" stroke="#000000" points="480.3781,-81.1984 476.878,-71.1985 473.3781,-81.1985 480.3781,-81.1984"/>
<text text-anchor="middle" x="465.478" y="-89.8" font-family="Times,serif" font-size="14.00" fill="#000000">lmb</text>
</g>
<!-- 9&#45;&gt;10 -->
<g id="edge11" class="edge">
<title>9&#45;&gt;10</title>
<path fill="none" stroke="#000000" d="M494.8848,-53C504.1811,-53 515.8498,-53 526.8279,-53"/>
<polygon fill="#000000" stroke="#000000" points="527.0418,-56.5001 537.0417,-53 527.0417,-49.5001 527.0418,-56.5001"/>
<text text-anchor="middle" x="515.9853" y="-57.2" font-family="Times,serif" font-size="14.00" fill="#000000">a</text>
</g>
<!-- 9&#45;&gt;1 -->
<g id="edge13" class="edge">
<title>9&#45;&gt;1</title>
<path fill="none" stroke="#000000" d="M458.5486,-53C439.6445,-53 409.3099,-53 383.0968,-53 225.8822,-53 225.8822,-53 225.8822,-53 203.2717,-53 178.026,-57.5752 159.4289,-61.8325"/>
<polygon fill="#000000" stroke="#000000" points="158.4848,-58.4597 149.5794,-64.1995 160.1204,-65.2659 158.4848,-58.4597"/>
<text text-anchor="middle" x="304.0968" y="-57.2" font-family="Times,serif" font-size="14.00" fill="#000000">lmb</text>
</g>
</g>
</svg>
