<?xml version="1.0" encoding="UTF-8" standalone="no"?>
<!DOCTYPE svg PUBLIC "-//W3C//DTD SVG 1.1//EN"
 "http://www.w3.org/Graphics/SVG/1.1/DTD/svg11.dtd">
<!-- Generated by graphviz version 2.40.1 (20161225.0304)
 -->
<!-- Title: graph_3_4_3 Pages: 1 -->
<svg width="601pt" height="114pt"
 viewBox="0.00 0.00 601.50 114.38" xmlns="http://www.w3.org/2000/svg" xmlns:xlink="http://www.w3.org/1999/xlink">
<g id="graph0" class="graph" transform="scale(1 1) rotate(0) translate(4 110.3764)">
<title>graph_3_4_3</title>
<polygon fill="#ffffff" stroke="transparent" points="-4,4 -4,-110.3764 597.4976,-110.3764 597.4976,4 -4,4"/>
<g id="node1" class="node">
<title></title>
</g>
<!-- 1 -->
<g id="node3" class="node">
<title>1</title>
<ellipse fill="none" stroke="#000000" cx="132.101" cy="-18" rx="18" ry="18"/>
<text text-anchor="middle" x="132.101" y="-13.8" font-family="Times,serif" font-size="14.00" fill="#000000">1</text>
</g>
<!-- &#45;&gt;1 -->
<g id="edge1" class="edge">
<title>&#45;&gt;1</title>
<path fill="none" stroke="#000000" d="M54.0661,-18C69.3856,-18 88.5175,-18 104.0034,-18"/>
<polygon fill="#000000" stroke="#000000" points="104.0503,-21.5001 114.0503,-18 104.0503,-14.5001 104.0503,-21.5001"/>
<text text-anchor="middle" x="84.0505" y="-22.2" font-family="Times,serif" font-size="14.00" fill="#000000">start</text>
</g>
<!-- {6,7} -->
<g id="node2" class="node">
<title>{6,7}</title>
<ellipse fill="none" stroke="#000000" cx="478.1212" cy="-70" rx="32.2668" ry="32.2668"/>
<ellipse fill="none" stroke="#000000" cx="478.1212" cy="-70" rx="36.2533" ry="36.2533"/>
<text text-anchor="middle" x="478.1212" y="-65.8" font-family="Times,serif" font-size="14.00" fill="#000000">{6,7}</text>
</g>
<!-- 3 -->
<g id="node5" class="node">
<title>3</title>
<ellipse fill="none" stroke="#000000" cx="302.5302" cy="-62" rx="18" ry="18"/>
<text text-anchor="middle" x="302.5302" y="-57.8" font-family="Times,serif" font-size="14.00" fill="#000000">3</text>
</g>
<!-- {6,7}&#45;&gt;3 -->
<g id="edge6" class="edge">
<title>{6,7}&#45;&gt;3</title>
<path fill="none" stroke="#000000" d="M442.7015,-78.8198C414.049,-84.4122 372.9524,-88.9096 338.5302,-79 335.0369,-77.9943 331.4595,-76.6844 327.98,-75.2376"/>
<polygon fill="#000000" stroke="#000000" points="329.1336,-71.9164 318.5841,-70.9368 326.2201,-78.2813 329.1336,-71.9164"/>
<text text-anchor="middle" x="381.5302" y="-88.2" font-family="Times,serif" font-size="14.00" fill="#000000">a</text>
</g>
<!-- 4 -->
<g id="node6" class="node">
<title>4</title>
<ellipse fill="none" stroke="#000000" cx="575.4976" cy="-35" rx="18" ry="18"/>
<text text-anchor="middle" x="575.4976" y="-30.8" font-family="Times,serif" font-size="14.00" fill="#000000">4</text>
</g>
<!-- {6,7}&#45;&gt;4 -->
<g id="edge7" class="edge">
<title>{6,7}&#45;&gt;4</title>
<path fill="none" stroke="#000000" d="M513.5547,-61.4425C522.151,-59.0234 531.241,-56.1733 539.4976,-53 543.1014,-51.615 546.8264,-49.9894 550.4525,-48.2915"/>
<polygon fill="#000000" stroke="#000000" points="552.2496,-51.3078 559.6688,-43.7443 549.1523,-45.0303 552.2496,-51.3078"/>
<text text-anchor="middle" x="535.9976" y="-59.2" font-family="Times,serif" font-size="14.00" fill="#000000">b</text>
</g>
<!-- 2 -->
<g id="node4" class="node">
<title>2</title>
<ellipse fill="none" stroke="#000000" cx="224.3156" cy="-18" rx="18" ry="18"/>
<text text-anchor="middle" x="224.3156" y="-13.8" font-family="Times,serif" font-size="14.00" fill="#000000">2</text>
</g>
<!-- 1&#45;&gt;2 -->
<g id="edge2" class="edge">
<title>1&#45;&gt;2</title>
<path fill="none" stroke="#000000" d="M150.3196,-18C163.3286,-18 181.0821,-18 195.9384,-18"/>
<polygon fill="#000000" stroke="#000000" points="196.1348,-21.5001 206.1348,-18 196.1348,-14.5001 196.1348,-21.5001"/>
<text text-anchor="middle" x="178.2083" y="-22.2" font-family="Times,serif" font-size="14.00" fill="#000000">b, c</text>
</g>
<!-- 2&#45;&gt;3 -->
<g id="edge3" class="edge">
<title>2&#45;&gt;3</title>
<path fill="none" stroke="#000000" d="M240.1435,-26.9041C250.957,-32.9872 265.504,-41.1708 277.8309,-48.1053"/>
<polygon fill="#000000" stroke="#000000" points="276.2942,-51.2566 286.7258,-53.1092 279.7263,-45.1557 276.2942,-51.2566"/>
<text text-anchor="middle" x="263.4229" y="-46.2" font-family="Times,serif" font-size="14.00" fill="#000000">a</text>
</g>
<!-- 2&#45;&gt;4 -->
<g id="edge4" class="edge">
<title>2&#45;&gt;4</title>
<path fill="none" stroke="#000000" d="M241.5057,-12.404C257.2171,-7.79 281.1856,-2 302.5302,-2 302.5302,-2 302.5302,-2 478.1212,-2 503.7751,-2 531.315,-12.4007 550.5379,-21.5241"/>
<polygon fill="#000000" stroke="#000000" points="549.0063,-24.6712 559.5196,-25.9826 552.1187,-18.4012 549.0063,-24.6712"/>
<text text-anchor="middle" x="381.5302" y="-6.2" font-family="Times,serif" font-size="14.00" fill="#000000">b</text>
</g>
<!-- 5 -->
<g id="node7" class="node">
<title>5</title>
<ellipse fill="none" stroke="#000000" cx="381.5302" cy="-55" rx="18" ry="18"/>
<text text-anchor="middle" x="381.5302" y="-50.8" font-family="Times,serif" font-size="14.00" fill="#000000">5</text>
</g>
<!-- 3&#45;&gt;5 -->
<g id="edge8" class="edge">
<title>3&#45;&gt;5</title>
<path fill="none" stroke="#000000" d="M320.853,-60.3765C330.4933,-59.5223 342.523,-58.4563 353.3231,-57.4994"/>
<polygon fill="#000000" stroke="#000000" points="353.9272,-60.9596 363.5792,-56.5906 353.3093,-53.987 353.9272,-60.9596"/>
<text text-anchor="middle" x="342.0302" y="-62.2" font-family="Times,serif" font-size="14.00" fill="#000000">b</text>
</g>
<!-- 4&#45;&gt;{6,7} -->
<g id="edge5" class="edge">
<title>4&#45;&gt;{6,7}</title>
<path fill="none" stroke="#000000" d="M557.169,-33.418C549.4103,-33.2808 540.3649,-33.835 532.4976,-36.2 526.9057,-37.881 521.3191,-40.2954 515.9711,-43.0713"/>
<polygon fill="#000000" stroke="#000000" points="514.213,-40.0446 507.2371,-48.0187 517.6632,-46.1353 514.213,-40.0446"/>
<text text-anchor="middle" x="535.9976" y="-41.2" font-family="Times,serif" font-size="14.00" fill="#000000">a</text>
</g>
<!-- 5&#45;&gt;{6,7} -->
<g id="edge10" class="edge">
<title>5&#45;&gt;{6,7}</title>
<path fill="none" stroke="#000000" d="M399.6982,-57.8214C408.9125,-59.2523 420.5628,-61.0615 432.0455,-62.8447"/>
<polygon fill="#000000" stroke="#000000" points="431.609,-66.3188 442.0277,-64.3949 432.6832,-59.4017 431.609,-66.3188"/>
<text text-anchor="middle" x="420.6375" y="-65.2" font-family="Times,serif" font-size="14.00" fill="#000000">c</text>
</g>
<!-- 5&#45;&gt;3 -->
<g id="edge9" class="edge">
<title>5&#45;&gt;3</title>
<path fill="none" stroke="#000000" d="M367.4365,-43.7959C359.1553,-38.5778 348.4053,-34.1278 338.5302,-37.2 333.711,-38.6993 328.9663,-41.0931 324.5827,-43.8155"/>
<polygon fill="#000000" stroke="#000000" points="322.3761,-41.0875 316.1833,-49.684 326.3853,-46.8257 322.3761,-41.0875"/>
<text text-anchor="middle" x="342.0302" y="-42.2" font-family="Times,serif" font-size="14.00" fill="#000000">a</text>
</g>
</g>
</svg>
