<?xml version="1.0" encoding="UTF-8" standalone="no"?>
<!DOCTYPE svg PUBLIC "-//W3C//DTD SVG 1.1//EN"
 "http://www.w3.org/Graphics/SVG/1.1/DTD/svg11.dtd">
<!-- Generated by graphviz version 2.40.1 (20161225.0304)
 -->
<!-- Title: graph_3_4_2 Pages: 1 -->
<svg width="660pt" height="179pt"
 viewBox="0.00 0.00 659.74 178.80" xmlns="http://www.w3.org/2000/svg" xmlns:xlink="http://www.w3.org/1999/xlink">
<g id="graph0" class="graph" transform="scale(1 1) rotate(0) translate(4 174.8)">
<title>graph_3_4_2</title>
<polygon fill="#ffffff" stroke="transparent" points="-4,4 -4,-174.8 655.7448,-174.8 655.7448,4 -4,4"/>
<g id="node1" class="node">
<title></title>
</g>
<!-- 1 -->
<g id="node4" class="node">
<title>1</title>
<ellipse fill="none" stroke="#000000" cx="132.101" cy="-18" rx="18" ry="18"/>
<text text-anchor="middle" x="132.101" y="-13.8" font-family="Times,serif" font-size="14.00" fill="#000000">1</text>
</g>
<!-- &#45;&gt;1 -->
<g id="edge1" class="edge">
<title>&#45;&gt;1</title>
<path fill="none" stroke="#000000" d="M54.0661,-18C69.3856,-18 88.5175,-18 104.0034,-18"/>
<polygon fill="#000000" stroke="#000000" points="104.0503,-21.5001 114.0503,-18 104.0503,-14.5001 104.0503,-21.5001"/>
<text text-anchor="middle" x="84.0505" y="-22.2" font-family="Times,serif" font-size="14.00" fill="#000000">start</text>
</g>
<!-- 6 -->
<g id="node2" class="node">
<title>6</title>
<ellipse fill="none" stroke="#000000" cx="629.7448" cy="-115" rx="18" ry="18"/>
<ellipse fill="none" stroke="#000000" cx="629.7448" cy="-115" rx="22" ry="22"/>
<text text-anchor="middle" x="629.7448" y="-110.8" font-family="Times,serif" font-size="14.00" fill="#000000">6</text>
</g>
<!-- 3 -->
<g id="node6" class="node">
<title>3</title>
<ellipse fill="none" stroke="#000000" cx="302.5302" cy="-77" rx="18" ry="18"/>
<text text-anchor="middle" x="302.5302" y="-72.8" font-family="Times,serif" font-size="14.00" fill="#000000">3</text>
</g>
<!-- 6&#45;&gt;3 -->
<g id="edge6" class="edge">
<title>6&#45;&gt;3</title>
<path fill="none" stroke="#000000" d="M612.3926,-128.6403C596.3189,-139.8868 571.2634,-154 546.7448,-154 381.5302,-154 381.5302,-154 381.5302,-154 351.2305,-154 328.21,-124.5937 315.0433,-102.1261"/>
<polygon fill="#000000" stroke="#000000" points="318.0773,-100.3802 310.1689,-93.3297 311.9545,-103.773 318.0773,-100.3802"/>
<text text-anchor="middle" x="463.7448" y="-158.2" font-family="Times,serif" font-size="14.00" fill="#000000">a</text>
</g>
<!-- 4 -->
<g id="node7" class="node">
<title>4</title>
<ellipse fill="none" stroke="#000000" cx="546.7448" cy="-75" rx="18" ry="18"/>
<text text-anchor="middle" x="546.7448" y="-70.8" font-family="Times,serif" font-size="14.00" fill="#000000">4</text>
</g>
<!-- 6&#45;&gt;4 -->
<g id="edge7" class="edge">
<title>6&#45;&gt;4</title>
<path fill="none" stroke="#000000" d="M617.6948,-96.158C610.7444,-87.0934 601.1264,-77.1414 589.7448,-72.2 585.0999,-70.1834 579.9052,-69.4289 574.7761,-69.4102"/>
<polygon fill="#000000" stroke="#000000" points="574.2233,-65.9433 564.5372,-70.2362 574.7863,-72.9206 574.2233,-65.9433"/>
<text text-anchor="middle" x="586.2448" y="-76.2" font-family="Times,serif" font-size="14.00" fill="#000000">b</text>
</g>
<!-- 7 -->
<g id="node3" class="node">
<title>7</title>
<ellipse fill="none" stroke="#000000" cx="463.7448" cy="-75" rx="18" ry="18"/>
<ellipse fill="none" stroke="#000000" cx="463.7448" cy="-75" rx="22" ry="22"/>
<text text-anchor="middle" x="463.7448" y="-70.8" font-family="Times,serif" font-size="14.00" fill="#000000">7</text>
</g>
<!-- 7&#45;&gt;3 -->
<g id="edge11" class="edge">
<title>7&#45;&gt;3</title>
<path fill="none" stroke="#000000" d="M442.7828,-81.8469C436.7079,-83.5347 430.0203,-85.112 423.7448,-86 239.6065,-112.0572 356.5389,-89.4547 338.5302,-87 335.638,-86.6058 332.6501,-86.0411 329.6897,-85.3782"/>
<polygon fill="#000000" stroke="#000000" points="330.4667,-81.9641 319.909,-82.8503 328.715,-88.7414 330.4667,-81.9641"/>
<text text-anchor="middle" x="381.5302" y="-97.2" font-family="Times,serif" font-size="14.00" fill="#000000">a</text>
</g>
<!-- 7&#45;&gt;4 -->
<g id="edge12" class="edge">
<title>7&#45;&gt;4</title>
<path fill="none" stroke="#000000" d="M485.9873,-75C495.9992,-75 507.9325,-75 518.562,-75"/>
<polygon fill="#000000" stroke="#000000" points="518.6375,-78.5001 528.6375,-75 518.6374,-71.5001 518.6375,-78.5001"/>
<text text-anchor="middle" x="507.2448" y="-79.2" font-family="Times,serif" font-size="14.00" fill="#000000">b</text>
</g>
<!-- 2 -->
<g id="node5" class="node">
<title>2</title>
<ellipse fill="none" stroke="#000000" cx="224.3156" cy="-18" rx="18" ry="18"/>
<text text-anchor="middle" x="224.3156" y="-13.8" font-family="Times,serif" font-size="14.00" fill="#000000">2</text>
</g>
<!-- 1&#45;&gt;2 -->
<g id="edge2" class="edge">
<title>1&#45;&gt;2</title>
<path fill="none" stroke="#000000" d="M150.3196,-18C163.3286,-18 181.0821,-18 195.9384,-18"/>
<polygon fill="#000000" stroke="#000000" points="196.1348,-21.5001 206.1348,-18 196.1348,-14.5001 196.1348,-21.5001"/>
<text text-anchor="middle" x="178.2083" y="-22.2" font-family="Times,serif" font-size="14.00" fill="#000000">b, c</text>
</g>
<!-- 2&#45;&gt;3 -->
<g id="edge3" class="edge">
<title>2&#45;&gt;3</title>
<path fill="none" stroke="#000000" d="M239.0272,-29.0974C250.5706,-37.8051 266.8357,-50.0744 280.0147,-60.0158"/>
<polygon fill="#000000" stroke="#000000" points="278.0577,-62.9237 288.1489,-66.1517 282.2732,-57.3353 278.0577,-62.9237"/>
<text text-anchor="middle" x="263.4229" y="-53.2" font-family="Times,serif" font-size="14.00" fill="#000000">a</text>
</g>
<!-- 2&#45;&gt;4 -->
<g id="edge4" class="edge">
<title>2&#45;&gt;4</title>
<path fill="none" stroke="#000000" d="M241.5057,-12.404C257.2171,-7.79 281.1856,-2 302.5302,-2 302.5302,-2 302.5302,-2 463.7448,-2 493.8013,-2 518.1482,-29.3253 532.5212,-50.5398"/>
<polygon fill="#000000" stroke="#000000" points="529.7088,-52.6376 538.058,-59.1601 535.5986,-48.8546 529.7088,-52.6376"/>
<text text-anchor="middle" x="381.5302" y="-6.2" font-family="Times,serif" font-size="14.00" fill="#000000">b</text>
</g>
<!-- 5 -->
<g id="node8" class="node">
<title>5</title>
<ellipse fill="none" stroke="#000000" cx="381.5302" cy="-55" rx="18" ry="18"/>
<text text-anchor="middle" x="381.5302" y="-50.8" font-family="Times,serif" font-size="14.00" fill="#000000">5</text>
</g>
<!-- 3&#45;&gt;5 -->
<g id="edge8" class="edge">
<title>3&#45;&gt;5</title>
<path fill="none" stroke="#000000" d="M320.0629,-72.1175C330.0862,-69.3262 342.8765,-65.7643 354.1916,-62.6133"/>
<polygon fill="#000000" stroke="#000000" points="355.3521,-65.9234 364.0465,-59.8689 353.4741,-59.18 355.3521,-65.9234"/>
<text text-anchor="middle" x="342.0302" y="-70.2" font-family="Times,serif" font-size="14.00" fill="#000000">b</text>
</g>
<!-- 4&#45;&gt;6 -->
<g id="edge5" class="edge">
<title>4&#45;&gt;6</title>
<path fill="none" stroke="#000000" d="M562.8296,-83.1535C569.0354,-86.27 576.2033,-89.8343 582.7448,-93 588.3557,-95.7153 594.3667,-98.5699 600.1518,-101.2901"/>
<polygon fill="#000000" stroke="#000000" points="599.0228,-104.6259 609.5638,-105.6928 601.9888,-98.2853 599.0228,-104.6259"/>
<text text-anchor="middle" x="586.2448" y="-100.2" font-family="Times,serif" font-size="14.00" fill="#000000">a</text>
</g>
<!-- 5&#45;&gt;7 -->
<g id="edge10" class="edge">
<title>5&#45;&gt;7</title>
<path fill="none" stroke="#000000" d="M399.3695,-59.3397C408.9875,-61.6794 421.1394,-64.6356 432.2877,-67.3476"/>
<polygon fill="#000000" stroke="#000000" points="431.5982,-70.7818 442.1422,-69.7448 433.2529,-63.9802 431.5982,-70.7818"/>
<text text-anchor="middle" x="420.6375" y="-69.2" font-family="Times,serif" font-size="14.00" fill="#000000">c</text>
</g>
<!-- 5&#45;&gt;3 -->
<g id="edge9" class="edge">
<title>5&#45;&gt;3</title>
<path fill="none" stroke="#000000" d="M365.3099,-46.2704C357.1301,-43.0291 347.1435,-40.8646 338.5302,-44.2 332.2176,-46.6445 326.3323,-50.7681 321.2245,-55.2815"/>
<polygon fill="#000000" stroke="#000000" points="318.5553,-52.9979 313.8883,-62.5095 323.4682,-57.9844 318.5553,-52.9979"/>
<text text-anchor="middle" x="342.0302" y="-48.2" font-family="Times,serif" font-size="14.00" fill="#000000">a</text>
</g>
</g>
</svg>
