<?xml version="1.0" encoding="UTF-8" standalone="no"?>
<!DOCTYPE svg PUBLIC "-//W3C//DTD SVG 1.1//EN"
 "http://www.w3.org/Graphics/SVG/1.1/DTD/svg11.dtd">
<!-- Generated by graphviz version 2.40.1 (20161225.0304)
 -->
<!-- Title: graph_3_3_2 Pages: 1 -->
<svg width="557pt" height="339pt"
 viewBox="0.00 0.00 556.84 339.37" xmlns="http://www.w3.org/2000/svg" xmlns:xlink="http://www.w3.org/1999/xlink">
<g id="graph0" class="graph" transform="scale(1 1) rotate(0) translate(4 335.3656)">
<title>graph_3_3_2</title>
<polygon fill="#ffffff" stroke="transparent" points="-4,4 -4,-335.3656 552.845,-335.3656 552.845,4 -4,4"/>
<!-- 1 -->
<g id="node1" class="node">
<title>1</title>
<ellipse fill="none" stroke="#000000" cx="136.101" cy="-45.9892" rx="18" ry="18"/>
<ellipse fill="none" stroke="#000000" cx="136.101" cy="-45.9892" rx="22" ry="22"/>
<text text-anchor="middle" x="136.101" y="-41.7892" font-family="Times,serif" font-size="14.00" fill="#000000">1</text>
</g>
<!-- {1,2} -->
<g id="node2" class="node">
<title>{1,2}</title>
<ellipse fill="none" stroke="#000000" cx="237.4774" cy="-203.9892" rx="32.2668" ry="32.2668"/>
<ellipse fill="none" stroke="#000000" cx="237.4774" cy="-203.9892" rx="36.2533" ry="36.2533"/>
<text text-anchor="middle" x="237.4774" y="-199.7892" font-family="Times,serif" font-size="14.00" fill="#000000">{1,2}</text>
</g>
<!-- 1&#45;&gt;{1,2} -->
<g id="edge2" class="edge">
<title>1&#45;&gt;{1,2}</title>
<path fill="none" stroke="#000000" d="M148.1283,-64.7343C163.853,-89.242 191.7991,-132.7973 212.2617,-164.6892"/>
<polygon fill="#000000" stroke="#000000" points="209.4723,-166.8232 217.8183,-173.3496 215.3639,-163.043 209.4723,-166.8232"/>
<text text-anchor="middle" x="179.601" y="-119.1892" font-family="Times,serif" font-size="14.00" fill="#000000">a</text>
</g>
<!-- 2 -->
<g id="node6" class="node">
<title>2</title>
<ellipse fill="none" stroke="#000000" cx="309.8538" cy="-45.9892" rx="18" ry="18"/>
<text text-anchor="middle" x="309.8538" y="-41.7892" font-family="Times,serif" font-size="14.00" fill="#000000">2</text>
</g>
<!-- 1&#45;&gt;2 -->
<g id="edge3" class="edge">
<title>1&#45;&gt;2</title>
<path fill="none" stroke="#000000" d="M158.1069,-45.9892C189.4188,-45.9892 246.8509,-45.9892 281.3737,-45.9892"/>
<polygon fill="#000000" stroke="#000000" points="281.7153,-49.4893 291.7153,-45.9892 281.7153,-42.4893 281.7153,-49.4893"/>
<text text-anchor="middle" x="179.601" y="-50.1892" font-family="Times,serif" font-size="14.00" fill="#000000">b</text>
</g>
<!-- {1,2,3} -->
<g id="node3" class="node">
<title>{1,2,3}</title>
<ellipse fill="none" stroke="#000000" cx="389.473" cy="-123.9892" rx="39.7276" ry="39.7276"/>
<ellipse fill="none" stroke="#000000" cx="389.473" cy="-123.9892" rx="43.7386" ry="43.7386"/>
<text text-anchor="middle" x="389.473" y="-119.7892" font-family="Times,serif" font-size="14.00" fill="#000000">{1,2,3}</text>
</g>
<!-- {1,2}&#45;&gt;{1,2,3} -->
<g id="edge5" class="edge">
<title>{1,2}&#45;&gt;{1,2,3}</title>
<path fill="none" stroke="#000000" d="M269.7118,-187.0233C290.6368,-176.0097 318.2766,-161.4621 341.7301,-149.1177"/>
<polygon fill="#000000" stroke="#000000" points="343.6043,-152.0866 350.8232,-144.3318 340.3439,-145.8922 343.6043,-152.0866"/>
<text text-anchor="middle" x="309.8538" y="-177.1892" font-family="Times,serif" font-size="14.00" fill="#000000">a</text>
</g>
<!-- {2,3} -->
<g id="node8" class="node">
<title>{2,3}</title>
<ellipse fill="none" stroke="#000000" cx="389.473" cy="-251.9892" rx="32.2533" ry="32.2533"/>
<text text-anchor="middle" x="389.473" y="-247.7892" font-family="Times,serif" font-size="14.00" fill="#000000">{2,3}</text>
</g>
<!-- {1,2}&#45;&gt;{2,3} -->
<g id="edge6" class="edge">
<title>{1,2}&#45;&gt;{2,3}</title>
<path fill="none" stroke="#000000" d="M272.3483,-215.0014C295.0484,-222.17 324.7538,-231.551 348.5684,-239.0716"/>
<polygon fill="#000000" stroke="#000000" points="347.7865,-242.495 358.3763,-242.1689 349.8945,-235.8199 347.7865,-242.495"/>
<text text-anchor="middle" x="309.8538" y="-236.1892" font-family="Times,serif" font-size="14.00" fill="#000000">b</text>
</g>
<!-- {1,2,3}&#45;&gt;{1,2,3} -->
<g id="edge7" class="edge">
<title>{1,2,3}&#45;&gt;{1,2,3}</title>
<path fill="none" stroke="#000000" d="M377.5785,-166.0376C378.2581,-177.1738 382.223,-185.6083 389.473,-185.6083 394.3441,-185.6083 397.7322,-181.8008 399.6373,-175.9246"/>
<polygon fill="#000000" stroke="#000000" points="403.0913,-176.4913 401.3675,-166.0376 396.1961,-175.2846 403.0913,-176.4913"/>
<text text-anchor="middle" x="389.473" y="-189.8083" font-family="Times,serif" font-size="14.00" fill="#000000">a, b</text>
</g>
<!-- {1,3} -->
<g id="node4" class="node">
<title>{1,3}</title>
<ellipse fill="none" stroke="#000000" cx="512.4685" cy="-294.9892" rx="32.2668" ry="32.2668"/>
<ellipse fill="none" stroke="#000000" cx="512.4685" cy="-294.9892" rx="36.2533" ry="36.2533"/>
<text text-anchor="middle" x="512.4685" y="-290.7892" font-family="Times,serif" font-size="14.00" fill="#000000">{1,3}</text>
</g>
<!-- {1,3}&#45;&gt;{1,2} -->
<g id="edge11" class="edge">
<title>{1,3}&#45;&gt;{1,2}</title>
<path fill="none" stroke="#000000" d="M476.2768,-300.8929C441.7716,-305.0669 388.8459,-307.6322 345.8538,-292.9892 315.4755,-282.6424 287.6482,-259.3554 267.7986,-239.1969"/>
<polygon fill="#000000" stroke="#000000" points="270.2988,-236.7472 260.8566,-231.9414 265.241,-241.5865 270.2988,-236.7472"/>
<text text-anchor="middle" x="389.473" y="-308.1892" font-family="Times,serif" font-size="14.00" fill="#000000">a, b</text>
</g>
<g id="node5" class="node">
<title></title>
</g>
<!-- &#45;&gt;1 -->
<g id="edge1" class="edge">
<title>&#45;&gt;1</title>
<path fill="none" stroke="#000000" d="M54.2494,-45.9892C69.2234,-45.9892 87.8953,-45.9892 103.6229,-45.9892"/>
<polygon fill="#000000" stroke="#000000" points="103.9592,-49.4893 113.9591,-45.9892 103.9591,-42.4893 103.9592,-49.4893"/>
<text text-anchor="middle" x="84.0505" y="-50.1892" font-family="Times,serif" font-size="14.00" fill="#000000">start</text>
</g>
<!-- 3 -->
<g id="node7" class="node">
<title>3</title>
<ellipse fill="none" stroke="#000000" cx="512.4685" cy="-45.9892" rx="18" ry="18"/>
<text text-anchor="middle" x="512.4685" y="-41.7892" font-family="Times,serif" font-size="14.00" fill="#000000">3</text>
</g>
<!-- 2&#45;&gt;3 -->
<g id="edge4" class="edge">
<title>2&#45;&gt;3</title>
<path fill="none" stroke="#000000" d="M328.1919,-45.9892C363.6784,-45.9892 441.9548,-45.9892 484.1664,-45.9892"/>
<polygon fill="#000000" stroke="#000000" points="484.3179,-49.4893 494.3179,-45.9892 484.3179,-42.4893 484.3179,-49.4893"/>
<text text-anchor="middle" x="389.473" y="-50.1892" font-family="Times,serif" font-size="14.00" fill="#000000">a, b</text>
</g>
<!-- 3&#45;&gt;1 -->
<g id="edge10" class="edge">
<title>3&#45;&gt;1</title>
<path fill="none" stroke="#000000" d="M495.6999,-38.7498C458.9873,-23.7654 368.6386,8.4019 291.8538,-2.1892 247.3543,-8.3271 197.6704,-23.8891 166.6452,-34.7055"/>
<polygon fill="#000000" stroke="#000000" points="165.1282,-31.5298 156.8733,-38.1712 167.4681,-38.1272 165.1282,-31.5298"/>
<text text-anchor="middle" x="309.8538" y="-7.1892" font-family="Times,serif" font-size="14.00" fill="#000000">b</text>
</g>
<!-- {2,3}&#45;&gt;{1,3} -->
<g id="edge9" class="edge">
<title>{2,3}&#45;&gt;{1,3}</title>
<path fill="none" stroke="#000000" d="M420.1927,-262.729C434.6879,-267.7966 452.2568,-273.9388 468.1587,-279.4982"/>
<polygon fill="#000000" stroke="#000000" points="467.2071,-282.8732 477.802,-282.8696 469.5173,-276.2654 467.2071,-282.8732"/>
<text text-anchor="middle" x="454.5921" y="-278.1892" font-family="Times,serif" font-size="14.00" fill="#000000">b</text>
</g>
<!-- {2,3}&#45;&gt;3 -->
<g id="edge8" class="edge">
<title>{2,3}&#45;&gt;3</title>
<path fill="none" stroke="#000000" d="M414.6429,-231.2993C421.1533,-225.1915 427.8093,-218.1988 433.0921,-210.9892 465.6139,-166.6056 490.4456,-106.8077 503.1183,-72.7314"/>
<polygon fill="#000000" stroke="#000000" points="506.5192,-73.6212 506.6559,-63.0273 499.9425,-71.2237 506.5192,-73.6212"/>
<text text-anchor="middle" x="454.5921" y="-185.1892" font-family="Times,serif" font-size="14.00" fill="#000000">a</text>
</g>
</g>
</svg>
