<?xml version="1.0" encoding="UTF-8" standalone="no"?>
<!DOCTYPE svg PUBLIC "-//W3C//DTD SVG 1.1//EN"
 "http://www.w3.org/Graphics/SVG/1.1/DTD/svg11.dtd">
<!-- Generated by graphviz version 2.40.1 (20161225.0304)
 -->
<!-- Title: graph_3_2_2 Pages: 1 -->
<svg width="676pt" height="185pt"
 viewBox="0.00 0.00 676.27 185.36" xmlns="http://www.w3.org/2000/svg" xmlns:xlink="http://www.w3.org/1999/xlink">
<g id="graph0" class="graph" transform="scale(1 1) rotate(0) translate(4 181.3583)">
<title>graph_3_2_2</title>
<polygon fill="#ffffff" stroke="transparent" points="-4,4 -4,-181.3583 672.2742,-181.3583 672.2742,4 -4,4"/>
<!-- {2, 8} -->
<g id="node1" class="node">
<title>{2, 8}</title>
<ellipse fill="none" stroke="#000000" cx="231.1063" cy="-84.5676" rx="34.6039" ry="34.6039"/>
<ellipse fill="none" stroke="#000000" cx="231.1063" cy="-84.5676" rx="38.5824" ry="38.5824"/>
<text text-anchor="middle" x="231.1063" y="-80.3676" font-family="Times,serif" font-size="14.00" fill="#000000">{2, 8}</text>
</g>
<!-- {3, 7} -->
<g id="node6" class="node">
<title>{3, 7}</title>
<ellipse fill="none" stroke="#000000" cx="346.9022" cy="-84.5676" rx="34.5826" ry="34.5826"/>
<text text-anchor="middle" x="346.9022" y="-80.3676" font-family="Times,serif" font-size="14.00" fill="#000000">{3, 7}</text>
</g>
<!-- {2, 8}&#45;&gt;{3, 7} -->
<g id="edge3" class="edge">
<title>{2, 8}&#45;&gt;{3, 7}</title>
<path fill="none" stroke="#000000" d="M269.9868,-84.5676C280.1379,-84.5676 291.1664,-84.5676 301.6184,-84.5676"/>
<polygon fill="#000000" stroke="#000000" points="301.8245,-88.0677 311.8245,-84.5676 301.8244,-81.0677 301.8245,-88.0677"/>
<text text-anchor="middle" x="291.0042" y="-88.7676" font-family="Times,serif" font-size="14.00" fill="#000000">a</text>
</g>
<!-- {6, 8} -->
<g id="node2" class="node">
<title>{6, 8}</title>
<ellipse fill="none" stroke="#000000" cx="463.4835" cy="-138.5676" rx="34.6039" ry="34.6039"/>
<ellipse fill="none" stroke="#000000" cx="463.4835" cy="-138.5676" rx="38.5824" ry="38.5824"/>
<text text-anchor="middle" x="463.4835" y="-134.3676" font-family="Times,serif" font-size="14.00" fill="#000000">{6, 8}</text>
</g>
<!-- {6, 8}&#45;&gt;{3, 7} -->
<g id="edge7" class="edge">
<title>{6, 8}&#45;&gt;{3, 7}</title>
<path fill="none" stroke="#000000" d="M433.2194,-114.2161C424.9825,-108.486 415.8082,-102.8626 406.6928,-98.7676 401.8891,-96.6096 396.7151,-94.7558 391.4921,-93.1692"/>
<polygon fill="#000000" stroke="#000000" points="392.0406,-89.6911 381.4721,-90.4377 390.1995,-96.4447 392.0406,-89.6911"/>
<text text-anchor="middle" x="403.1928" y="-103.7676" font-family="Times,serif" font-size="14.00" fill="#000000">a</text>
</g>
<!-- 6 -->
<g id="node3" class="node">
<title>6</title>
<ellipse fill="none" stroke="#000000" cx="646.2742" cy="-45.5676" rx="18" ry="18"/>
<ellipse fill="none" stroke="#000000" cx="646.2742" cy="-45.5676" rx="22" ry="22"/>
<text text-anchor="middle" x="646.2742" y="-41.3676" font-family="Times,serif" font-size="14.00" fill="#000000">6</text>
</g>
<!-- 6&#45;&gt;{3, 7} -->
<g id="edge10" class="edge">
<title>6&#45;&gt;{3, 7}</title>
<path fill="none" stroke="#000000" d="M624.7678,-50.8469C618.8037,-52.1906 612.3093,-53.5426 606.2742,-54.5676 531.6439,-67.2427 444.01,-76.1471 392.095,-80.8066"/>
<polygon fill="#000000" stroke="#000000" points="391.5425,-77.3417 381.8897,-81.709 392.1591,-84.3145 391.5425,-77.3417"/>
<text text-anchor="middle" x="523.7742" y="-71.7676" font-family="Times,serif" font-size="14.00" fill="#000000">a</text>
</g>
<g id="node4" class="node">
<title></title>
</g>
<!-- 1 -->
<g id="node5" class="node">
<title>1</title>
<ellipse fill="none" stroke="#000000" cx="132.101" cy="-84.5676" rx="18" ry="18"/>
<text text-anchor="middle" x="132.101" y="-80.3676" font-family="Times,serif" font-size="14.00" fill="#000000">1</text>
</g>
<!-- &#45;&gt;1 -->
<g id="edge1" class="edge">
<title>&#45;&gt;1</title>
<path fill="none" stroke="#000000" d="M54.0661,-84.5676C69.3856,-84.5676 88.5175,-84.5676 104.0034,-84.5676"/>
<polygon fill="#000000" stroke="#000000" points="104.0503,-88.0677 114.0503,-84.5676 104.0503,-81.0677 104.0503,-88.0677"/>
<text text-anchor="middle" x="84.0505" y="-88.7676" font-family="Times,serif" font-size="14.00" fill="#000000">start</text>
</g>
<!-- 1&#45;&gt;{2, 8} -->
<g id="edge2" class="edge">
<title>1&#45;&gt;{2, 8}</title>
<path fill="none" stroke="#000000" d="M150.2601,-84.5676C159.2356,-84.5676 170.5464,-84.5676 181.8408,-84.5676"/>
<polygon fill="#000000" stroke="#000000" points="182.1411,-88.0677 192.1411,-84.5676 182.141,-81.0677 182.1411,-88.0677"/>
<text text-anchor="middle" x="171.2083" y="-88.7676" font-family="Times,serif" font-size="14.00" fill="#000000">a</text>
</g>
<!-- {3, 7}&#45;&gt;{6, 8} -->
<g id="edge5" class="edge">
<title>{3, 7}&#45;&gt;{6, 8}</title>
<path fill="none" stroke="#000000" d="M375.0404,-105.4361C382.7658,-110.5409 391.3258,-115.6544 399.6928,-119.5676 404.7957,-121.9542 410.2683,-124.1208 415.7849,-126.0647"/>
<polygon fill="#000000" stroke="#000000" points="415.0988,-129.5234 425.6917,-129.3226 417.2856,-122.8737 415.0988,-129.5234"/>
<text text-anchor="middle" x="403.1928" y="-125.7676" font-family="Times,serif" font-size="14.00" fill="#000000">b</text>
</g>
<!-- 4 -->
<g id="node7" class="node">
<title>4</title>
<ellipse fill="none" stroke="#000000" cx="463.4835" cy="-22.5676" rx="18" ry="18"/>
<text text-anchor="middle" x="463.4835" y="-18.3676" font-family="Times,serif" font-size="14.00" fill="#000000">4</text>
</g>
<!-- {3, 7}&#45;&gt;4 -->
<g id="edge4" class="edge">
<title>{3, 7}&#45;&gt;4</title>
<path fill="none" stroke="#000000" d="M370.7652,-58.9336C379.2299,-51.1309 389.2614,-43.1932 399.6928,-37.7676 410.6738,-32.0561 423.8328,-28.4544 435.3396,-26.2005"/>
<polygon fill="#000000" stroke="#000000" points="436.0676,-29.6269 445.3326,-24.4878 434.885,-22.7275 436.0676,-29.6269"/>
<text text-anchor="middle" x="403.1928" y="-42.7676" font-family="Times,serif" font-size="14.00" fill="#000000">a</text>
</g>
<!-- 5 -->
<g id="node8" class="node">
<title>5</title>
<ellipse fill="none" stroke="#000000" cx="563.2742" cy="-22.5676" rx="18" ry="18"/>
<text text-anchor="middle" x="563.2742" y="-18.3676" font-family="Times,serif" font-size="14.00" fill="#000000">5</text>
</g>
<!-- 4&#45;&gt;5 -->
<g id="edge6" class="edge">
<title>4&#45;&gt;5</title>
<path fill="none" stroke="#000000" d="M481.7866,-22.5676C496.5567,-22.5676 517.6012,-22.5676 534.604,-22.5676"/>
<polygon fill="#000000" stroke="#000000" points="535.0871,-26.0677 545.0871,-22.5676 535.087,-19.0677 535.0871,-26.0677"/>
<text text-anchor="middle" x="523.7742" y="-26.7676" font-family="Times,serif" font-size="14.00" fill="#000000">b</text>
</g>
<!-- 5&#45;&gt;6 -->
<g id="edge9" class="edge">
<title>5&#45;&gt;6</title>
<path fill="none" stroke="#000000" d="M580.8763,-27.4453C590.8136,-30.199 603.524,-33.7212 615.0922,-36.9268"/>
<polygon fill="#000000" stroke="#000000" points="614.2944,-40.3376 624.8659,-39.6352 616.1637,-33.5918 614.2944,-40.3376"/>
<text text-anchor="middle" x="602.7742" y="-38.7676" font-family="Times,serif" font-size="14.00" fill="#000000">b</text>
</g>
<!-- 5&#45;&gt;4 -->
<g id="edge8" class="edge">
<title>5&#45;&gt;4</title>
<path fill="none" stroke="#000000" d="M548.6397,-11.7742C542.3876,-7.8039 534.8039,-3.7865 527.2742,-1.7676 514.0891,1.7676 499.6082,-2.2924 487.7806,-7.7347"/>
<polygon fill="#000000" stroke="#000000" points="485.8377,-4.7988 478.5563,-12.495 489.0479,-11.0193 485.8377,-4.7988"/>
<text text-anchor="middle" x="523.7742" y="-6.7676" font-family="Times,serif" font-size="14.00" fill="#000000">a</text>
</g>
</g>
</svg>
