<?xml version="1.0" encoding="UTF-8" standalone="no"?>
<!DOCTYPE svg PUBLIC "-//W3C//DTD SVG 1.1//EN"
 "http://www.w3.org/Graphics/SVG/1.1/DTD/svg11.dtd">
<!-- Generated by graphviz version 2.40.1 (20161225.0304)
 -->
<!-- Title: graph_3_3_1 Pages: 1 -->
<svg width="351pt" height="87pt"
 viewBox="0.00 0.00 350.53 86.80" xmlns="http://www.w3.org/2000/svg" xmlns:xlink="http://www.w3.org/1999/xlink">
<g id="graph0" class="graph" transform="scale(1 1) rotate(0) translate(4 82.8)">
<title>graph_3_3_1</title>
<polygon fill="#ffffff" stroke="transparent" points="-4,4 -4,-82.8 346.5302,-82.8 346.5302,4 -4,4"/>
<!-- 1 -->
<g id="node1" class="node">
<title>1</title>
<ellipse fill="none" stroke="#000000" cx="136.101" cy="-22" rx="18" ry="18"/>
<ellipse fill="none" stroke="#000000" cx="136.101" cy="-22" rx="22" ry="22"/>
<text text-anchor="middle" x="136.101" y="-17.8" font-family="Times,serif" font-size="14.00" fill="#000000">1</text>
</g>
<!-- 1&#45;&gt;1 -->
<g id="edge2" class="edge">
<title>1&#45;&gt;1</title>
<path fill="none" stroke="#000000" d="M127.0556,-42.1697C125.664,-52.599 128.6791,-62 136.101,-62 140.9716,-62 143.9444,-57.9513 145.0193,-52.2203"/>
<polygon fill="#000000" stroke="#000000" points="148.5196,-52.2132 145.1464,-42.1697 141.5202,-52.1246 148.5196,-52.2132"/>
<text text-anchor="middle" x="136.101" y="-66.2" font-family="Times,serif" font-size="14.00" fill="#000000">a</text>
</g>
<!-- 2 -->
<g id="node3" class="node">
<title>2</title>
<ellipse fill="none" stroke="#000000" cx="232.3156" cy="-59" rx="18" ry="18"/>
<text text-anchor="middle" x="232.3156" y="-54.8" font-family="Times,serif" font-size="14.00" fill="#000000">2</text>
</g>
<!-- 1&#45;&gt;2 -->
<g id="edge3" class="edge">
<title>1&#45;&gt;2</title>
<path fill="none" stroke="#000000" d="M156.9781,-30.0284C171.3048,-35.5379 190.4356,-42.8948 205.8337,-48.8162"/>
<polygon fill="#000000" stroke="#000000" points="204.7356,-52.1437 215.3255,-52.4663 207.2481,-45.6102 204.7356,-52.1437"/>
<text text-anchor="middle" x="186.2083" y="-49.2" font-family="Times,serif" font-size="14.00" fill="#000000">a, b</text>
</g>
<g id="node2" class="node">
<title></title>
</g>
<!-- &#45;&gt;1 -->
<g id="edge1" class="edge">
<title>&#45;&gt;1</title>
<path fill="none" stroke="#000000" d="M54.2494,-22C69.2234,-22 87.8953,-22 103.6229,-22"/>
<polygon fill="#000000" stroke="#000000" points="103.9592,-25.5001 113.9591,-22 103.9591,-18.5001 103.9592,-25.5001"/>
<text text-anchor="middle" x="84.0505" y="-26.2" font-family="Times,serif" font-size="14.00" fill="#000000">start</text>
</g>
<!-- 3 -->
<g id="node4" class="node">
<title>3</title>
<ellipse fill="none" stroke="#000000" cx="324.5302" cy="-22" rx="18" ry="18"/>
<text text-anchor="middle" x="324.5302" y="-17.8" font-family="Times,serif" font-size="14.00" fill="#000000">3</text>
</g>
<!-- 2&#45;&gt;3 -->
<g id="edge4" class="edge">
<title>2&#45;&gt;3</title>
<path fill="none" stroke="#000000" d="M249.2292,-52.2136C262.8779,-46.7372 282.3247,-38.9344 298.0367,-32.6302"/>
<polygon fill="#000000" stroke="#000000" points="299.7464,-35.7155 307.7238,-28.7433 297.1397,-29.2189 299.7464,-35.7155"/>
<text text-anchor="middle" x="278.4229" y="-48.2" font-family="Times,serif" font-size="14.00" fill="#000000">a, b</text>
</g>
<!-- 3&#45;&gt;1 -->
<g id="edge5" class="edge">
<title>3&#45;&gt;1</title>
<path fill="none" stroke="#000000" d="M306.5659,-19.8906C291.5552,-18.2396 269.5738,-16.0804 250.3156,-15.2 222.5644,-13.9313 191.0479,-16.0781 168.162,-18.2874"/>
<polygon fill="#000000" stroke="#000000" points="167.5791,-14.8287 157.9873,-19.3284 168.2916,-21.7923 167.5791,-14.8287"/>
<text text-anchor="middle" x="232.3156" y="-20.2" font-family="Times,serif" font-size="14.00" fill="#000000">b</text>
</g>
</g>
</svg>
