<?xml version="1.0" encoding="UTF-8" standalone="no"?>
<!DOCTYPE svg PUBLIC "-//W3C//DTD SVG 1.1//EN"
 "http://www.w3.org/Graphics/SVG/1.1/DTD/svg11.dtd">
<!-- Generated by graphviz version 2.40.1 (20161225.0304)
 -->
<!-- Title: graph_3_2_1 Pages: 1 -->
<svg width="411pt" height="323pt"
 viewBox="0.00 0.00 411.10 322.80" xmlns="http://www.w3.org/2000/svg" xmlns:xlink="http://www.w3.org/1999/xlink">
<g id="graph0" class="graph" transform="scale(1 1) rotate(0) translate(4 318.8)">
<title>graph_3_2_1</title>
<polygon fill="#ffffff" stroke="transparent" points="-4,4 -4,-318.8 407.101,-318.8 407.101,4 -4,4"/>
<!-- 5 -->
<g id="node1" class="node">
<title>5</title>
<ellipse fill="none" stroke="#000000" cx="136.101" cy="-272" rx="18" ry="18"/>
<ellipse fill="none" stroke="#000000" cx="136.101" cy="-272" rx="22" ry="22"/>
<text text-anchor="middle" x="136.101" y="-267.8" font-family="Times,serif" font-size="14.00" fill="#000000">5</text>
</g>
<!-- 4 -->
<g id="node7" class="node">
<title>4</title>
<ellipse fill="none" stroke="#000000" cx="385.101" cy="-272" rx="18" ry="18"/>
<text text-anchor="middle" x="385.101" y="-267.8" font-family="Times,serif" font-size="14.00" fill="#000000">4</text>
</g>
<!-- 5&#45;&gt;4 -->
<g id="edge10" class="edge">
<title>5&#45;&gt;4</title>
<path fill="none" stroke="#000000" d="M158.1981,-272C203.4397,-272 306.5662,-272 356.6946,-272"/>
<polygon fill="#000000" stroke="#000000" points="356.8293,-275.5001 366.8293,-272 356.8293,-268.5001 356.8293,-275.5001"/>
<text text-anchor="middle" x="258.601" y="-276.2" font-family="Times,serif" font-size="14.00" fill="#000000">a</text>
</g>
<!-- 6 -->
<g id="node8" class="node">
<title>6</title>
<ellipse fill="none" stroke="#000000" cx="219.101" cy="-157" rx="18" ry="18"/>
<text text-anchor="middle" x="219.101" y="-152.8" font-family="Times,serif" font-size="14.00" fill="#000000">6</text>
</g>
<!-- 5&#45;&gt;6 -->
<g id="edge6" class="edge">
<title>5&#45;&gt;6</title>
<path fill="none" stroke="#000000" d="M149.0698,-254.0313C163.4156,-234.1545 186.5777,-202.0625 202.302,-180.2758"/>
<polygon fill="#000000" stroke="#000000" points="205.321,-182.0733 208.3353,-171.9163 199.6449,-177.9767 205.321,-182.0733"/>
<text text-anchor="middle" x="179.601" y="-219.2" font-family="Times,serif" font-size="14.00" fill="#000000">b</text>
</g>
<!-- 7 -->
<g id="node2" class="node">
<title>7</title>
<ellipse fill="none" stroke="#000000" cx="302.101" cy="-22" rx="18" ry="18"/>
<ellipse fill="none" stroke="#000000" cx="302.101" cy="-22" rx="22" ry="22"/>
<text text-anchor="middle" x="302.101" y="-17.8" font-family="Times,serif" font-size="14.00" fill="#000000">7</text>
</g>
<!-- 8 -->
<g id="node9" class="node">
<title>8</title>
<ellipse fill="none" stroke="#000000" cx="385.101" cy="-40" rx="18" ry="18"/>
<text text-anchor="middle" x="385.101" y="-35.8" font-family="Times,serif" font-size="14.00" fill="#000000">8</text>
</g>
<!-- 7&#45;&gt;8 -->
<g id="edge8" class="edge">
<title>7&#45;&gt;8</title>
<path fill="none" stroke="#000000" d="M323.9083,-26.7293C334.1725,-28.9553 346.529,-31.635 357.443,-34.0019"/>
<polygon fill="#000000" stroke="#000000" points="356.8349,-37.4513 367.3495,-36.1503 358.3185,-30.6103 356.8349,-37.4513"/>
<text text-anchor="middle" x="345.601" y="-37.2" font-family="Times,serif" font-size="14.00" fill="#000000">b</text>
</g>
<g id="node3" class="node">
<title></title>
</g>
<!-- 1 -->
<g id="node4" class="node">
<title>1</title>
<ellipse fill="none" stroke="#000000" cx="136.101" cy="-102" rx="18" ry="18"/>
<text text-anchor="middle" x="136.101" y="-97.8" font-family="Times,serif" font-size="14.00" fill="#000000">1</text>
</g>
<!-- &#45;&gt;1 -->
<g id="edge1" class="edge">
<title>&#45;&gt;1</title>
<path fill="none" stroke="#000000" d="M54.2494,-102C70.61,-102 91.385,-102 107.9108,-102"/>
<polygon fill="#000000" stroke="#000000" points="108.068,-105.5001 118.068,-102 108.068,-98.5001 108.068,-105.5001"/>
<text text-anchor="middle" x="84.0505" y="-106.2" font-family="Times,serif" font-size="14.00" fill="#000000">start</text>
</g>
<!-- 2 -->
<g id="node5" class="node">
<title>2</title>
<ellipse fill="none" stroke="#000000" cx="219.101" cy="-216" rx="18" ry="18"/>
<text text-anchor="middle" x="219.101" y="-211.8" font-family="Times,serif" font-size="14.00" fill="#000000">2</text>
</g>
<!-- 1&#45;&gt;2 -->
<g id="edge2" class="edge">
<title>1&#45;&gt;2</title>
<path fill="none" stroke="#000000" d="M148.7018,-115.5761C158.5439,-126.4608 172.314,-142.3228 183.101,-157.2 190.9265,-167.9927 198.7568,-180.5239 205.1066,-191.2381"/>
<polygon fill="#000000" stroke="#000000" points="202.2096,-193.2184 210.2683,-200.0966 208.2578,-189.6942 202.2096,-193.2184"/>
<text text-anchor="middle" x="179.601" y="-162.2" font-family="Times,serif" font-size="14.00" fill="#000000">a</text>
</g>
<!-- 1&#45;&gt;8 -->
<g id="edge9" class="edge">
<title>1&#45;&gt;8</title>
<path fill="none" stroke="#000000" d="M153.2973,-96.6259C176.3046,-89.5822 218.4588,-77.1877 255.101,-69.2 296.4504,-60.1862 308.2645,-65.1087 349.101,-54 352.3364,-53.1199 355.6813,-52.0495 358.9694,-50.8967"/>
<polygon fill="#000000" stroke="#000000" points="360.3785,-54.106 368.4975,-47.2993 357.9058,-47.5572 360.3785,-54.106"/>
<text text-anchor="middle" x="258.601" y="-74.2" font-family="Times,serif" font-size="14.00" fill="#000000">a</text>
</g>
<!-- 3 -->
<g id="node6" class="node">
<title>3</title>
<ellipse fill="none" stroke="#000000" cx="302.101" cy="-204" rx="18" ry="18"/>
<text text-anchor="middle" x="302.101" y="-199.8" font-family="Times,serif" font-size="14.00" fill="#000000">3</text>
</g>
<!-- 2&#45;&gt;3 -->
<g id="edge3" class="edge">
<title>2&#45;&gt;3</title>
<path fill="none" stroke="#000000" d="M237.0993,-213.5305C244.8021,-212.4627 253.8952,-211.1879 262.101,-210 265.9407,-209.4442 269.9862,-208.8488 273.9697,-208.2568"/>
<polygon fill="#000000" stroke="#000000" points="274.8145,-211.6694 284.186,-206.7273 273.778,-204.7466 274.8145,-211.6694"/>
<text text-anchor="middle" x="258.601" y="-215.2" font-family="Times,serif" font-size="14.00" fill="#000000">a</text>
</g>
<!-- 3&#45;&gt;4 -->
<g id="edge4" class="edge">
<title>3&#45;&gt;4</title>
<path fill="none" stroke="#000000" d="M316.614,-215.2556C325.9615,-222.5618 338.3342,-232.3387 349.101,-241.2 353.9019,-245.1512 359.0065,-249.4546 363.8169,-253.5575"/>
<polygon fill="#000000" stroke="#000000" points="361.6609,-256.3195 371.529,-260.1758 366.2196,-251.0074 361.6609,-256.3195"/>
<text text-anchor="middle" x="345.601" y="-246.2" font-family="Times,serif" font-size="14.00" fill="#000000">a</text>
</g>
<!-- 3&#45;&gt;6 -->
<g id="edge11" class="edge">
<title>3&#45;&gt;6</title>
<path fill="none" stroke="#000000" d="M294.1817,-187.3908C287.4814,-175.4496 276.6429,-160.2585 262.101,-153.2 257.3352,-150.8867 251.9228,-150.1407 246.5842,-150.2727"/>
<polygon fill="#000000" stroke="#000000" points="246.1302,-146.8018 236.5986,-151.4276 246.9345,-153.7554 246.1302,-146.8018"/>
<text text-anchor="middle" x="258.601" y="-158.2" font-family="Times,serif" font-size="14.00" fill="#000000">b</text>
</g>
<!-- 4&#45;&gt;5 -->
<g id="edge5" class="edge">
<title>4&#45;&gt;5</title>
<path fill="none" stroke="#000000" d="M368.5978,-279.7145C362.5902,-282.1727 355.6619,-284.6125 349.101,-286 273.876,-301.9093 251.553,-300.7953 176.101,-286 172.852,-285.3629 169.5093,-284.5172 166.2061,-283.5559"/>
<polygon fill="#000000" stroke="#000000" points="167.1411,-280.1796 156.5489,-280.4183 164.9781,-286.8371 167.1411,-280.1796"/>
<text text-anchor="middle" x="258.601" y="-302.2" font-family="Times,serif" font-size="14.00" fill="#000000">b</text>
</g>
<!-- 6&#45;&gt;7 -->
<g id="edge7" class="edge">
<title>6&#45;&gt;7</title>
<path fill="none" stroke="#000000" d="M229.0043,-141.9387C237.8306,-128.4287 251.027,-108.0154 262.101,-90 270.1028,-76.9824 278.7269,-62.3966 285.9113,-50.0816"/>
<polygon fill="#000000" stroke="#000000" points="289.0915,-51.575 291.0905,-41.1705 283.0395,-48.0575 289.0915,-51.575"/>
<text text-anchor="middle" x="258.601" y="-106.2" font-family="Times,serif" font-size="14.00" fill="#000000">a</text>
</g>
<!-- 6&#45;&gt;3 -->
<g id="edge12" class="edge">
<title>6&#45;&gt;3</title>
<path fill="none" stroke="#000000" d="M235.1042,-166.0621C247.1224,-172.8676 263.7984,-182.3106 277.5062,-190.0728"/>
<polygon fill="#000000" stroke="#000000" points="276.002,-193.2432 286.4284,-195.1251 279.4513,-187.152 276.002,-193.2432"/>
<text text-anchor="middle" x="258.601" y="-185.2" font-family="Times,serif" font-size="14.00" fill="#000000">a</text>
</g>
<!-- 8&#45;&gt;7 -->
<g id="edge13" class="edge">
<title>8&#45;&gt;7</title>
<path fill="none" stroke="#000000" d="M373.1714,-26.4985C366.7438,-20.2535 358.2611,-13.4994 349.101,-10.2 343.6593,-8.24 337.7507,-8.1837 332.0184,-9.1501"/>
<polygon fill="#000000" stroke="#000000" points="330.7958,-5.8534 322.0296,-11.8036 332.5931,-12.6187 330.7958,-5.8534"/>
<text text-anchor="middle" x="345.601" y="-15.2" font-family="Times,serif" font-size="14.00" fill="#000000">a</text>
</g>
</g>
</svg>
