<?xml version="1.0" encoding="UTF-8" standalone="no"?>
<!DOCTYPE svg PUBLIC "-//W3C//DTD SVG 1.1//EN"
 "http://www.w3.org/Graphics/SVG/1.1/DTD/svg11.dtd">
<!-- Generated by graphviz version 2.40.1 (20161225.0304)
 -->
<!-- Pages: 1 -->
<svg width="256pt" height="130pt"
 viewBox="0.00 0.00 255.87 130.39" xmlns="http://www.w3.org/2000/svg" xmlns:xlink="http://www.w3.org/1999/xlink">
<g id="graph0" class="graph" transform="scale(1 1) rotate(0) translate(4 126.3869)">
<polygon fill="#ffffff" stroke="transparent" points="-4,4 -4,-126.3869 251.8748,-126.3869 251.8748,4 -4,4"/>
<g id="node1" class="node">
<title></title>
</g>
<!-- q1 -->
<g id="node2" class="node">
<title>q1</title>
<ellipse fill="none" stroke="#000000" cx="134.7945" cy="-61.6935" rx="20.8887" ry="20.8887"/>
<text text-anchor="middle" x="134.7945" y="-57.4935" font-family="Times,serif" font-size="14.00" fill="#000000">q1</text>
</g>
<!-- &#45;&gt;q1 -->
<g id="edge1" class="edge">
<title>&#45;&gt;q1</title>
<path fill="none" stroke="#000000" d="M54.2011,-61.6935C69.3023,-61.6935 88.1443,-61.6935 103.8118,-61.6935"/>
<polygon fill="#000000" stroke="#000000" points="104.0665,-65.1936 114.0664,-61.6935 104.0664,-58.1936 104.0665,-65.1936"/>
<text text-anchor="middle" x="84.0505" y="-65.8935" font-family="Times,serif" font-size="14.00" fill="#000000">start</text>
</g>
<!-- q2 -->
<g id="node3" class="node">
<title>q2</title>
<ellipse fill="none" stroke="#000000" cx="223.1814" cy="-97.6935" rx="20.8568" ry="20.8568"/>
<ellipse fill="none" stroke="#000000" cx="223.1814" cy="-97.6935" rx="24.8884" ry="24.8884"/>
<text text-anchor="middle" x="223.1814" y="-93.4935" font-family="Times,serif" font-size="14.00" fill="#000000">q2</text>
</g>
<!-- q1&#45;&gt;q2 -->
<g id="edge2" class="edge">
<title>q1&#45;&gt;q2</title>
<path fill="none" stroke="#000000" d="M147.0981,-78.8516C153.8744,-86.8001 163.03,-95.4169 173.4879,-99.6935 178.3093,-101.665 183.618,-102.5963 188.9165,-102.8681"/>
<polygon fill="#000000" stroke="#000000" points="189.0306,-106.3667 198.9626,-102.6782 188.8981,-99.3679 189.0306,-106.3667"/>
<text text-anchor="middle" x="176.9879" y="-104.8935" font-family="Times,serif" font-size="14.00" fill="#000000">a</text>
</g>
<!-- q3 -->
<g id="node4" class="node">
<title>q3</title>
<ellipse fill="none" stroke="#000000" cx="223.1814" cy="-24.6935" rx="20.8568" ry="20.8568"/>
<ellipse fill="none" stroke="#000000" cx="223.1814" cy="-24.6935" rx="24.8884" ry="24.8884"/>
<text text-anchor="middle" x="223.1814" y="-20.4935" font-family="Times,serif" font-size="14.00" fill="#000000">q3</text>
</g>
<!-- q1&#45;&gt;q3 -->
<g id="edge4" class="edge">
<title>q1&#45;&gt;q3</title>
<path fill="none" stroke="#000000" d="M153.9731,-53.665C164.7098,-49.1705 178.3837,-43.4464 190.7369,-38.2752"/>
<polygon fill="#000000" stroke="#000000" points="192.4066,-41.3706 200.2794,-34.2805 189.7035,-34.9135 192.4066,-41.3706"/>
<text text-anchor="middle" x="176.9879" y="-49.8935" font-family="Times,serif" font-size="14.00" fill="#000000">b</text>
</g>
<!-- q2&#45;&gt;q1 -->
<g id="edge3" class="edge">
<title>q2&#45;&gt;q1</title>
<path fill="none" stroke="#000000" d="M200.6797,-87.5093C194.1937,-84.6488 187.0867,-81.586 180.4879,-78.8935 175.1904,-76.7319 169.5098,-74.5145 164.0164,-72.4209"/>
<polygon fill="#000000" stroke="#000000" points="165.0456,-69.0687 154.4536,-68.825 162.5818,-75.6208 165.0456,-69.0687"/>
<text text-anchor="middle" x="176.9879" y="-82.8935" font-family="Times,serif" font-size="14.00" fill="#000000">b</text>
</g>
<!-- q3&#45;&gt;q1 -->
<g id="edge5" class="edge">
<title>q3&#45;&gt;q1</title>
<path fill="none" stroke="#000000" d="M198.9421,-19.7963C190.6019,-19.1443 181.3817,-19.6174 173.4879,-22.8935 166.1182,-25.952 159.424,-31.1714 153.7539,-36.8074"/>
<polygon fill="#000000" stroke="#000000" points="150.8209,-34.831 146.6894,-44.5872 156.0031,-39.5369 150.8209,-34.831"/>
<text text-anchor="middle" x="176.9879" y="-27.8935" font-family="Times,serif" font-size="14.00" fill="#000000">a</text>
</g>
</g>
</svg>
