<?xml version="1.0" encoding="UTF-8" standalone="no"?>
<!DOCTYPE svg PUBLIC "-//W3C//DTD SVG 1.1//EN"
 "http://www.w3.org/Graphics/SVG/1.1/DTD/svg11.dtd">
<!-- Generated by graphviz version 2.40.1 (20161225.0304)
 -->
<!-- Pages: 1 -->
<svg width="255pt" height="92pt"
 viewBox="0.00 0.00 255.09 92.19" xmlns="http://www.w3.org/2000/svg" xmlns:xlink="http://www.w3.org/1999/xlink">
<g id="graph0" class="graph" transform="scale(1 1) rotate(0) translate(4 88.1869)">
<polygon fill="#ffffff" stroke="transparent" points="-4,4 -4,-88.1869 251.0894,-88.1869 251.0894,4 -4,4"/>
<g id="node1" class="node">
<title></title>
</g>
<!-- q1 -->
<g id="node2" class="node">
<title>q1</title>
<ellipse fill="none" stroke="#000000" cx="134.7945" cy="-24.6935" rx="20.8887" ry="20.8887"/>
<text text-anchor="middle" x="134.7945" y="-20.4935" font-family="Times,serif" font-size="14.00" fill="#000000">q1</text>
</g>
<!-- &#45;&gt;q1 -->
<g id="edge1" class="edge">
<title>&#45;&gt;q1</title>
<path fill="none" stroke="#000000" d="M54.2011,-24.6935C69.3023,-24.6935 88.1443,-24.6935 103.8118,-24.6935"/>
<polygon fill="#000000" stroke="#000000" points="104.0665,-28.1936 114.0664,-24.6935 104.0664,-21.1936 104.0665,-28.1936"/>
<text text-anchor="middle" x="84.0505" y="-28.8935" font-family="Times,serif" font-size="14.00" fill="#000000">start</text>
</g>
<!-- q1&#45;&gt;q1 -->
<g id="edge3" class="edge">
<title>q1&#45;&gt;q1</title>
<path fill="none" stroke="#000000" d="M127.5581,-44.2043C126.4448,-54.2929 128.857,-63.3869 134.7945,-63.3869 138.5982,-63.3869 140.9551,-59.6547 141.8651,-54.3198"/>
<polygon fill="#000000" stroke="#000000" points="145.3665,-54.2603 142.0308,-44.2043 138.3674,-54.1456 145.3665,-54.2603"/>
<text text-anchor="middle" x="134.7945" y="-67.5869" font-family="Times,serif" font-size="14.00" fill="#000000">a, b</text>
</g>
<!-- q2 -->
<g id="node3" class="node">
<title>q2</title>
<ellipse fill="none" stroke="#000000" cx="222.396" cy="-24.6935" rx="20.8568" ry="20.8568"/>
<ellipse fill="none" stroke="#000000" cx="222.396" cy="-24.6935" rx="24.8884" ry="24.8884"/>
<text text-anchor="middle" x="222.396" y="-20.4935" font-family="Times,serif" font-size="14.00" fill="#000000">q2</text>
</g>
<!-- q1&#45;&gt;q2 -->
<g id="edge2" class="edge">
<title>q1&#45;&gt;q2</title>
<path fill="none" stroke="#000000" d="M155.5548,-24.6935C165.0636,-24.6935 176.5977,-24.6935 187.389,-24.6935"/>
<polygon fill="#000000" stroke="#000000" points="187.4175,-28.1936 197.4174,-24.6935 187.4174,-21.1936 187.4175,-28.1936"/>
<text text-anchor="middle" x="176.5952" y="-28.8935" font-family="Times,serif" font-size="14.00" fill="#000000">c</text>
</g>
<!-- q2&#45;&gt;q2 -->
<g id="edge4" class="edge">
<title>q2&#45;&gt;q2</title>
<path fill="none" stroke="#000000" d="M214.2447,-48.4015C213.5773,-58.6297 216.2944,-67.3869 222.396,-67.3869 226.3048,-67.3869 228.8246,-63.7929 229.9554,-58.5207"/>
<polygon fill="#000000" stroke="#000000" points="233.4573,-58.5888 230.5473,-48.4015 226.4693,-58.1801 233.4573,-58.5888"/>
<text text-anchor="middle" x="222.396" y="-71.5869" font-family="Times,serif" font-size="14.00" fill="#000000">a, b</text>
</g>
</g>
</svg>
