<?xml version="1.0" encoding="UTF-8" standalone="no"?>
<!DOCTYPE svg PUBLIC "-//W3C//DTD SVG 1.1//EN"
 "http://www.w3.org/Graphics/SVG/1.1/DTD/svg11.dtd">
<!-- Generated by graphviz version 2.40.1 (20161225.0304)
 -->
<!-- Pages: 1 -->
<svg width="546pt" height="335pt"
 viewBox="0.00 0.00 546.01 335.02" xmlns="http://www.w3.org/2000/svg" xmlns:xlink="http://www.w3.org/1999/xlink">
<g id="graph0" class="graph" transform="scale(1 1) rotate(0) translate(4 331.0154)">
<polygon fill="#ffffff" stroke="transparent" points="-4,4 -4,-331.0154 542.0064,-331.0154 542.0064,4 -4,4"/>
<g id="node1" class="node">
<title></title>
</g>
<!-- q1 -->
<g id="node2" class="node">
<title>q1</title>
<ellipse fill="none" stroke="#000000" cx="134.7945" cy="-165.5219" rx="20.8887" ry="20.8887"/>
<text text-anchor="middle" x="134.7945" y="-161.3219" font-family="Times,serif" font-size="14.00" fill="#000000">q1</text>
</g>
<!-- &#45;&gt;q1 -->
<g id="edge1" class="edge">
<title>&#45;&gt;q1</title>
<path fill="none" stroke="#000000" d="M54.2011,-165.5219C69.3023,-165.5219 88.1443,-165.5219 103.8118,-165.5219"/>
<polygon fill="#000000" stroke="#000000" points="104.0665,-169.022 114.0664,-165.5219 104.0664,-162.022 104.0665,-169.022"/>
<text text-anchor="middle" x="84.0505" y="-169.7219" font-family="Times,serif" font-size="14.00" fill="#000000">start</text>
</g>
<!-- q2 -->
<g id="node3" class="node">
<title>q2</title>
<ellipse fill="none" stroke="#000000" cx="219.1814" cy="-198.5219" rx="20.8887" ry="20.8887"/>
<text text-anchor="middle" x="219.1814" y="-194.3219" font-family="Times,serif" font-size="14.00" fill="#000000">q2</text>
</g>
<!-- q1&#45;&gt;q2 -->
<g id="edge2" class="edge">
<title>q1&#45;&gt;q2</title>
<path fill="none" stroke="#000000" d="M154.3666,-173.1757C165.0173,-177.3408 178.3983,-182.5735 190.2324,-187.2013"/>
<polygon fill="#000000" stroke="#000000" points="189.1274,-190.5272 199.7153,-190.9096 191.6768,-184.0079 189.1274,-190.5272"/>
<text text-anchor="middle" x="176.9879" y="-186.7219" font-family="Times,serif" font-size="14.00" fill="#000000">b</text>
</g>
<!-- q7 -->
<g id="node8" class="node">
<title>q7</title>
<ellipse fill="none" stroke="#000000" cx="219.1814" cy="-136.5219" rx="20.8887" ry="20.8887"/>
<text text-anchor="middle" x="219.1814" y="-132.3219" font-family="Times,serif" font-size="14.00" fill="#000000">q7</text>
</g>
<!-- q1&#45;&gt;q7 -->
<g id="edge3" class="edge">
<title>q1&#45;&gt;q7</title>
<path fill="none" stroke="#000000" d="M154.4501,-158.4198C160.5424,-156.2432 167.2844,-153.8597 173.4879,-151.7219 178.5935,-149.9625 184.0317,-148.1233 189.3096,-146.3565"/>
<polygon fill="#000000" stroke="#000000" points="190.7484,-149.5664 199.1319,-143.0882 188.5384,-142.9245 190.7484,-149.5664"/>
<text text-anchor="middle" x="176.9879" y="-155.7219" font-family="Times,serif" font-size="14.00" fill="#000000">a</text>
</g>
<!-- q3 -->
<g id="node4" class="node">
<title>q3</title>
<ellipse fill="none" stroke="#000000" cx="308.3967" cy="-267.5219" rx="20.8568" ry="20.8568"/>
<ellipse fill="none" stroke="#000000" cx="308.3967" cy="-267.5219" rx="24.8884" ry="24.8884"/>
<text text-anchor="middle" x="308.3967" y="-263.3219" font-family="Times,serif" font-size="14.00" fill="#000000">q3</text>
</g>
<!-- q2&#45;&gt;q3 -->
<g id="edge4" class="edge">
<title>q2&#45;&gt;q3</title>
<path fill="none" stroke="#000000" d="M235.9621,-211.5003C248.4516,-221.1598 265.7869,-234.5671 280.3673,-245.8437"/>
<polygon fill="#000000" stroke="#000000" points="278.5247,-248.8432 288.5762,-252.1925 282.8072,-243.306 278.5247,-248.8432"/>
<text text-anchor="middle" x="261.3748" y="-236.7219" font-family="Times,serif" font-size="14.00" fill="#000000">b</text>
</g>
<!-- q4 -->
<g id="node5" class="node">
<title>q4</title>
<ellipse fill="none" stroke="#000000" cx="308.3967" cy="-198.5219" rx="20.8887" ry="20.8887"/>
<text text-anchor="middle" x="308.3967" y="-194.3219" font-family="Times,serif" font-size="14.00" fill="#000000">q4</text>
</g>
<!-- q2&#45;&gt;q4 -->
<g id="edge10" class="edge">
<title>q2&#45;&gt;q4</title>
<path fill="none" stroke="#000000" d="M240.3242,-198.5219C251.3237,-198.5219 264.9843,-198.5219 277.175,-198.5219"/>
<polygon fill="#000000" stroke="#000000" points="277.4057,-202.022 287.4057,-198.5219 277.4057,-195.022 277.4057,-202.022"/>
<text text-anchor="middle" x="261.3748" y="-202.7219" font-family="Times,serif" font-size="14.00" fill="#000000">a</text>
</g>
<!-- q3&#45;&gt;q3 -->
<g id="edge5" class="edge">
<title>q3&#45;&gt;q3</title>
<path fill="none" stroke="#000000" d="M299.9065,-290.7969C299.0979,-301.2097 301.928,-310.2154 308.3967,-310.2154 312.5408,-310.2154 315.1915,-306.5195 316.3489,-301.1254"/>
<polygon fill="#000000" stroke="#000000" points="319.8619,-300.9655 316.887,-290.7969 312.8714,-300.6013 319.8619,-300.9655"/>
<text text-anchor="middle" x="308.3967" y="-314.4154" font-family="Times,serif" font-size="14.00" fill="#000000">b</text>
</g>
<!-- q5 -->
<g id="node6" class="node">
<title>q5</title>
<ellipse fill="none" stroke="#000000" cx="406.4406" cy="-266.5219" rx="20.8568" ry="20.8568"/>
<ellipse fill="none" stroke="#000000" cx="406.4406" cy="-266.5219" rx="24.8884" ry="24.8884"/>
<text text-anchor="middle" x="406.4406" y="-262.3219" font-family="Times,serif" font-size="14.00" fill="#000000">q5</text>
</g>
<!-- q3&#45;&gt;q5 -->
<g id="edge6" class="edge">
<title>q3&#45;&gt;q5</title>
<path fill="none" stroke="#000000" d="M333.1373,-267.2696C344.7488,-267.1512 358.7919,-267.0079 371.4665,-266.8786"/>
<polygon fill="#000000" stroke="#000000" points="371.7441,-270.3761 381.7079,-266.7742 371.6727,-263.3765 371.7441,-270.3761"/>
<text text-anchor="middle" x="355.4187" y="-270.7219" font-family="Times,serif" font-size="14.00" fill="#000000">a</text>
</g>
<!-- q4&#45;&gt;q5 -->
<g id="edge11" class="edge">
<title>q4&#45;&gt;q5</title>
<path fill="none" stroke="#000000" d="M325.4747,-210.3666C339.771,-220.2821 360.4872,-234.6502 377.3856,-246.3703"/>
<polygon fill="#000000" stroke="#000000" points="375.6084,-249.3971 385.8202,-252.2203 379.5978,-243.6451 375.6084,-249.3971"/>
<text text-anchor="middle" x="355.4187" y="-236.7219" font-family="Times,serif" font-size="14.00" fill="#000000">b</text>
</g>
<!-- q12 -->
<g id="node13" class="node">
<title>q12</title>
<ellipse fill="none" stroke="#000000" cx="406.4406" cy="-195.5219" rx="25.5439" ry="25.5439"/>
<text text-anchor="middle" x="406.4406" y="-191.3219" font-family="Times,serif" font-size="14.00" fill="#000000">q12</text>
</g>
<!-- q4&#45;&gt;q12 -->
<g id="edge12" class="edge">
<title>q4&#45;&gt;q12</title>
<path fill="none" stroke="#000000" d="M328.6662,-194.1199C335.959,-192.7406 344.2725,-191.4017 351.9187,-190.7219 358.0427,-190.1775 364.554,-190.2149 370.8656,-190.5748"/>
<polygon fill="#000000" stroke="#000000" points="370.9383,-194.093 381.1954,-191.4392 371.5221,-187.1174 370.9383,-194.093"/>
<text text-anchor="middle" x="355.4187" y="-194.7219" font-family="Times,serif" font-size="14.00" fill="#000000">a</text>
</g>
<!-- q5&#45;&gt;q5 -->
<g id="edge7" class="edge">
<title>q5&#45;&gt;q5</title>
<path fill="none" stroke="#000000" d="M397.2121,-289.7969C396.3332,-300.2097 399.4093,-309.2154 406.4406,-309.2154 410.945,-309.2154 413.8262,-305.5195 415.0843,-300.1254"/>
<polygon fill="#000000" stroke="#000000" points="418.5981,-299.9788 415.6691,-289.7969 411.6093,-299.5831 418.5981,-299.9788"/>
<text text-anchor="middle" x="406.4406" y="-313.4154" font-family="Times,serif" font-size="14.00" fill="#000000">b</text>
</g>
<!-- q6 -->
<g id="node7" class="node">
<title>q6</title>
<ellipse fill="none" stroke="#000000" cx="508.4844" cy="-266.5219" rx="20.8568" ry="20.8568"/>
<ellipse fill="none" stroke="#000000" cx="508.4844" cy="-266.5219" rx="24.8884" ry="24.8884"/>
<text text-anchor="middle" x="508.4844" y="-262.3219" font-family="Times,serif" font-size="14.00" fill="#000000">q6</text>
</g>
<!-- q5&#45;&gt;q6 -->
<g id="edge8" class="edge">
<title>q5&#45;&gt;q6</title>
<path fill="none" stroke="#000000" d="M431.1426,-266.5219C443.8335,-266.5219 459.5161,-266.5219 473.435,-266.5219"/>
<polygon fill="#000000" stroke="#000000" points="473.6563,-270.022 483.6563,-266.5219 473.6562,-263.022 473.6563,-270.022"/>
<text text-anchor="middle" x="457.4625" y="-270.7219" font-family="Times,serif" font-size="14.00" fill="#000000">a</text>
</g>
<!-- q6&#45;&gt;q6 -->
<g id="edge9" class="edge">
<title>q6&#45;&gt;q6</title>
<path fill="none" stroke="#000000" d="M499.2559,-289.7969C498.377,-300.2097 501.4532,-309.2154 508.4844,-309.2154 512.9888,-309.2154 515.8701,-305.5195 517.1281,-300.1254"/>
<polygon fill="#000000" stroke="#000000" points="520.6419,-299.9788 517.713,-289.7969 513.6531,-299.5831 520.6419,-299.9788"/>
<text text-anchor="middle" x="508.4844" y="-313.4154" font-family="Times,serif" font-size="14.00" fill="#000000">b</text>
</g>
<!-- q8 -->
<g id="node9" class="node">
<title>q8</title>
<ellipse fill="none" stroke="#000000" cx="308.3967" cy="-136.5219" rx="20.8887" ry="20.8887"/>
<text text-anchor="middle" x="308.3967" y="-132.3219" font-family="Times,serif" font-size="14.00" fill="#000000">q8</text>
</g>
<!-- q7&#45;&gt;q8 -->
<g id="edge15" class="edge">
<title>q7&#45;&gt;q8</title>
<path fill="none" stroke="#000000" d="M240.3242,-136.5219C251.3237,-136.5219 264.9843,-136.5219 277.175,-136.5219"/>
<polygon fill="#000000" stroke="#000000" points="277.4057,-140.022 287.4057,-136.5219 277.4057,-133.022 277.4057,-140.022"/>
<text text-anchor="middle" x="261.3748" y="-140.7219" font-family="Times,serif" font-size="14.00" fill="#000000">a</text>
</g>
<!-- q10 -->
<g id="node11" class="node">
<title>q10</title>
<ellipse fill="none" stroke="#000000" cx="308.3967" cy="-72.5219" rx="25.5439" ry="25.5439"/>
<text text-anchor="middle" x="308.3967" y="-68.3219" font-family="Times,serif" font-size="14.00" fill="#000000">q10</text>
</g>
<!-- q7&#45;&gt;q10 -->
<g id="edge18" class="edge">
<title>q7&#45;&gt;q10</title>
<path fill="none" stroke="#000000" d="M236.383,-124.1821C248.4593,-115.5189 264.911,-103.717 279.0414,-93.5804"/>
<polygon fill="#000000" stroke="#000000" points="281.3943,-96.2 287.4797,-87.5271 277.314,-90.5121 281.3943,-96.2"/>
<text text-anchor="middle" x="261.3748" y="-112.7219" font-family="Times,serif" font-size="14.00" fill="#000000">b</text>
</g>
<!-- q9 -->
<g id="node10" class="node">
<title>q9</title>
<ellipse fill="none" stroke="#000000" cx="406.4406" cy="-131.5219" rx="20.8887" ry="20.8887"/>
<text text-anchor="middle" x="406.4406" y="-127.3219" font-family="Times,serif" font-size="14.00" fill="#000000">q9</text>
</g>
<!-- q8&#45;&gt;q9 -->
<g id="edge16" class="edge">
<title>q8&#45;&gt;q9</title>
<path fill="none" stroke="#000000" d="M329.1893,-135.4616C342.578,-134.7788 360.2283,-133.8786 375.2776,-133.1112"/>
<polygon fill="#000000" stroke="#000000" points="375.8692,-136.5856 385.678,-132.5808 375.5127,-129.5947 375.8692,-136.5856"/>
<text text-anchor="middle" x="355.4187" y="-137.7219" font-family="Times,serif" font-size="14.00" fill="#000000">b</text>
</g>
<!-- q11 -->
<g id="node12" class="node">
<title>q11</title>
<ellipse fill="none" stroke="#000000" cx="508.4844" cy="-131.5219" rx="25.5409" ry="25.5409"/>
<ellipse fill="none" stroke="#000000" cx="508.4844" cy="-131.5219" rx="29.5439" ry="29.5439"/>
<text text-anchor="middle" x="508.4844" y="-127.3219" font-family="Times,serif" font-size="14.00" fill="#000000">q11</text>
</g>
<!-- q9&#45;&gt;q11 -->
<g id="edge17" class="edge">
<title>q9&#45;&gt;q11</title>
<path fill="none" stroke="#000000" d="M427.5841,-131.5219C439.4001,-131.5219 454.517,-131.5219 468.4784,-131.5219"/>
<polygon fill="#000000" stroke="#000000" points="468.8557,-135.022 478.8556,-131.5219 468.8556,-128.022 468.8557,-135.022"/>
<text text-anchor="middle" x="457.4625" y="-135.7219" font-family="Times,serif" font-size="14.00" fill="#000000">b</text>
</g>
<!-- q10&#45;&gt;q9 -->
<g id="edge19" class="edge">
<title>q10&#45;&gt;q9</title>
<path fill="none" stroke="#000000" d="M330.6444,-85.9099C345.2854,-94.7205 364.5226,-106.2969 379.9528,-115.5823"/>
<polygon fill="#000000" stroke="#000000" points="378.1616,-118.5892 388.5345,-120.7465 381.7709,-112.5915 378.1616,-118.5892"/>
<text text-anchor="middle" x="355.4187" y="-106.7219" font-family="Times,serif" font-size="14.00" fill="#000000">a</text>
</g>
<!-- q13 -->
<g id="node14" class="node">
<title>q13</title>
<ellipse fill="none" stroke="#000000" cx="406.4406" cy="-29.5219" rx="25.5409" ry="25.5409"/>
<ellipse fill="none" stroke="#000000" cx="406.4406" cy="-29.5219" rx="29.5439" ry="29.5439"/>
<text text-anchor="middle" x="406.4406" y="-25.3219" font-family="Times,serif" font-size="14.00" fill="#000000">q13</text>
</g>
<!-- q10&#45;&gt;q13 -->
<g id="edge20" class="edge">
<title>q10&#45;&gt;q13</title>
<path fill="none" stroke="#000000" d="M331.2437,-60.5757C337.8541,-57.2565 345.1211,-53.738 351.9187,-50.7219 357.39,-48.2943 363.2319,-45.8608 368.9837,-43.5528"/>
<polygon fill="#000000" stroke="#000000" points="370.4727,-46.7282 378.4973,-39.8103 367.9102,-40.2141 370.4727,-46.7282"/>
<text text-anchor="middle" x="355.4187" y="-55.7219" font-family="Times,serif" font-size="14.00" fill="#000000">b</text>
</g>
<!-- q11&#45;&gt;q11 -->
<g id="edge14" class="edge">
<title>q11&#45;&gt;q11</title>
<path fill="none" stroke="#000000" d="M499.13,-159.8184C498.8233,-170.3636 501.9415,-179.0439 508.4844,-179.0439 512.676,-179.0439 515.4621,-175.4815 516.8425,-170.1486"/>
<polygon fill="#000000" stroke="#000000" points="520.3626,-170.1083 517.8388,-159.8184 513.3949,-169.4362 520.3626,-170.1083"/>
<text text-anchor="middle" x="508.4844" y="-183.2439" font-family="Times,serif" font-size="14.00" fill="#000000">b</text>
</g>
<!-- q12&#45;&gt;q11 -->
<g id="edge13" class="edge">
<title>q12&#45;&gt;q11</title>
<path fill="none" stroke="#000000" d="M428.0815,-181.9492C441.5794,-173.4835 459.2391,-162.4077 474.5689,-152.7931"/>
<polygon fill="#000000" stroke="#000000" points="476.6645,-155.6103 483.2765,-147.3319 472.9451,-149.6801 476.6645,-155.6103"/>
<text text-anchor="middle" x="457.4625" y="-168.7219" font-family="Times,serif" font-size="14.00" fill="#000000">b</text>
</g>
<!-- q13&#45;&gt;q11 -->
<g id="edge22" class="edge">
<title>q13&#45;&gt;q11</title>
<path fill="none" stroke="#000000" d="M427.5841,-50.6564C442.7714,-65.8371 463.412,-86.4688 480.0429,-103.0926"/>
<polygon fill="#000000" stroke="#000000" points="477.821,-105.8204 487.368,-110.4145 482.7697,-100.8695 477.821,-105.8204"/>
<text text-anchor="middle" x="457.4625" y="-88.7219" font-family="Times,serif" font-size="14.00" fill="#000000">a</text>
</g>
<!-- q13&#45;&gt;q13 -->
<g id="edge21" class="edge">
<title>q13&#45;&gt;q13</title>
<path fill="none" stroke="#000000" d="M397.0862,-57.8184C396.7795,-68.3636 399.8976,-77.0439 406.4406,-77.0439 410.6322,-77.0439 413.4182,-73.4815 414.7987,-68.1486"/>
<polygon fill="#000000" stroke="#000000" points="418.3187,-68.1083 415.795,-57.8184 411.3511,-67.4362 418.3187,-68.1083"/>
<text text-anchor="middle" x="406.4406" y="-81.2439" font-family="Times,serif" font-size="14.00" fill="#000000">b</text>
</g>
</g>
</svg>
