<?xml version="1.0" encoding="UTF-8" standalone="no"?>
<!DOCTYPE svg PUBLIC "-//W3C//DTD SVG 1.1//EN"
 "http://www.w3.org/Graphics/SVG/1.1/DTD/svg11.dtd">
<!-- Generated by graphviz version 2.40.1 (20161225.0304)
 -->
<!-- Pages: 1 -->
<svg width="789pt" height="118pt"
 viewBox="0.00 0.00 788.62 118.18" xmlns="http://www.w3.org/2000/svg" xmlns:xlink="http://www.w3.org/1999/xlink">
<g id="graph0" class="graph" transform="scale(1 1) rotate(0) translate(4 114.1769)">
<polygon fill="#ffffff" stroke="transparent" points="-4,4 -4,-114.1769 784.617,-114.1769 784.617,4 -4,4"/>
<g id="node1" class="node">
<title></title>
</g>
<!-- q1 -->
<g id="node2" class="node">
<title>q1</title>
<ellipse fill="none" stroke="#000000" cx="134.7945" cy="-40.4835" rx="20.8887" ry="20.8887"/>
<text text-anchor="middle" x="134.7945" y="-36.2835" font-family="Times,serif" font-size="14.00" fill="#000000">q1</text>
</g>
<!-- &#45;&gt;q1 -->
<g id="edge1" class="edge">
<title>&#45;&gt;q1</title>
<path fill="none" stroke="#000000" d="M54.2011,-40.4835C69.3023,-40.4835 88.1443,-40.4835 103.8118,-40.4835"/>
<polygon fill="#000000" stroke="#000000" points="104.0665,-43.9836 114.0664,-40.4835 104.0664,-36.9836 104.0665,-43.9836"/>
<text text-anchor="middle" x="84.0505" y="-44.6835" font-family="Times,serif" font-size="14.00" fill="#000000">start</text>
</g>
<!-- q2 -->
<g id="node3" class="node">
<title>q2</title>
<ellipse fill="none" stroke="#000000" cx="218.396" cy="-89.4835" rx="20.8887" ry="20.8887"/>
<text text-anchor="middle" x="218.396" y="-85.2835" font-family="Times,serif" font-size="14.00" fill="#000000">q2</text>
</g>
<!-- q1&#45;&gt;q2 -->
<g id="edge2" class="edge">
<title>q1&#45;&gt;q2</title>
<path fill="none" stroke="#000000" d="M152.9347,-51.1158C164.2187,-57.7294 178.9325,-66.3534 191.5516,-73.7497"/>
<polygon fill="#000000" stroke="#000000" points="189.8939,-76.8349 200.2911,-78.872 193.4336,-70.7958 189.8939,-76.8349"/>
<text text-anchor="middle" x="176.5952" y="-69.6835" font-family="Times,serif" font-size="14.00" fill="#000000">a</text>
</g>
<!-- q4 -->
<g id="node5" class="node">
<title>q4</title>
<ellipse fill="none" stroke="#000000" cx="401.951" cy="-40.4835" rx="20.8887" ry="20.8887"/>
<text text-anchor="middle" x="401.951" y="-36.2835" font-family="Times,serif" font-size="14.00" fill="#000000">q4</text>
</g>
<!-- q1&#45;&gt;q4 -->
<g id="edge6" class="edge">
<title>q1&#45;&gt;q4</title>
<path fill="none" stroke="#000000" d="M155.7578,-40.4835C202.5774,-40.4835 315.8449,-40.4835 370.8894,-40.4835"/>
<polygon fill="#000000" stroke="#000000" points="371.0851,-43.9836 381.085,-40.4835 371.085,-36.9836 371.0851,-43.9836"/>
<text text-anchor="middle" x="267.98" y="-44.6835" font-family="Times,serif" font-size="14.00" fill="#000000">lmb</text>
</g>
<!-- q3 -->
<g id="node4" class="node">
<title>q3</title>
<ellipse fill="none" stroke="#000000" cx="317.5641" cy="-89.4835" rx="20.8887" ry="20.8887"/>
<text text-anchor="middle" x="317.5641" y="-85.2835" font-family="Times,serif" font-size="14.00" fill="#000000">q3</text>
</g>
<!-- q2&#45;&gt;q3 -->
<g id="edge3" class="edge">
<title>q2&#45;&gt;q3</title>
<path fill="none" stroke="#000000" d="M239.427,-89.4835C253.1007,-89.4835 271.169,-89.4835 286.4863,-89.4835"/>
<polygon fill="#000000" stroke="#000000" points="286.5634,-92.9836 296.5634,-89.4835 286.5633,-85.9836 286.5634,-92.9836"/>
<text text-anchor="middle" x="267.98" y="-93.6835" font-family="Times,serif" font-size="14.00" fill="#000000">a</text>
</g>
<!-- q3&#45;&gt;q4 -->
<g id="edge4" class="edge">
<title>q3&#45;&gt;q4</title>
<path fill="none" stroke="#000000" d="M335.4604,-79.0919C346.9062,-72.4457 361.9707,-63.6984 374.8659,-56.2107"/>
<polygon fill="#000000" stroke="#000000" points="376.8992,-59.0773 383.7896,-51.0291 373.3842,-53.0238 376.8992,-59.0773"/>
<text text-anchor="middle" x="359.7575" y="-69.6835" font-family="Times,serif" font-size="14.00" fill="#000000">b</text>
</g>
<!-- q4&#45;&gt;q1 -->
<g id="edge5" class="edge">
<title>q4&#45;&gt;q1</title>
<path fill="none" stroke="#000000" d="M383.4923,-30.4745C356.244,-16.8673 303.468,5.0505 257.0894,-1.6835 223.9595,-6.4938 187.5787,-19.029 163.1828,-28.5609"/>
<polygon fill="#000000" stroke="#000000" points="161.8089,-25.3408 153.8216,-32.3017 164.4064,-31.841 161.8089,-25.3408"/>
<text text-anchor="middle" x="267.98" y="-6.6835" font-family="Times,serif" font-size="14.00" fill="#000000">lmb</text>
</g>
<!-- q5 -->
<g id="node6" class="node">
<title>q5</title>
<ellipse fill="none" stroke="#000000" cx="485.5525" cy="-40.4835" rx="20.8887" ry="20.8887"/>
<text text-anchor="middle" x="485.5525" y="-36.2835" font-family="Times,serif" font-size="14.00" fill="#000000">q5</text>
</g>
<!-- q4&#45;&gt;q5 -->
<g id="edge7" class="edge">
<title>q4&#45;&gt;q5</title>
<path fill="none" stroke="#000000" d="M423.0472,-40.4835C432.6247,-40.4835 444.1424,-40.4835 454.6673,-40.4835"/>
<polygon fill="#000000" stroke="#000000" points="454.7527,-43.9836 464.7526,-40.4835 454.7526,-36.9836 454.7527,-43.9836"/>
<text text-anchor="middle" x="443.7517" y="-44.6835" font-family="Times,serif" font-size="14.00" fill="#000000">a</text>
</g>
<!-- q6 -->
<g id="node7" class="node">
<title>q6</title>
<ellipse fill="none" stroke="#000000" cx="569.154" cy="-89.4835" rx="20.8887" ry="20.8887"/>
<text text-anchor="middle" x="569.154" y="-85.2835" font-family="Times,serif" font-size="14.00" fill="#000000">q6</text>
</g>
<!-- q5&#45;&gt;q6 -->
<g id="edge10" class="edge">
<title>q5&#45;&gt;q6</title>
<path fill="none" stroke="#000000" d="M503.6928,-51.1158C514.9767,-57.7294 529.6905,-66.3534 542.3097,-73.7497"/>
<polygon fill="#000000" stroke="#000000" points="540.6519,-76.8349 551.0491,-78.872 544.1916,-70.7958 540.6519,-76.8349"/>
<text text-anchor="middle" x="527.3532" y="-69.6835" font-family="Times,serif" font-size="14.00" fill="#000000">a</text>
</g>
<!-- q8 -->
<g id="node9" class="node">
<title>q8</title>
<ellipse fill="none" stroke="#000000" cx="755.9236" cy="-40.4835" rx="20.8568" ry="20.8568"/>
<ellipse fill="none" stroke="#000000" cx="755.9236" cy="-40.4835" rx="24.8884" ry="24.8884"/>
<text text-anchor="middle" x="755.9236" y="-36.2835" font-family="Times,serif" font-size="14.00" fill="#000000">q8</text>
</g>
<!-- q5&#45;&gt;q8 -->
<g id="edge8" class="edge">
<title>q5&#45;&gt;q8</title>
<path fill="none" stroke="#000000" d="M506.3191,-40.4835C552.4169,-40.4835 663.7149,-40.4835 720.8271,-40.4835"/>
<polygon fill="#000000" stroke="#000000" points="720.8327,-43.9836 730.8327,-40.4835 720.8326,-36.9836 720.8327,-43.9836"/>
<text text-anchor="middle" x="618.738" y="-44.6835" font-family="Times,serif" font-size="14.00" fill="#000000">lmb</text>
</g>
<!-- q7 -->
<g id="node8" class="node">
<title>q7</title>
<ellipse fill="none" stroke="#000000" cx="668.3221" cy="-89.4835" rx="20.8887" ry="20.8887"/>
<text text-anchor="middle" x="668.3221" y="-85.2835" font-family="Times,serif" font-size="14.00" fill="#000000">q7</text>
</g>
<!-- q6&#45;&gt;q7 -->
<g id="edge11" class="edge">
<title>q6&#45;&gt;q7</title>
<path fill="none" stroke="#000000" d="M590.185,-89.4835C603.8587,-89.4835 621.927,-89.4835 637.2444,-89.4835"/>
<polygon fill="#000000" stroke="#000000" points="637.3214,-92.9836 647.3214,-89.4835 637.3214,-85.9836 637.3214,-92.9836"/>
<text text-anchor="middle" x="618.738" y="-93.6835" font-family="Times,serif" font-size="14.00" fill="#000000">b</text>
</g>
<!-- q7&#45;&gt;q8 -->
<g id="edge12" class="edge">
<title>q7&#45;&gt;q8</title>
<path fill="none" stroke="#000000" d="M686.4732,-79.3307C697.6035,-73.1049 712.1456,-64.9708 725.0453,-57.7553"/>
<polygon fill="#000000" stroke="#000000" points="727.0569,-60.6405 734.0757,-52.7041 723.6396,-54.5313 727.0569,-60.6405"/>
<text text-anchor="middle" x="710.1228" y="-69.6835" font-family="Times,serif" font-size="14.00" fill="#000000">a</text>
</g>
<!-- q8&#45;&gt;q5 -->
<g id="edge9" class="edge">
<title>q8&#45;&gt;q5</title>
<path fill="none" stroke="#000000" d="M731.9068,-33.7614C702.692,-26.3612 651.823,-15.9705 607.8474,-19.6835 576.113,-22.363 540.2351,-28.8871 515.5892,-33.9203"/>
<polygon fill="#000000" stroke="#000000" points="514.8338,-30.5024 505.7591,-35.9705 516.2631,-37.3549 514.8338,-30.5024"/>
<text text-anchor="middle" x="618.738" y="-24.6835" font-family="Times,serif" font-size="14.00" fill="#000000">lmb</text>
</g>
</g>
</svg>
