<?xml version="1.0" encoding="UTF-8" standalone="no"?>
<!DOCTYPE svg PUBLIC "-//W3C//DTD SVG 1.1//EN"
 "http://www.w3.org/Graphics/SVG/1.1/DTD/svg11.dtd">
<!-- Generated by graphviz version 2.40.1 (20161225.0304)
 -->
<!-- Pages: 1 -->
<svg width="702pt" height="255pt"
 viewBox="0.00 0.00 702.02 254.80" xmlns="http://www.w3.org/2000/svg" xmlns:xlink="http://www.w3.org/1999/xlink">
<g id="graph0" class="graph" transform="scale(1 1) rotate(0) translate(4 250.8)">
<polygon fill="#ffffff" stroke="transparent" points="-4,4 -4,-250.8 698.0193,-250.8 698.0193,4 -4,4"/>
<g id="node1" class="node">
<title></title>
</g>
<!-- q1z1 -->
<g id="node2" class="node">
<title>q1z1</title>
<ellipse fill="none" stroke="#000000" cx="147.9096" cy="-76" rx="29.6409" ry="29.6409"/>
<ellipse fill="none" stroke="#000000" cx="147.9096" cy="-76" rx="33.6184" ry="33.6184"/>
<text text-anchor="middle" x="147.9096" y="-71.8" font-family="Times,serif" font-size="14.00" fill="#000000">q1z1</text>
</g>
<!-- &#45;&gt;q1z1 -->
<g id="edge1" class="edge">
<title>&#45;&gt;q1z1</title>
<path fill="none" stroke="#000000" d="M54.1345,-76C68.7797,-76 87.219,-76 103.863,-76"/>
<polygon fill="#000000" stroke="#000000" points="103.9443,-79.5001 113.9443,-76 103.9443,-72.5001 103.9443,-79.5001"/>
<text text-anchor="middle" x="84.0505" y="-80.2" font-family="Times,serif" font-size="14.00" fill="#000000">start</text>
</g>
<!-- q1z2 -->
<g id="node3" class="node">
<title>q1z2</title>
<ellipse fill="none" stroke="#000000" cx="254.5269" cy="-173" rx="29.6185" ry="29.6185"/>
<text text-anchor="middle" x="254.5269" y="-168.8" font-family="Times,serif" font-size="14.00" fill="#000000">q1z2</text>
</g>
<!-- q1z1&#45;&gt;q1z2 -->
<g id="edge8" class="edge">
<title>q1z1&#45;&gt;q1z2</title>
<path fill="none" stroke="#000000" d="M173.1765,-98.9876C188.6288,-113.0461 208.4756,-131.1027 224.6975,-145.8613"/>
<polygon fill="#000000" stroke="#000000" points="222.5824,-148.6688 232.3346,-152.8095 227.2931,-143.491 222.5824,-148.6688"/>
<text text-anchor="middle" x="203.2183" y="-131.2" font-family="Times,serif" font-size="14.00" fill="#000000">b</text>
</g>
<!-- q2z1 -->
<g id="node5" class="node">
<title>q2z1</title>
<ellipse fill="none" stroke="#000000" cx="561.5934" cy="-57" rx="29.6185" ry="29.6185"/>
<text text-anchor="middle" x="561.5934" y="-52.8" font-family="Times,serif" font-size="14.00" fill="#000000">q2z1</text>
</g>
<!-- q1z1&#45;&gt;q2z1 -->
<g id="edge2" class="edge">
<title>q1z1&#45;&gt;q2z1</title>
<path fill="none" stroke="#000000" d="M168.909,-48.9913C188.4579,-27.1467 219.7481,0 254.5269,0 254.5269,0 254.5269,0 458.9761,0 486.0807,0 512.7196,-15.385 532.0609,-30.1691"/>
<polygon fill="#000000" stroke="#000000" points="529.8867,-32.9119 539.8833,-36.4217 534.2573,-27.444 529.8867,-32.9119"/>
<text text-anchor="middle" x="357.1442" y="-4.2" font-family="Times,serif" font-size="14.00" fill="#000000">a</text>
</g>
<!-- q1z3 -->
<g id="node4" class="node">
<title>q1z3</title>
<ellipse fill="none" stroke="#000000" cx="357.1442" cy="-119" rx="29.6185" ry="29.6185"/>
<text text-anchor="middle" x="357.1442" y="-114.8" font-family="Times,serif" font-size="14.00" fill="#000000">q1z3</text>
</g>
<!-- q1z2&#45;&gt;q1z3 -->
<g id="edge9" class="edge">
<title>q1z2&#45;&gt;q1z3</title>
<path fill="none" stroke="#000000" d="M280.6995,-158.0167C287.6904,-154.1002 295.2675,-149.9319 302.3356,-146.2 308.3945,-143.0009 314.8796,-139.6872 321.1915,-136.5197"/>
<polygon fill="#000000" stroke="#000000" points="322.8521,-139.6028 330.2453,-132.0139 319.7333,-133.336 322.8521,-139.6028"/>
<text text-anchor="middle" x="305.8356" y="-150.2" font-family="Times,serif" font-size="14.00" fill="#000000">b</text>
</g>
<!-- q2z2 -->
<g id="node6" class="node">
<title>q2z2</title>
<ellipse fill="none" stroke="#000000" cx="664.2107" cy="-151" rx="29.6185" ry="29.6185"/>
<text text-anchor="middle" x="664.2107" y="-146.8" font-family="Times,serif" font-size="14.00" fill="#000000">q2z2</text>
</g>
<!-- q1z2&#45;&gt;q2z2 -->
<g id="edge4" class="edge">
<title>q1z2&#45;&gt;q2z2</title>
<path fill="none" stroke="#000000" d="M276.237,-193.5783C295.7991,-209.9053 326.1675,-230 357.1442,-230 357.1442,-230 357.1442,-230 561.5934,-230 593.8324,-230 622.1505,-205.215 640.8256,-183.4102"/>
<polygon fill="#000000" stroke="#000000" points="643.6256,-185.5154 647.259,-175.563 638.2123,-181.0773 643.6256,-185.5154"/>
<text text-anchor="middle" x="458.9761" y="-234.2" font-family="Times,serif" font-size="14.00" fill="#000000">a</text>
</g>
<!-- q1z3&#45;&gt;q1z1 -->
<g id="edge10" class="edge">
<title>q1z3&#45;&gt;q1z1</title>
<path fill="none" stroke="#000000" d="M327.8592,-112.9816C292.2699,-105.6676 231.9169,-93.2644 191.016,-84.8588"/>
<polygon fill="#000000" stroke="#000000" points="191.5634,-81.3982 181.0635,-82.8135 190.1542,-88.2549 191.5634,-81.3982"/>
<text text-anchor="middle" x="254.5269" y="-108.2" font-family="Times,serif" font-size="14.00" fill="#000000">b</text>
</g>
<!-- q2z3 -->
<g id="node7" class="node">
<title>q2z3</title>
<ellipse fill="none" stroke="#000000" cx="458.9761" cy="-111" rx="29.6185" ry="29.6185"/>
<text text-anchor="middle" x="458.9761" y="-106.8" font-family="Times,serif" font-size="14.00" fill="#000000">q2z3</text>
</g>
<!-- q1z3&#45;&gt;q2z3 -->
<g id="edge6" class="edge">
<title>q1z3&#45;&gt;q2z3</title>
<path fill="none" stroke="#000000" d="M386.872,-116.6646C396.9261,-115.8747 408.3219,-114.9794 419.0368,-114.1377"/>
<polygon fill="#000000" stroke="#000000" points="419.34,-117.6247 429.0351,-113.3522 418.7917,-110.6462 419.34,-117.6247"/>
<text text-anchor="middle" x="408.0602" y="-119.2" font-family="Times,serif" font-size="14.00" fill="#000000">a</text>
</g>
<!-- q2z1&#45;&gt;q1z1 -->
<g id="edge3" class="edge">
<title>q2z1&#45;&gt;q1z1</title>
<path fill="none" stroke="#000000" d="M531.521,-55.2106C511.0732,-54.1456 483.4019,-53 458.9761,-53 254.5269,-53 254.5269,-53 254.5269,-53 232.9195,-53 209.3915,-57.5697 189.9481,-62.6354"/>
<polygon fill="#000000" stroke="#000000" points="188.9057,-59.2919 180.1846,-65.308 190.7539,-66.0435 188.9057,-59.2919"/>
<text text-anchor="middle" x="357.1442" y="-57.2" font-family="Times,serif" font-size="14.00" fill="#000000">a</text>
</g>
<!-- q2z1&#45;&gt;q2z2 -->
<g id="edge11" class="edge">
<title>q2z1&#45;&gt;q2z2</title>
<path fill="none" stroke="#000000" d="M586.394,-74.0975C596.0833,-81.1681 607.082,-89.6937 616.402,-98.2 623.7804,-104.9342 631.2627,-112.6758 638.0487,-120.1186"/>
<polygon fill="#000000" stroke="#000000" points="635.8295,-122.8882 645.101,-128.0157 641.0507,-118.2256 635.8295,-122.8882"/>
<text text-anchor="middle" x="612.902" y="-103.2" font-family="Times,serif" font-size="14.00" fill="#000000">b</text>
</g>
<!-- q2z2&#45;&gt;q1z2 -->
<g id="edge5" class="edge">
<title>q2z2&#45;&gt;q1z2</title>
<path fill="none" stroke="#000000" d="M636.3796,-162.0263C616.0051,-169.1126 587.507,-177 561.5934,-177 357.1442,-177 357.1442,-177 357.1442,-177 336.535,-177 313.6151,-176.1845 294.6733,-175.2899"/>
<polygon fill="#000000" stroke="#000000" points="294.7607,-171.79 284.5993,-174.7894 294.4133,-178.7814 294.7607,-171.79"/>
<text text-anchor="middle" x="458.9761" y="-181.2" font-family="Times,serif" font-size="14.00" fill="#000000">a</text>
</g>
<!-- q2z2&#45;&gt;q2z3 -->
<g id="edge12" class="edge">
<title>q2z2&#45;&gt;q2z3</title>
<path fill="none" stroke="#000000" d="M634.8601,-145.2796C598.9946,-138.2895 538.1741,-126.4356 498.2905,-118.6623"/>
<polygon fill="#000000" stroke="#000000" points="498.8661,-115.2087 488.3812,-116.731 497.527,-122.0795 498.8661,-115.2087"/>
<text text-anchor="middle" x="561.5934" y="-140.2" font-family="Times,serif" font-size="14.00" fill="#000000">b</text>
</g>
<!-- q2z3&#45;&gt;q1z3 -->
<g id="edge7" class="edge">
<title>q2z3&#45;&gt;q1z3</title>
<path fill="none" stroke="#000000" d="M433.0912,-96.2151C424.2452,-92.8414 414.2399,-90.854 404.9529,-93.2 400.5121,-94.3218 396.0358,-95.9463 391.6972,-97.8426"/>
<polygon fill="#000000" stroke="#000000" points="389.938,-94.8065 382.4864,-102.3381 393.0083,-101.0973 389.938,-94.8065"/>
<text text-anchor="middle" x="408.0602" y="-98.2" font-family="Times,serif" font-size="14.00" fill="#000000">a</text>
</g>
<!-- q2z3&#45;&gt;q2z1 -->
<g id="edge13" class="edge">
<title>q2z3&#45;&gt;q2z1</title>
<path fill="none" stroke="#000000" d="M485.4026,-97.0937C497.7545,-90.5937 512.645,-82.758 525.9728,-75.7445"/>
<polygon fill="#000000" stroke="#000000" points="527.6802,-78.8011 534.8998,-71.0469 524.4203,-72.6065 527.6802,-78.8011"/>
<text text-anchor="middle" x="510.2847" y="-90.2" font-family="Times,serif" font-size="14.00" fill="#000000">b</text>
</g>
</g>
</svg>
