<?xml version="1.0" encoding="UTF-8" standalone="no"?>
<!DOCTYPE svg PUBLIC "-//W3C//DTD SVG 1.1//EN"
 "http://www.w3.org/Graphics/SVG/1.1/DTD/svg11.dtd">
<!-- Generated by graphviz version 2.40.1 (20161225.0304)
 -->
<!-- Pages: 1 -->
<svg width="255pt" height="92pt"
 viewBox="0.00 0.00 255.09 92.19" xmlns="http://www.w3.org/2000/svg" xmlns:xlink="http://www.w3.org/1999/xlink">
<g id="graph0" class="graph" transform="scale(1 1) rotate(0) translate(4 88.1869)">
<polygon fill="#ffffff" stroke="transparent" points="-4,4 -4,-88.1869 251.0894,-88.1869 251.0894,4 -4,4"/>
<g id="node1" class="node">
<title></title>
</g>
<!-- q1 -->
<g id="node2" class="node">
<title>q1</title>
<ellipse fill="none" stroke="#000000" cx="138.7945" cy="-24.6935" rx="20.8568" ry="20.8568"/>
<ellipse fill="none" stroke="#000000" cx="138.7945" cy="-24.6935" rx="24.8884" ry="24.8884"/>
<text text-anchor="middle" x="138.7945" y="-20.4935" font-family="Times,serif" font-size="14.00" fill="#000000">q1</text>
</g>
<!-- &#45;&gt;q1 -->
<g id="edge1" class="edge">
<title>&#45;&gt;q1</title>
<path fill="none" stroke="#000000" d="M54.0623,-24.6935C69.0109,-24.6935 87.7484,-24.6935 103.7994,-24.6935"/>
<polygon fill="#000000" stroke="#000000" points="103.8926,-28.1936 113.8925,-24.6935 103.8925,-21.1936 103.8926,-28.1936"/>
<text text-anchor="middle" x="84.0505" y="-28.8935" font-family="Times,serif" font-size="14.00" fill="#000000">start</text>
</g>
<!-- q1&#45;&gt;q1 -->
<g id="edge4" class="edge">
<title>q1&#45;&gt;q1</title>
<path fill="none" stroke="#000000" d="M130.6431,-48.4015C129.9758,-58.6297 132.6929,-67.3869 138.7945,-67.3869 142.7033,-67.3869 145.2231,-63.7929 146.3539,-58.5207"/>
<polygon fill="#000000" stroke="#000000" points="149.8558,-58.5888 146.9458,-48.4015 142.8678,-58.1801 149.8558,-58.5888"/>
<text text-anchor="middle" x="138.7945" y="-71.5869" font-family="Times,serif" font-size="14.00" fill="#000000">b</text>
</g>
<!-- q2 -->
<g id="node3" class="node">
<title>q2</title>
<ellipse fill="none" stroke="#000000" cx="226.396" cy="-24.6935" rx="20.8887" ry="20.8887"/>
<text text-anchor="middle" x="226.396" y="-20.4935" font-family="Times,serif" font-size="14.00" fill="#000000">q2</text>
</g>
<!-- q1&#45;&gt;q2 -->
<g id="edge2" class="edge">
<title>q1&#45;&gt;q2</title>
<path fill="none" stroke="#000000" d="M163.6632,-24.6935C173.4994,-24.6935 184.9128,-24.6935 195.2867,-24.6935"/>
<polygon fill="#000000" stroke="#000000" points="195.6114,-28.1935 205.6113,-24.6935 195.6113,-21.1935 195.6114,-28.1935"/>
<text text-anchor="middle" x="184.5952" y="-28.8935" font-family="Times,serif" font-size="14.00" fill="#000000">a</text>
</g>
<!-- q2&#45;&gt;q1 -->
<g id="edge3" class="edge">
<title>q2&#45;&gt;q1</title>
<path fill="none" stroke="#000000" d="M209.0415,-13.0096C202.6205,-9.3365 195.0984,-5.7553 187.7025,-3.8935 181.2433,-2.2674 174.538,-3.2123 168.239,-5.4074"/>
<polygon fill="#000000" stroke="#000000" points="166.4341,-2.3826 158.7687,-9.6964 169.322,-8.7591 166.4341,-2.3826"/>
<text text-anchor="middle" x="184.5952" y="-7.8935" font-family="Times,serif" font-size="14.00" fill="#000000">a</text>
</g>
<!-- q2&#45;&gt;q2 -->
<g id="edge5" class="edge">
<title>q2&#45;&gt;q2</title>
<path fill="none" stroke="#000000" d="M219.1596,-44.2043C218.0463,-54.2929 220.4585,-63.3869 226.396,-63.3869 230.1997,-63.3869 232.5566,-59.6547 233.4666,-54.3198"/>
<polygon fill="#000000" stroke="#000000" points="236.968,-54.2603 233.6323,-44.2043 229.9689,-54.1456 236.968,-54.2603"/>
<text text-anchor="middle" x="226.396" y="-67.5869" font-family="Times,serif" font-size="14.00" fill="#000000">b</text>
</g>
</g>
</svg>
