<?xml version="1.0" encoding="UTF-8" standalone="no"?>
<!DOCTYPE svg PUBLIC "-//W3C//DTD SVG 1.1//EN"
 "http://www.w3.org/Graphics/SVG/1.1/DTD/svg11.dtd">
<!-- Generated by graphviz version 2.40.1 (20161225.0304)
 -->
<!-- Pages: 1 -->
<svg width="337pt" height="126pt"
 viewBox="0.00 0.00 337.01 126.10" xmlns="http://www.w3.org/2000/svg" xmlns:xlink="http://www.w3.org/1999/xlink">
<g id="graph0" class="graph" transform="scale(1 1) rotate(0) translate(4 122.1034)">
<polygon fill="#ffffff" stroke="transparent" points="-4,4 -4,-122.1034 333.0112,-122.1034 333.0112,4 -4,4"/>
<g id="node1" class="node">
<title></title>
</g>
<!-- z1 -->
<g id="node2" class="node">
<title>z1</title>
<ellipse fill="none" stroke="#000000" cx="138.2527" cy="-24.1517" rx="20.2791" ry="20.2791"/>
<ellipse fill="none" stroke="#000000" cx="138.2527" cy="-24.1517" rx="24.3044" ry="24.3044"/>
<text text-anchor="middle" x="138.2527" y="-19.9517" font-family="Times,serif" font-size="14.00" fill="#000000">z1</text>
</g>
<!-- &#45;&gt;z1 -->
<g id="edge1" class="edge">
<title>&#45;&gt;z1</title>
<path fill="none" stroke="#000000" d="M54.2155,-24.1517C69.202,-24.1517 87.9494,-24.1517 103.9323,-24.1517"/>
<polygon fill="#000000" stroke="#000000" points="103.9689,-27.6518 113.9689,-24.1517 103.9688,-20.6518 103.9689,-27.6518"/>
<text text-anchor="middle" x="84.0505" y="-28.3517" font-family="Times,serif" font-size="14.00" fill="#000000">start</text>
</g>
<!-- z1&#45;&gt;z1 -->
<g id="edge5" class="edge">
<title>z1&#45;&gt;z1</title>
<path fill="none" stroke="#000000" d="M130.1316,-47.1314C129.3582,-57.412 132.0652,-66.3034 138.2527,-66.3034 142.2166,-66.3034 144.752,-62.6544 145.8591,-57.3287"/>
<polygon fill="#000000" stroke="#000000" points="149.3652,-57.2951 146.3738,-47.1314 142.3741,-56.9422 149.3652,-57.2951"/>
<text text-anchor="middle" x="138.2527" y="-70.5034" font-family="Times,serif" font-size="14.00" fill="#000000">a</text>
</g>
<!-- z2 -->
<g id="node3" class="node">
<title>z2</title>
<ellipse fill="none" stroke="#000000" cx="225.5561" cy="-63.1517" rx="20.3045" ry="20.3045"/>
<text text-anchor="middle" x="225.5561" y="-58.9517" font-family="Times,serif" font-size="14.00" fill="#000000">z2</text>
</g>
<!-- z1&#45;&gt;z2 -->
<g id="edge2" class="edge">
<title>z1&#45;&gt;z2</title>
<path fill="none" stroke="#000000" d="M160.7355,-34.1952C171.9451,-39.2027 185.6121,-45.308 197.5017,-50.6193"/>
<polygon fill="#000000" stroke="#000000" points="196.4199,-53.9693 206.9779,-54.8525 199.275,-47.5781 196.4199,-53.9693"/>
<text text-anchor="middle" x="183.9044" y="-49.3517" font-family="Times,serif" font-size="14.00" fill="#000000">b</text>
</g>
<!-- z2&#45;&gt;z2 -->
<g id="edge6" class="edge">
<title>z2&#45;&gt;z2</title>
<path fill="none" stroke="#000000" d="M218.3655,-81.9962C217.1436,-92.0992 219.5405,-101.3034 225.5561,-101.3034 229.4099,-101.3034 231.7785,-97.526 232.6619,-92.1548"/>
<polygon fill="#000000" stroke="#000000" points="236.163,-92.0251 232.7466,-81.9962 229.1633,-91.9667 236.163,-92.0251"/>
<text text-anchor="middle" x="225.5561" y="-105.5034" font-family="Times,serif" font-size="14.00" fill="#000000">a</text>
</g>
<!-- z3 -->
<g id="node4" class="node">
<title>z3</title>
<ellipse fill="none" stroke="#000000" cx="308.8595" cy="-24.1517" rx="20.3045" ry="20.3045"/>
<text text-anchor="middle" x="308.8595" y="-19.9517" font-family="Times,serif" font-size="14.00" fill="#000000">z3</text>
</g>
<!-- z2&#45;&gt;z3 -->
<g id="edge3" class="edge">
<title>z2&#45;&gt;z3</title>
<path fill="none" stroke="#000000" d="M244.0438,-54.4963C254.9367,-49.3967 268.9287,-42.846 281.1229,-37.1371"/>
<polygon fill="#000000" stroke="#000000" points="282.8509,-40.1928 290.4234,-32.7829 279.8828,-33.8531 282.8509,-40.1928"/>
<text text-anchor="middle" x="267.2078" y="-48.3517" font-family="Times,serif" font-size="14.00" fill="#000000">b</text>
</g>
<!-- z3&#45;&gt;z1 -->
<g id="edge4" class="edge">
<title>z3&#45;&gt;z1</title>
<path fill="none" stroke="#000000" d="M288.711,-21.4251C276.3312,-19.8885 260.1327,-18.1261 245.7078,-17.3517 227.8209,-16.3915 223.2942,-16.4482 205.4044,-17.3517 194.6962,-17.8925 183.064,-18.9154 172.5363,-20.0067"/>
<polygon fill="#000000" stroke="#000000" points="172.014,-16.5428 162.452,-21.1055 172.7723,-23.5016 172.014,-16.5428"/>
<text text-anchor="middle" x="225.5561" y="-22.3517" font-family="Times,serif" font-size="14.00" fill="#000000">b</text>
</g>
<!-- z3&#45;&gt;z3 -->
<g id="edge7" class="edge">
<title>z3&#45;&gt;z3</title>
<path fill="none" stroke="#000000" d="M301.6689,-42.9962C300.447,-53.0992 302.8439,-62.3034 308.8595,-62.3034 312.7133,-62.3034 315.0819,-58.526 315.9653,-53.1548"/>
<polygon fill="#000000" stroke="#000000" points="319.4664,-53.0251 316.05,-42.9962 312.4667,-52.9667 319.4664,-53.0251"/>
<text text-anchor="middle" x="308.8595" y="-66.5034" font-family="Times,serif" font-size="14.00" fill="#000000">a</text>
</g>
</g>
</svg>
