<?xml version="1.0" encoding="UTF-8" standalone="no"?>
<!DOCTYPE svg PUBLIC "-//W3C//DTD SVG 1.1//EN"
 "http://www.w3.org/Graphics/SVG/1.1/DTD/svg11.dtd">
<!-- Generated by graphviz version 2.40.1 (20161225.0304)
 -->
<!-- Pages: 1 -->
<svg width="600pt" height="292pt"
 viewBox="0.00 0.00 600.19 292.42" xmlns="http://www.w3.org/2000/svg" xmlns:xlink="http://www.w3.org/1999/xlink">
<g id="graph0" class="graph" transform="scale(1 1) rotate(0) translate(4 288.4173)">
<polygon fill="#ffffff" stroke="transparent" points="-4,4 -4,-288.4173 596.1874,-288.4173 596.1874,4 -4,4"/>
<g id="node1" class="node">
<title></title>
</g>
<!-- q1z1 -->
<g id="node2" class="node">
<title>q1z1</title>
<ellipse fill="none" stroke="#000000" cx="143.9096" cy="-126.8086" rx="29.6185" ry="29.6185"/>
<text text-anchor="middle" x="143.9096" y="-122.6086" font-family="Times,serif" font-size="14.00" fill="#000000">q1z1</text>
</g>
<!-- &#45;&gt;q1z1 -->
<g id="edge1" class="edge">
<title>&#45;&gt;q1z1</title>
<path fill="none" stroke="#000000" d="M54.1153,-126.8086C68.8339,-126.8086 87.3161,-126.8086 103.6808,-126.8086"/>
<polygon fill="#000000" stroke="#000000" points="104.0681,-130.3087 114.068,-126.8086 104.068,-123.3087 104.0681,-130.3087"/>
<text text-anchor="middle" x="84.0505" y="-131.0086" font-family="Times,serif" font-size="14.00" fill="#000000">start</text>
</g>
<!-- q1z2 -->
<g id="node3" class="node">
<title>q1z2</title>
<ellipse fill="none" stroke="#000000" cx="246.5269" cy="-165.8086" rx="29.6185" ry="29.6185"/>
<text text-anchor="middle" x="246.5269" y="-161.6086" font-family="Times,serif" font-size="14.00" fill="#000000">q1z2</text>
</g>
<!-- q1z1&#45;&gt;q1z2 -->
<g id="edge11" class="edge">
<title>q1z1&#45;&gt;q1z2</title>
<path fill="none" stroke="#000000" d="M171.9503,-137.4656C183.3754,-141.8077 196.7535,-146.8921 209.0001,-151.5465"/>
<polygon fill="#000000" stroke="#000000" points="207.9291,-154.8836 218.5202,-155.1646 210.416,-148.3402 207.9291,-154.8836"/>
<text text-anchor="middle" x="195.2183" y="-151.0086" font-family="Times,serif" font-size="14.00" fill="#000000">b</text>
</g>
<!-- q2z1 -->
<g id="node5" class="node">
<title>q2z1</title>
<ellipse fill="none" stroke="#000000" cx="246.5269" cy="-87.8086" rx="29.6185" ry="29.6185"/>
<text text-anchor="middle" x="246.5269" y="-83.6086" font-family="Times,serif" font-size="14.00" fill="#000000">q2z1</text>
</g>
<!-- q1z1&#45;&gt;q2z1 -->
<g id="edge2" class="edge">
<title>q1z1&#45;&gt;q2z1</title>
<path fill="none" stroke="#000000" d="M171.9503,-116.1517C183.3754,-111.8095 196.7535,-106.7252 209.0001,-102.0708"/>
<polygon fill="#000000" stroke="#000000" points="210.416,-105.277 218.5202,-98.4527 207.9291,-98.7337 210.416,-105.277"/>
<text text-anchor="middle" x="195.2183" y="-113.0086" font-family="Times,serif" font-size="14.00" fill="#000000">a</text>
</g>
<!-- q1z3 -->
<g id="node4" class="node">
<title>q1z3</title>
<ellipse fill="none" stroke="#000000" cx="349.1442" cy="-219.8086" rx="29.6185" ry="29.6185"/>
<text text-anchor="middle" x="349.1442" y="-215.6086" font-family="Times,serif" font-size="14.00" fill="#000000">q1z3</text>
</g>
<!-- q1z2&#45;&gt;q1z3 -->
<g id="edge12" class="edge">
<title>q1z2&#45;&gt;q1z3</title>
<path fill="none" stroke="#000000" d="M272.9534,-179.715C285.3054,-186.2149 300.1958,-194.0507 313.5237,-201.0641"/>
<polygon fill="#000000" stroke="#000000" points="311.9712,-204.2022 322.4506,-205.7617 315.231,-198.0075 311.9712,-204.2022"/>
<text text-anchor="middle" x="297.8356" y="-198.0086" font-family="Times,serif" font-size="14.00" fill="#000000">b</text>
</g>
<!-- q2z2 -->
<g id="node6" class="node">
<title>q2z2</title>
<ellipse fill="none" stroke="#000000" cx="349.1442" cy="-141.8086" rx="29.6185" ry="29.6185"/>
<text text-anchor="middle" x="349.1442" y="-137.6086" font-family="Times,serif" font-size="14.00" fill="#000000">q2z2</text>
</g>
<!-- q1z2&#45;&gt;q2z2 -->
<g id="edge5" class="edge">
<title>q1z2&#45;&gt;q2z2</title>
<path fill="none" stroke="#000000" d="M275.6584,-158.9954C286.3825,-156.4873 298.7072,-153.6048 310.1608,-150.926"/>
<polygon fill="#000000" stroke="#000000" points="310.9997,-154.3244 319.9399,-148.6389 309.4055,-147.5083 310.9997,-154.3244"/>
<text text-anchor="middle" x="297.8356" y="-158.0086" font-family="Times,serif" font-size="14.00" fill="#000000">a</text>
</g>
<!-- q1z3&#45;&gt;q1z3 -->
<g id="edge13" class="edge">
<title>q1z3&#45;&gt;q1z3</title>
<path fill="none" stroke="#000000" d="M339.7898,-248.2759C339.4831,-258.8847 342.6012,-267.6173 349.1442,-267.6173 353.438,-267.6173 356.2569,-263.8565 357.6008,-258.2726"/>
<polygon fill="#000000" stroke="#000000" points="361.09,-258.5489 358.4986,-248.2759 354.1181,-257.9227 361.09,-258.5489"/>
<text text-anchor="middle" x="349.1442" y="-271.8173" font-family="Times,serif" font-size="14.00" fill="#000000">b</text>
</g>
<!-- q2z3 -->
<g id="node7" class="node">
<title>q2z3</title>
<ellipse fill="none" stroke="#000000" cx="451.7615" cy="-162.8086" rx="29.6185" ry="29.6185"/>
<text text-anchor="middle" x="451.7615" y="-158.6086" font-family="Times,serif" font-size="14.00" fill="#000000">q2z3</text>
</g>
<!-- q1z3&#45;&gt;q2z3 -->
<g id="edge8" class="edge">
<title>q1z3&#45;&gt;q2z3</title>
<path fill="none" stroke="#000000" d="M375.3044,-205.2777C387.8486,-198.3098 403.0572,-189.862 416.596,-182.3417"/>
<polygon fill="#000000" stroke="#000000" points="418.6067,-185.2286 425.6491,-177.3131 415.2076,-179.1093 418.6067,-185.2286"/>
<text text-anchor="middle" x="400.4529" y="-197.0086" font-family="Times,serif" font-size="14.00" fill="#000000">a</text>
</g>
<!-- q2z1&#45;&gt;q2z2 -->
<g id="edge14" class="edge">
<title>q2z1&#45;&gt;q2z2</title>
<path fill="none" stroke="#000000" d="M272.9534,-101.715C285.3054,-108.2149 300.1958,-116.0507 313.5237,-123.0641"/>
<polygon fill="#000000" stroke="#000000" points="311.9712,-126.2022 322.4506,-127.7617 315.231,-120.0075 311.9712,-126.2022"/>
<text text-anchor="middle" x="297.8356" y="-121.0086" font-family="Times,serif" font-size="14.00" fill="#000000">b</text>
</g>
<!-- q3z1 -->
<g id="node8" class="node">
<title>q3z1</title>
<ellipse fill="none" stroke="#000000" cx="349.1442" cy="-29.8086" rx="29.6185" ry="29.6185"/>
<text text-anchor="middle" x="349.1442" y="-25.6086" font-family="Times,serif" font-size="14.00" fill="#000000">q3z1</text>
</g>
<!-- q2z1&#45;&gt;q3z1 -->
<g id="edge3" class="edge">
<title>q2z1&#45;&gt;q3z1</title>
<path fill="none" stroke="#000000" d="M272.6871,-73.0227C285.2313,-65.9327 300.4399,-57.3367 313.9788,-49.6844"/>
<polygon fill="#000000" stroke="#000000" points="316.0483,-52.5351 323.0318,-44.5676 312.6039,-46.4411 316.0483,-52.5351"/>
<text text-anchor="middle" x="297.8356" y="-65.0086" font-family="Times,serif" font-size="14.00" fill="#000000">a</text>
</g>
<!-- q2z2&#45;&gt;q2z3 -->
<g id="edge15" class="edge">
<title>q2z2&#45;&gt;q2z3</title>
<path fill="none" stroke="#000000" d="M378.5502,-147.8264C389.0701,-149.9792 401.1022,-152.4415 412.3311,-154.7395"/>
<polygon fill="#000000" stroke="#000000" points="411.8525,-158.214 422.3512,-156.79 413.256,-151.3561 411.8525,-158.214"/>
<text text-anchor="middle" x="400.4529" y="-157.0086" font-family="Times,serif" font-size="14.00" fill="#000000">b</text>
</g>
<!-- q3z2 -->
<g id="node9" class="node">
<title>q3z2</title>
<ellipse fill="none" stroke="#000000" cx="451.7615" cy="-50.8086" rx="29.6185" ry="29.6185"/>
<text text-anchor="middle" x="451.7615" y="-46.6086" font-family="Times,serif" font-size="14.00" fill="#000000">q3z2</text>
</g>
<!-- q2z2&#45;&gt;q3z2 -->
<g id="edge6" class="edge">
<title>q2z2&#45;&gt;q3z2</title>
<path fill="none" stroke="#000000" d="M371.664,-121.8383C386.3675,-108.7994 405.7345,-91.6249 421.7414,-77.4302"/>
<polygon fill="#000000" stroke="#000000" points="424.1345,-79.986 429.2942,-70.7324 419.4901,-74.7486 424.1345,-79.986"/>
<text text-anchor="middle" x="400.4529" y="-104.0086" font-family="Times,serif" font-size="14.00" fill="#000000">a</text>
</g>
<!-- q2z3&#45;&gt;q2z3 -->
<g id="edge16" class="edge">
<title>q2z3&#45;&gt;q2z3</title>
<path fill="none" stroke="#000000" d="M442.4071,-191.2759C442.1004,-201.8847 445.2185,-210.6173 451.7615,-210.6173 456.0553,-210.6173 458.8742,-206.8565 460.2181,-201.2726"/>
<polygon fill="#000000" stroke="#000000" points="463.7073,-201.5489 461.1159,-191.2759 456.7354,-200.9227 463.7073,-201.5489"/>
<text text-anchor="middle" x="451.7615" y="-214.8173" font-family="Times,serif" font-size="14.00" fill="#000000">b</text>
</g>
<!-- q3z3 -->
<g id="node10" class="node">
<title>q3z3</title>
<ellipse fill="none" stroke="#000000" cx="558.3788" cy="-106.8086" rx="29.6409" ry="29.6409"/>
<ellipse fill="none" stroke="#000000" cx="558.3788" cy="-106.8086" rx="33.6184" ry="33.6184"/>
<text text-anchor="middle" x="558.3788" y="-102.6086" font-family="Times,serif" font-size="14.00" fill="#000000">q3z3</text>
</g>
<!-- q2z3&#45;&gt;q3z3 -->
<g id="edge9" class="edge">
<title>q2z3&#45;&gt;q3z3</title>
<path fill="none" stroke="#000000" d="M478.3905,-148.8219C490.7185,-142.3468 505.6112,-134.5244 519.1875,-127.3936"/>
<polygon fill="#000000" stroke="#000000" points="521.1029,-130.341 528.3285,-122.5924 517.8479,-124.1439 521.1029,-130.341"/>
<text text-anchor="middle" x="503.0701" y="-140.0086" font-family="Times,serif" font-size="14.00" fill="#000000">a</text>
</g>
<!-- q3z1&#45;&gt;q3z1 -->
<g id="edge4" class="edge">
<title>q3z1&#45;&gt;q3z1</title>
<path fill="none" stroke="#000000" d="M339.7898,-58.2759C339.4831,-68.8847 342.6012,-77.6173 349.1442,-77.6173 353.438,-77.6173 356.2569,-73.8565 357.6008,-68.2726"/>
<polygon fill="#000000" stroke="#000000" points="361.09,-68.5489 358.4986,-58.2759 354.1181,-67.9227 361.09,-68.5489"/>
<text text-anchor="middle" x="349.1442" y="-81.8173" font-family="Times,serif" font-size="14.00" fill="#000000">a</text>
</g>
<!-- q3z1&#45;&gt;q3z2 -->
<g id="edge17" class="edge">
<title>q3z1&#45;&gt;q3z2</title>
<path fill="none" stroke="#000000" d="M378.5502,-35.8264C389.0701,-37.9792 401.1022,-40.4415 412.3311,-42.7395"/>
<polygon fill="#000000" stroke="#000000" points="411.8525,-46.214 422.3512,-44.79 413.256,-39.3561 411.8525,-46.214"/>
<text text-anchor="middle" x="400.4529" y="-46.0086" font-family="Times,serif" font-size="14.00" fill="#000000">b</text>
</g>
<!-- q3z2&#45;&gt;q3z2 -->
<g id="edge7" class="edge">
<title>q3z2&#45;&gt;q3z2</title>
<path fill="none" stroke="#000000" d="M442.4071,-79.2759C442.1004,-89.8847 445.2185,-98.6173 451.7615,-98.6173 456.0553,-98.6173 458.8742,-94.8565 460.2181,-89.2726"/>
<polygon fill="#000000" stroke="#000000" points="463.7073,-89.5489 461.1159,-79.2759 456.7354,-88.9227 463.7073,-89.5489"/>
<text text-anchor="middle" x="451.7615" y="-102.8173" font-family="Times,serif" font-size="14.00" fill="#000000">a</text>
</g>
<!-- q3z2&#45;&gt;q3z3 -->
<g id="edge18" class="edge">
<title>q3z2&#45;&gt;q3z3</title>
<path fill="none" stroke="#000000" d="M478.3905,-64.7954C490.7185,-71.2705 505.6112,-79.0928 519.1875,-86.2237"/>
<polygon fill="#000000" stroke="#000000" points="517.8479,-89.4734 528.3285,-91.0249 521.1029,-83.2763 517.8479,-89.4734"/>
<text text-anchor="middle" x="503.0701" y="-83.0086" font-family="Times,serif" font-size="14.00" fill="#000000">b</text>
</g>
<!-- q3z3&#45;&gt;q3z3 -->
<g id="edge10" class="edge">
<title>q3z3&#45;&gt;q3z3</title>
<path fill="none" stroke="#000000" d="M548.2538,-139.189C548.2538,-149.9825 551.6288,-158.6173 558.3788,-158.6173 562.8085,-158.6173 565.7847,-154.8986 567.3074,-149.2915"/>
<polygon fill="#000000" stroke="#000000" points="570.8034,-149.5313 568.5038,-139.189 563.8519,-148.708 570.8034,-149.5313"/>
<text text-anchor="middle" x="558.3788" y="-162.8173" font-family="Times,serif" font-size="14.00" fill="#000000">a, b</text>
</g>
</g>
</svg>
