<?xml version="1.0" encoding="UTF-8" standalone="no"?>
<!DOCTYPE svg PUBLIC "-//W3C//DTD SVG 1.1//EN"
 "http://www.w3.org/Graphics/SVG/1.1/DTD/svg11.dtd">
<!-- Generated by graphviz version 2.40.1 (20161225.0304)
 -->
<!-- Pages: 1 -->
<svg width="337pt" height="91pt"
 viewBox="0.00 0.00 337.01 91.10" xmlns="http://www.w3.org/2000/svg" xmlns:xlink="http://www.w3.org/1999/xlink">
<g id="graph0" class="graph" transform="scale(1 1) rotate(0) translate(4 87.1034)">
<polygon fill="#ffffff" stroke="transparent" points="-4,4 -4,-87.1034 333.0112,-87.1034 333.0112,4 -4,4"/>
<g id="node1" class="node">
<title></title>
</g>
<!-- z1 -->
<g id="node2" class="node">
<title>z1</title>
<ellipse fill="none" stroke="#000000" cx="134.2527" cy="-24.1517" rx="20.3045" ry="20.3045"/>
<text text-anchor="middle" x="134.2527" y="-19.9517" font-family="Times,serif" font-size="14.00" fill="#000000">z1</text>
</g>
<!-- &#45;&gt;z1 -->
<g id="edge1" class="edge">
<title>&#45;&gt;z1</title>
<path fill="none" stroke="#000000" d="M54.0644,-24.1517C69.1906,-24.1517 88.0888,-24.1517 103.7392,-24.1517"/>
<polygon fill="#000000" stroke="#000000" points="103.969,-27.6518 113.969,-24.1517 103.9689,-20.6518 103.969,-27.6518"/>
<text text-anchor="middle" x="84.0505" y="-28.3517" font-family="Times,serif" font-size="14.00" fill="#000000">start</text>
</g>
<!-- z1&#45;&gt;z1 -->
<g id="edge4" class="edge">
<title>z1&#45;&gt;z1</title>
<path fill="none" stroke="#000000" d="M127.0621,-42.9962C125.8402,-53.0992 128.2371,-62.3034 134.2527,-62.3034 138.1065,-62.3034 140.4751,-58.526 141.3585,-53.1548"/>
<polygon fill="#000000" stroke="#000000" points="144.8596,-53.0251 141.4432,-42.9962 137.8599,-52.9667 144.8596,-53.0251"/>
<text text-anchor="middle" x="134.2527" y="-66.5034" font-family="Times,serif" font-size="14.00" fill="#000000">a</text>
</g>
<!-- z2 -->
<g id="node3" class="node">
<title>z2</title>
<ellipse fill="none" stroke="#000000" cx="217.5561" cy="-24.1517" rx="20.3045" ry="20.3045"/>
<text text-anchor="middle" x="217.5561" y="-19.9517" font-family="Times,serif" font-size="14.00" fill="#000000">z2</text>
</g>
<!-- z1&#45;&gt;z2 -->
<g id="edge2" class="edge">
<title>z1&#45;&gt;z2</title>
<path fill="none" stroke="#000000" d="M154.4181,-24.1517C164.2705,-24.1517 176.3316,-24.1517 187.2626,-24.1517"/>
<polygon fill="#000000" stroke="#000000" points="187.2877,-27.6518 197.2876,-24.1517 187.2876,-20.6518 187.2877,-27.6518"/>
<text text-anchor="middle" x="175.9044" y="-28.3517" font-family="Times,serif" font-size="14.00" fill="#000000">b</text>
</g>
<!-- z2&#45;&gt;z2 -->
<g id="edge5" class="edge">
<title>z2&#45;&gt;z2</title>
<path fill="none" stroke="#000000" d="M210.3655,-42.9962C209.1436,-53.0992 211.5405,-62.3034 217.5561,-62.3034 221.4099,-62.3034 223.7785,-58.526 224.6619,-53.1548"/>
<polygon fill="#000000" stroke="#000000" points="228.163,-53.0251 224.7466,-42.9962 221.1633,-52.9667 228.163,-53.0251"/>
<text text-anchor="middle" x="217.5561" y="-66.5034" font-family="Times,serif" font-size="14.00" fill="#000000">a</text>
</g>
<!-- z3 -->
<g id="node4" class="node">
<title>z3</title>
<ellipse fill="none" stroke="#000000" cx="304.8595" cy="-24.1517" rx="20.2791" ry="20.2791"/>
<ellipse fill="none" stroke="#000000" cx="304.8595" cy="-24.1517" rx="24.3044" ry="24.3044"/>
<text text-anchor="middle" x="304.8595" y="-19.9517" font-family="Times,serif" font-size="14.00" fill="#000000">z3</text>
</g>
<!-- z2&#45;&gt;z3 -->
<g id="edge3" class="edge">
<title>z2&#45;&gt;z3</title>
<path fill="none" stroke="#000000" d="M237.8047,-24.1517C247.5004,-24.1517 259.3833,-24.1517 270.4384,-24.1517"/>
<polygon fill="#000000" stroke="#000000" points="270.6856,-27.6518 280.6855,-24.1517 270.6855,-20.6518 270.6856,-27.6518"/>
<text text-anchor="middle" x="259.2078" y="-28.3517" font-family="Times,serif" font-size="14.00" fill="#000000">b</text>
</g>
<!-- z3&#45;&gt;z3 -->
<g id="edge6" class="edge">
<title>z3&#45;&gt;z3</title>
<path fill="none" stroke="#000000" d="M296.7384,-47.1314C295.965,-57.412 298.672,-66.3034 304.8595,-66.3034 308.8234,-66.3034 311.3588,-62.6544 312.4659,-57.3287"/>
<polygon fill="#000000" stroke="#000000" points="315.972,-57.2951 312.9806,-47.1314 308.9809,-56.9422 315.972,-57.2951"/>
<text text-anchor="middle" x="304.8595" y="-70.5034" font-family="Times,serif" font-size="14.00" fill="#000000">a, b</text>
</g>
</g>
</svg>
