<?xml version="1.0" encoding="UTF-8" standalone="no"?>
<!DOCTYPE svg PUBLIC "-//W3C//DTD SVG 1.1//EN"
 "http://www.w3.org/Graphics/SVG/1.1/DTD/svg11.dtd">
<!-- Generated by graphviz version 2.40.1 (20161225.0304)
 -->
<!-- Pages: 1 -->
<svg width="339pt" height="92pt"
 viewBox="0.00 0.00 338.69 92.19" xmlns="http://www.w3.org/2000/svg" xmlns:xlink="http://www.w3.org/1999/xlink">
<g id="graph0" class="graph" transform="scale(1 1) rotate(0) translate(4 88.1869)">
<polygon fill="#ffffff" stroke="transparent" points="-4,4 -4,-88.1869 334.6909,-88.1869 334.6909,4 -4,4"/>
<g id="node1" class="node">
<title></title>
</g>
<!-- q1 -->
<g id="node2" class="node">
<title>q1</title>
<ellipse fill="none" stroke="#000000" cx="134.7945" cy="-24.6935" rx="20.8887" ry="20.8887"/>
<text text-anchor="middle" x="134.7945" y="-20.4935" font-family="Times,serif" font-size="14.00" fill="#000000">q1</text>
</g>
<!-- &#45;&gt;q1 -->
<g id="edge1" class="edge">
<title>&#45;&gt;q1</title>
<path fill="none" stroke="#000000" d="M54.2011,-24.6935C69.3023,-24.6935 88.1443,-24.6935 103.8118,-24.6935"/>
<polygon fill="#000000" stroke="#000000" points="104.0665,-28.1936 114.0664,-24.6935 104.0664,-21.1936 104.0665,-28.1936"/>
<text text-anchor="middle" x="84.0505" y="-28.8935" font-family="Times,serif" font-size="14.00" fill="#000000">start</text>
</g>
<!-- q1&#45;&gt;q1 -->
<g id="edge4" class="edge">
<title>q1&#45;&gt;q1</title>
<path fill="none" stroke="#000000" d="M127.5581,-44.2043C126.4448,-54.2929 128.857,-63.3869 134.7945,-63.3869 138.5982,-63.3869 140.9551,-59.6547 141.8651,-54.3198"/>
<polygon fill="#000000" stroke="#000000" points="145.3665,-54.2603 142.0308,-44.2043 138.3674,-54.1456 145.3665,-54.2603"/>
<text text-anchor="middle" x="134.7945" y="-67.5869" font-family="Times,serif" font-size="14.00" fill="#000000">b</text>
</g>
<!-- q2 -->
<g id="node3" class="node">
<title>q2</title>
<ellipse fill="none" stroke="#000000" cx="218.396" cy="-24.6935" rx="20.8887" ry="20.8887"/>
<text text-anchor="middle" x="218.396" y="-20.4935" font-family="Times,serif" font-size="14.00" fill="#000000">q2</text>
</g>
<!-- q1&#45;&gt;q2 -->
<g id="edge2" class="edge">
<title>q1&#45;&gt;q2</title>
<path fill="none" stroke="#000000" d="M155.8906,-24.6935C165.4682,-24.6935 176.9859,-24.6935 187.5108,-24.6935"/>
<polygon fill="#000000" stroke="#000000" points="187.5962,-28.1936 197.5961,-24.6935 187.5961,-21.1936 187.5962,-28.1936"/>
<text text-anchor="middle" x="176.5952" y="-28.8935" font-family="Times,serif" font-size="14.00" fill="#000000">a</text>
</g>
<!-- q2&#45;&gt;q2 -->
<g id="edge5" class="edge">
<title>q2&#45;&gt;q2</title>
<path fill="none" stroke="#000000" d="M211.1596,-44.2043C210.0463,-54.2929 212.4585,-63.3869 218.396,-63.3869 222.1997,-63.3869 224.5566,-59.6547 225.4666,-54.3198"/>
<polygon fill="#000000" stroke="#000000" points="228.968,-54.2603 225.6323,-44.2043 221.9689,-54.1456 228.968,-54.2603"/>
<text text-anchor="middle" x="218.396" y="-67.5869" font-family="Times,serif" font-size="14.00" fill="#000000">b</text>
</g>
<!-- q3 -->
<g id="node4" class="node">
<title>q3</title>
<ellipse fill="none" stroke="#000000" cx="305.9975" cy="-24.6935" rx="20.8568" ry="20.8568"/>
<ellipse fill="none" stroke="#000000" cx="305.9975" cy="-24.6935" rx="24.8884" ry="24.8884"/>
<text text-anchor="middle" x="305.9975" y="-20.4935" font-family="Times,serif" font-size="14.00" fill="#000000">q3</text>
</g>
<!-- q2&#45;&gt;q3 -->
<g id="edge3" class="edge">
<title>q2&#45;&gt;q3</title>
<path fill="none" stroke="#000000" d="M239.1563,-24.6935C248.6651,-24.6935 260.1992,-24.6935 270.9905,-24.6935"/>
<polygon fill="#000000" stroke="#000000" points="271.019,-28.1936 281.0189,-24.6935 271.0189,-21.1936 271.019,-28.1936"/>
<text text-anchor="middle" x="260.1967" y="-28.8935" font-family="Times,serif" font-size="14.00" fill="#000000">a</text>
</g>
<!-- q3&#45;&gt;q3 -->
<g id="edge6" class="edge">
<title>q3&#45;&gt;q3</title>
<path fill="none" stroke="#000000" d="M297.8462,-48.4015C297.1788,-58.6297 299.8959,-67.3869 305.9975,-67.3869 309.9063,-67.3869 312.4261,-63.7929 313.557,-58.5207"/>
<polygon fill="#000000" stroke="#000000" points="317.0589,-58.5888 314.1488,-48.4015 310.0708,-58.1801 317.0589,-58.5888"/>
<text text-anchor="middle" x="305.9975" y="-71.5869" font-family="Times,serif" font-size="14.00" fill="#000000">a, b</text>
</g>
</g>
</svg>
