<?xml version="1.0" encoding="UTF-8" standalone="no"?>
<!DOCTYPE svg PUBLIC "-//W3C//DTD SVG 1.1//EN"
 "http://www.w3.org/Graphics/SVG/1.1/DTD/svg11.dtd">
<!-- Generated by graphviz version 2.40.1 (20161225.0304)
 -->
<!-- Pages: 1 -->
<svg width="422pt" height="92pt"
 viewBox="0.00 0.00 422.29 92.19" xmlns="http://www.w3.org/2000/svg" xmlns:xlink="http://www.w3.org/1999/xlink">
<g id="graph0" class="graph" transform="scale(1 1) rotate(0) translate(4 88.1869)">
<polygon fill="#ffffff" stroke="transparent" points="-4,4 -4,-88.1869 418.2924,-88.1869 418.2924,4 -4,4"/>
<g id="node1" class="node">
<title></title>
</g>
<!-- q1 -->
<g id="node2" class="node">
<title>q1</title>
<ellipse fill="none" stroke="#000000" cx="134.7945" cy="-24.6935" rx="20.8887" ry="20.8887"/>
<text text-anchor="middle" x="134.7945" y="-20.4935" font-family="Times,serif" font-size="14.00" fill="#000000">q1</text>
</g>
<!-- &#45;&gt;q1 -->
<g id="edge1" class="edge">
<title>&#45;&gt;q1</title>
<path fill="none" stroke="#000000" d="M54.2011,-24.6935C69.3023,-24.6935 88.1443,-24.6935 103.8118,-24.6935"/>
<polygon fill="#000000" stroke="#000000" points="104.0665,-28.1936 114.0664,-24.6935 104.0664,-21.1936 104.0665,-28.1936"/>
<text text-anchor="middle" x="84.0505" y="-28.8935" font-family="Times,serif" font-size="14.00" fill="#000000">start</text>
</g>
<!-- q1&#45;&gt;q1 -->
<g id="edge5" class="edge">
<title>q1&#45;&gt;q1</title>
<path fill="none" stroke="#000000" d="M127.5581,-44.2043C126.4448,-54.2929 128.857,-63.3869 134.7945,-63.3869 138.5982,-63.3869 140.9551,-59.6547 141.8651,-54.3198"/>
<polygon fill="#000000" stroke="#000000" points="145.3665,-54.2603 142.0308,-44.2043 138.3674,-54.1456 145.3665,-54.2603"/>
<text text-anchor="middle" x="134.7945" y="-67.5869" font-family="Times,serif" font-size="14.00" fill="#000000">b</text>
</g>
<!-- q2 -->
<g id="node3" class="node">
<title>q2</title>
<ellipse fill="none" stroke="#000000" cx="218.396" cy="-24.6935" rx="20.8887" ry="20.8887"/>
<text text-anchor="middle" x="218.396" y="-20.4935" font-family="Times,serif" font-size="14.00" fill="#000000">q2</text>
</g>
<!-- q1&#45;&gt;q2 -->
<g id="edge2" class="edge">
<title>q1&#45;&gt;q2</title>
<path fill="none" stroke="#000000" d="M155.8906,-24.6935C165.4682,-24.6935 176.9859,-24.6935 187.5108,-24.6935"/>
<polygon fill="#000000" stroke="#000000" points="187.5962,-28.1936 197.5961,-24.6935 187.5961,-21.1936 187.5962,-28.1936"/>
<text text-anchor="middle" x="176.5952" y="-28.8935" font-family="Times,serif" font-size="14.00" fill="#000000">a</text>
</g>
<!-- q2&#45;&gt;q2 -->
<g id="edge6" class="edge">
<title>q2&#45;&gt;q2</title>
<path fill="none" stroke="#000000" d="M211.1596,-44.2043C210.0463,-54.2929 212.4585,-63.3869 218.396,-63.3869 222.1997,-63.3869 224.5566,-59.6547 225.4666,-54.3198"/>
<polygon fill="#000000" stroke="#000000" points="228.968,-54.2603 225.6323,-44.2043 221.9689,-54.1456 228.968,-54.2603"/>
<text text-anchor="middle" x="218.396" y="-67.5869" font-family="Times,serif" font-size="14.00" fill="#000000">b</text>
</g>
<!-- q3 -->
<g id="node4" class="node">
<title>q3</title>
<ellipse fill="none" stroke="#000000" cx="301.9975" cy="-24.6935" rx="20.8887" ry="20.8887"/>
<text text-anchor="middle" x="301.9975" y="-20.4935" font-family="Times,serif" font-size="14.00" fill="#000000">q3</text>
</g>
<!-- q2&#45;&gt;q3 -->
<g id="edge3" class="edge">
<title>q2&#45;&gt;q3</title>
<path fill="none" stroke="#000000" d="M239.4921,-24.6935C249.0697,-24.6935 260.5874,-24.6935 271.1123,-24.6935"/>
<polygon fill="#000000" stroke="#000000" points="271.1977,-28.1936 281.1976,-24.6935 271.1976,-21.1936 271.1977,-28.1936"/>
<text text-anchor="middle" x="260.1967" y="-28.8935" font-family="Times,serif" font-size="14.00" fill="#000000">a</text>
</g>
<!-- q3&#45;&gt;q3 -->
<g id="edge7" class="edge">
<title>q3&#45;&gt;q3</title>
<path fill="none" stroke="#000000" d="M294.7611,-44.2043C293.6479,-54.2929 296.06,-63.3869 301.9975,-63.3869 305.8012,-63.3869 308.1581,-59.6547 309.0681,-54.3198"/>
<polygon fill="#000000" stroke="#000000" points="312.5695,-54.2603 309.2338,-44.2043 305.5704,-54.1456 312.5695,-54.2603"/>
<text text-anchor="middle" x="301.9975" y="-67.5869" font-family="Times,serif" font-size="14.00" fill="#000000">b</text>
</g>
<!-- q4 -->
<g id="node5" class="node">
<title>q4</title>
<ellipse fill="none" stroke="#000000" cx="389.599" cy="-24.6935" rx="20.8568" ry="20.8568"/>
<ellipse fill="none" stroke="#000000" cx="389.599" cy="-24.6935" rx="24.8884" ry="24.8884"/>
<text text-anchor="middle" x="389.599" y="-20.4935" font-family="Times,serif" font-size="14.00" fill="#000000">q4</text>
</g>
<!-- q3&#45;&gt;q4 -->
<g id="edge4" class="edge">
<title>q3&#45;&gt;q4</title>
<path fill="none" stroke="#000000" d="M322.7578,-24.6935C332.2666,-24.6935 343.8007,-24.6935 354.592,-24.6935"/>
<polygon fill="#000000" stroke="#000000" points="354.6205,-28.1936 364.6205,-24.6935 354.6204,-21.1936 354.6205,-28.1936"/>
<text text-anchor="middle" x="343.7982" y="-28.8935" font-family="Times,serif" font-size="14.00" fill="#000000">a</text>
</g>
<!-- q4&#45;&gt;q4 -->
<g id="edge8" class="edge">
<title>q4&#45;&gt;q4</title>
<path fill="none" stroke="#000000" d="M381.4477,-48.4015C380.7803,-58.6297 383.4974,-67.3869 389.599,-67.3869 393.5078,-67.3869 396.0276,-63.7929 397.1585,-58.5207"/>
<polygon fill="#000000" stroke="#000000" points="400.6604,-58.5888 397.7503,-48.4015 393.6723,-58.1801 400.6604,-58.5888"/>
<text text-anchor="middle" x="389.599" y="-71.5869" font-family="Times,serif" font-size="14.00" fill="#000000">a, b</text>
</g>
</g>
</svg>
