<?xml version="1.0" encoding="UTF-8" standalone="no"?>
<!DOCTYPE svg PUBLIC "-//W3C//DTD SVG 1.1//EN"
 "http://www.w3.org/Graphics/SVG/1.1/DTD/svg11.dtd">
<!-- Generated by graphviz version 2.40.1 (20161225.0304)
 -->
<!-- Pages: 1 -->
<svg width="297pt" height="253pt"
 viewBox="0.00 0.00 297.17 252.62" xmlns="http://www.w3.org/2000/svg" xmlns:xlink="http://www.w3.org/1999/xlink">
<g id="graph0" class="graph" transform="scale(1 1) rotate(0) translate(4 248.6173)">
<polygon fill="#ffffff" stroke="transparent" points="-4,4 -4,-248.6173 293.1675,-248.6173 293.1675,4 -4,4"/>
<g id="node1" class="node">
<title></title>
</g>
<!-- q1z1 -->
<g id="node2" class="node">
<title>q1z1</title>
<ellipse fill="none" stroke="#000000" cx="153.5269" cy="-33.8086" rx="29.6409" ry="29.6409"/>
<ellipse fill="none" stroke="#000000" cx="153.5269" cy="-33.8086" rx="33.6184" ry="33.6184"/>
<text text-anchor="middle" x="153.5269" y="-29.6086" font-family="Times,serif" font-size="14.00" fill="#000000">q1z1</text>
</g>
<!-- &#45;&gt;q1z1 -->
<g id="edge1" class="edge">
<title>&#45;&gt;q1z1</title>
<path fill="none" stroke="#000000" d="M56.9591,-33.8086C72.2999,-33.8086 91.8513,-33.8086 109.3441,-33.8086"/>
<polygon fill="#000000" stroke="#000000" points="109.3583,-37.3087 119.3583,-33.8086 109.3582,-30.3087 109.3583,-37.3087"/>
<text text-anchor="middle" x="89.6678" y="-38.0086" font-family="Times,serif" font-size="14.00" fill="#000000">start</text>
</g>
<!-- q2z1 -->
<g id="node5" class="node">
<title>q2z1</title>
<ellipse fill="none" stroke="#000000" cx="259.3588" cy="-33.8086" rx="29.6185" ry="29.6185"/>
<text text-anchor="middle" x="259.3588" y="-29.6086" font-family="Times,serif" font-size="14.00" fill="#000000">q2z1</text>
</g>
<!-- q1z1&#45;&gt;q2z1 -->
<g id="edge2" class="edge">
<title>q1z1&#45;&gt;q2z1</title>
<path fill="none" stroke="#000000" d="M187.5953,-33.8086C197.6562,-33.8086 208.7628,-33.8086 219.1709,-33.8086"/>
<polygon fill="#000000" stroke="#000000" points="219.2816,-37.3087 229.2816,-33.8086 219.2816,-30.3087 219.2816,-37.3087"/>
<text text-anchor="middle" x="208.4429" y="-38.0086" font-family="Times,serif" font-size="14.00" fill="#000000">a</text>
</g>
<!-- q1z2 -->
<g id="node3" class="node">
<title>q1z2</title>
<ellipse fill="none" stroke="#000000" cx="29.8086" cy="-107.8086" rx="29.6185" ry="29.6185"/>
<text text-anchor="middle" x="29.8086" y="-103.6086" font-family="Times,serif" font-size="14.00" fill="#000000">q1z2</text>
</g>
<!-- q2z2 -->
<g id="node6" class="node">
<title>q2z2</title>
<ellipse fill="none" stroke="#000000" cx="153.5269" cy="-124.8086" rx="29.6185" ry="29.6185"/>
<text text-anchor="middle" x="153.5269" y="-120.6086" font-family="Times,serif" font-size="14.00" fill="#000000">q2z2</text>
</g>
<!-- q1z2&#45;&gt;q2z2 -->
<g id="edge4" class="edge">
<title>q1z2&#45;&gt;q2z2</title>
<path fill="none" stroke="#000000" d="M59.4423,-111.8806C75.6964,-114.114 96.0691,-116.9134 113.6966,-119.3356"/>
<polygon fill="#000000" stroke="#000000" points="113.3229,-122.8171 123.7063,-120.711 114.2759,-115.8822 113.3229,-122.8171"/>
<text text-anchor="middle" x="89.6678" y="-122.0086" font-family="Times,serif" font-size="14.00" fill="#000000">a</text>
</g>
<!-- q1z3 -->
<g id="node4" class="node">
<title>q1z3</title>
<ellipse fill="none" stroke="#000000" cx="29.8086" cy="-190.8086" rx="29.6185" ry="29.6185"/>
<text text-anchor="middle" x="29.8086" y="-186.6086" font-family="Times,serif" font-size="14.00" fill="#000000">q1z3</text>
</g>
<!-- q2z3 -->
<g id="node7" class="node">
<title>q2z3</title>
<ellipse fill="none" stroke="#000000" cx="153.5269" cy="-214.8086" rx="29.6185" ry="29.6185"/>
<text text-anchor="middle" x="153.5269" y="-210.6086" font-family="Times,serif" font-size="14.00" fill="#000000">q2z3</text>
</g>
<!-- q1z3&#45;&gt;q2z3 -->
<g id="edge6" class="edge">
<title>q1z3&#45;&gt;q2z3</title>
<path fill="none" stroke="#000000" d="M58.4926,-199.216C64.7611,-200.8827 71.3851,-202.5148 77.6173,-203.8086 89.3152,-206.2372 102.1373,-208.3146 113.8588,-209.9887"/>
<polygon fill="#000000" stroke="#000000" points="113.4375,-213.4636 123.8203,-211.3547 114.3886,-206.5285 113.4375,-213.4636"/>
<text text-anchor="middle" x="89.6678" y="-213.0086" font-family="Times,serif" font-size="14.00" fill="#000000">a</text>
</g>
<!-- q2z1&#45;&gt;q1z1 -->
<g id="edge3" class="edge">
<title>q2z1&#45;&gt;q1z1</title>
<path fill="none" stroke="#000000" d="M232.6912,-19.9249C225.9669,-17.0686 218.6396,-14.484 211.5502,-13.0086 205.2936,-11.7066 198.7986,-12.1439 192.5168,-13.5799"/>
<polygon fill="#000000" stroke="#000000" points="191.409,-10.2588 182.8858,-16.5522 193.4733,-16.9475 191.409,-10.2588"/>
<text text-anchor="middle" x="208.4429" y="-18.0086" font-family="Times,serif" font-size="14.00" fill="#000000">a</text>
</g>
<!-- q2z2&#45;&gt;q1z2 -->
<g id="edge5" class="edge">
<title>q2z2&#45;&gt;q1z2</title>
<path fill="none" stroke="#000000" d="M129.462,-106.8733C121.1118,-101.6672 111.4046,-96.6705 101.7183,-94.0086 90.738,-90.9913 78.6375,-91.7752 67.545,-94.0696"/>
<polygon fill="#000000" stroke="#000000" points="66.552,-90.7102 57.7026,-96.5357 68.2534,-97.5003 66.552,-90.7102"/>
<text text-anchor="middle" x="89.6678" y="-99.0086" font-family="Times,serif" font-size="14.00" fill="#000000">a</text>
</g>
<!-- q2z3&#45;&gt;q1z3 -->
<g id="edge7" class="edge">
<title>q2z3&#45;&gt;q1z3</title>
<path fill="none" stroke="#000000" d="M129.7972,-196.4653C121.3942,-191.0304 111.5701,-185.791 101.7183,-183.0086 91.1865,-180.0343 79.4918,-179.9889 68.6464,-181.2231"/>
<polygon fill="#000000" stroke="#000000" points="67.9393,-177.7901 58.5742,-182.7445 68.9849,-184.7116 67.9393,-177.7901"/>
<text text-anchor="middle" x="89.6678" y="-188.0086" font-family="Times,serif" font-size="14.00" fill="#000000">a</text>
</g>
</g>
</svg>
