<?xml version="1.0" encoding="UTF-8" standalone="no"?>
<!DOCTYPE svg PUBLIC "-//W3C//DTD SVG 1.1//EN"
 "http://www.w3.org/Graphics/SVG/1.1/DTD/svg11.dtd">
<!-- Generated by graphviz version 2.40.1 (20161225.0304)
 -->
<!-- Pages: 1 -->
<svg width="906pt" height="211pt"
 viewBox="0.00 0.00 905.68 211.42" xmlns="http://www.w3.org/2000/svg" xmlns:xlink="http://www.w3.org/1999/xlink">
<g id="graph0" class="graph" transform="scale(1 1) rotate(0) translate(4 207.4173)">
<polygon fill="#ffffff" stroke="transparent" points="-4,4 -4,-207.4173 901.6831,-207.4173 901.6831,4 -4,4"/>
<g id="node1" class="node">
<title></title>
</g>
<!-- q1z1 -->
<g id="node2" class="node">
<title>q1z1</title>
<ellipse fill="none" stroke="#000000" cx="143.9096" cy="-29.8086" rx="29.6185" ry="29.6185"/>
<text text-anchor="middle" x="143.9096" y="-25.6086" font-family="Times,serif" font-size="14.00" fill="#000000">q1z1</text>
</g>
<!-- &#45;&gt;q1z1 -->
<g id="edge1" class="edge">
<title>&#45;&gt;q1z1</title>
<path fill="none" stroke="#000000" d="M54.1153,-29.8086C68.8339,-29.8086 87.3161,-29.8086 103.6808,-29.8086"/>
<polygon fill="#000000" stroke="#000000" points="104.0681,-33.3087 114.068,-29.8086 104.068,-26.3087 104.0681,-33.3087"/>
<text text-anchor="middle" x="84.0505" y="-34.0086" font-family="Times,serif" font-size="14.00" fill="#000000">start</text>
</g>
<!-- q1z2 -->
<g id="node3" class="node">
<title>q1z2</title>
<ellipse fill="none" stroke="#000000" cx="246.5269" cy="-134.8086" rx="29.6185" ry="29.6185"/>
<text text-anchor="middle" x="246.5269" y="-130.6086" font-family="Times,serif" font-size="14.00" fill="#000000">q1z2</text>
</g>
<!-- q1z1&#45;&gt;q1z2 -->
<g id="edge2" class="edge">
<title>q1z1&#45;&gt;q1z2</title>
<path fill="none" stroke="#000000" d="M160.7641,-54.5058C169.3847,-66.3575 180.4246,-80.42 191.7183,-91.8086 198.4726,-98.6198 206.3026,-105.3379 213.8934,-111.3669"/>
<polygon fill="#000000" stroke="#000000" points="211.9209,-114.2659 221.9741,-117.6102 216.2007,-108.7266 211.9209,-114.2659"/>
<text text-anchor="middle" x="195.2183" y="-102.0086" font-family="Times,serif" font-size="14.00" fill="#000000">b</text>
</g>
<!-- q2z1 -->
<g id="node4" class="node">
<title>q2z1</title>
<ellipse fill="none" stroke="#000000" cx="450.9761" cy="-29.8086" rx="29.6185" ry="29.6185"/>
<text text-anchor="middle" x="450.9761" y="-25.6086" font-family="Times,serif" font-size="14.00" fill="#000000">q2z1</text>
</g>
<!-- q1z1&#45;&gt;q2z1 -->
<g id="edge4" class="edge">
<title>q1z1&#45;&gt;q2z1</title>
<path fill="none" stroke="#000000" d="M173.9116,-29.8086C229.4052,-29.8086 348.1053,-29.8086 410.5946,-29.8086"/>
<polygon fill="#000000" stroke="#000000" points="410.8524,-33.3087 420.8524,-29.8086 410.8524,-26.3087 410.8524,-33.3087"/>
<text text-anchor="middle" x="297.4429" y="-34.0086" font-family="Times,serif" font-size="14.00" fill="#000000">a</text>
</g>
<!-- q1z2&#45;&gt;q1z1 -->
<g id="edge3" class="edge">
<title>q1z2&#45;&gt;q1z1</title>
<path fill="none" stroke="#000000" d="M230.1047,-109.5639C221.505,-97.2696 210.3563,-82.6642 198.7183,-71.0086 192.2497,-64.5303 184.7211,-58.226 177.3533,-52.576"/>
<polygon fill="#000000" stroke="#000000" points="178.9687,-49.4166 168.8511,-46.2726 174.7998,-55.0398 178.9687,-49.4166"/>
<text text-anchor="middle" x="195.2183" y="-75.0086" font-family="Times,serif" font-size="14.00" fill="#000000">b</text>
</g>
<!-- q2z2 -->
<g id="node5" class="node">
<title>q2z2</title>
<ellipse fill="none" stroke="#000000" cx="348.3588" cy="-134.8086" rx="29.6185" ry="29.6185"/>
<text text-anchor="middle" x="348.3588" y="-130.6086" font-family="Times,serif" font-size="14.00" fill="#000000">q2z2</text>
</g>
<!-- q1z2&#45;&gt;q2z2 -->
<g id="edge7" class="edge">
<title>q1z2&#45;&gt;q2z2</title>
<path fill="none" stroke="#000000" d="M276.5291,-134.8086C286.3853,-134.8086 297.5069,-134.8086 308.0025,-134.8086"/>
<polygon fill="#000000" stroke="#000000" points="308.2192,-138.3087 318.2192,-134.8086 308.2192,-131.3087 308.2192,-138.3087"/>
<text text-anchor="middle" x="297.4429" y="-139.0086" font-family="Times,serif" font-size="14.00" fill="#000000">a</text>
</g>
<!-- q2z1&#45;&gt;q2z2 -->
<g id="edge5" class="edge">
<title>q2z1&#45;&gt;q2z2</title>
<path fill="none" stroke="#000000" d="M424.2759,-43.4247C414.775,-49.0237 404.4014,-56.0663 396.1675,-64.0086 385.43,-74.3657 375.7496,-87.5141 367.9532,-99.6614"/>
<polygon fill="#000000" stroke="#000000" points="364.9085,-97.9304 362.621,-108.2754 370.8604,-101.6148 364.9085,-97.9304"/>
<text text-anchor="middle" x="399.6675" y="-68.0086" font-family="Times,serif" font-size="14.00" fill="#000000">b</text>
</g>
<!-- q3z1 -->
<g id="node6" class="node">
<title>q3z1</title>
<ellipse fill="none" stroke="#000000" cx="552.808" cy="-29.8086" rx="29.6185" ry="29.6185"/>
<text text-anchor="middle" x="552.808" y="-25.6086" font-family="Times,serif" font-size="14.00" fill="#000000">q3z1</text>
</g>
<!-- q2z1&#45;&gt;q3z1 -->
<g id="edge8" class="edge">
<title>q2z1&#45;&gt;q3z1</title>
<path fill="none" stroke="#000000" d="M480.9782,-29.8086C490.8344,-29.8086 501.9561,-29.8086 512.4516,-29.8086"/>
<polygon fill="#000000" stroke="#000000" points="512.6684,-33.3087 522.6684,-29.8086 512.6683,-26.3087 512.6684,-33.3087"/>
<text text-anchor="middle" x="501.892" y="-34.0086" font-family="Times,serif" font-size="14.00" fill="#000000">a</text>
</g>
<!-- q2z2&#45;&gt;q2z1 -->
<g id="edge6" class="edge">
<title>q2z2&#45;&gt;q2z1</title>
<path fill="none" stroke="#000000" d="M369.8979,-113.9749C380.08,-104.028 392.3477,-91.9007 403.1675,-80.8086 409.8886,-73.9183 417.0341,-66.4022 423.6958,-59.3094"/>
<polygon fill="#000000" stroke="#000000" points="426.4175,-61.5232 430.6916,-51.8288 421.3048,-56.7419 426.4175,-61.5232"/>
<text text-anchor="middle" x="399.6675" y="-90.0086" font-family="Times,serif" font-size="14.00" fill="#000000">b</text>
</g>
<!-- q3z2 -->
<g id="node7" class="node">
<title>q3z2</title>
<ellipse fill="none" stroke="#000000" cx="655.4253" cy="-134.8086" rx="29.6185" ry="29.6185"/>
<text text-anchor="middle" x="655.4253" y="-130.6086" font-family="Times,serif" font-size="14.00" fill="#000000">q3z2</text>
</g>
<!-- q2z2&#45;&gt;q3z2 -->
<g id="edge11" class="edge">
<title>q2z2&#45;&gt;q3z2</title>
<path fill="none" stroke="#000000" d="M378.3607,-134.8086C433.8543,-134.8086 552.5545,-134.8086 615.0438,-134.8086"/>
<polygon fill="#000000" stroke="#000000" points="615.3016,-138.3087 625.3016,-134.8086 615.3015,-131.3087 615.3016,-138.3087"/>
<text text-anchor="middle" x="501.892" y="-139.0086" font-family="Times,serif" font-size="14.00" fill="#000000">a</text>
</g>
<!-- q3z1&#45;&gt;q3z2 -->
<g id="edge9" class="edge">
<title>q3z1&#45;&gt;q3z2</title>
<path fill="none" stroke="#000000" d="M573.0925,-51.8288C581.5254,-60.8831 591.4644,-71.426 600.6166,-80.8086 608.985,-89.3876 618.2196,-98.5859 626.6855,-106.9157"/>
<polygon fill="#000000" stroke="#000000" points="624.295,-109.4736 633.8861,-113.9749 629.1954,-104.475 624.295,-109.4736"/>
<text text-anchor="middle" x="604.1166" y="-90.0086" font-family="Times,serif" font-size="14.00" fill="#000000">b</text>
</g>
<!-- q4z1 -->
<g id="node8" class="node">
<title>q4z1</title>
<ellipse fill="none" stroke="#000000" cx="867.8744" cy="-29.8086" rx="29.6185" ry="29.6185"/>
<text text-anchor="middle" x="867.8744" y="-25.6086" font-family="Times,serif" font-size="14.00" fill="#000000">q4z1</text>
</g>
<!-- q3z1&#45;&gt;q4z1 -->
<g id="edge12" class="edge">
<title>q3z1&#45;&gt;q4z1</title>
<path fill="none" stroke="#000000" d="M582.7327,-29.8086C639.6252,-29.8086 763.4225,-29.8086 827.5544,-29.8086"/>
<polygon fill="#000000" stroke="#000000" points="827.6886,-33.3087 837.6885,-29.8086 827.6885,-26.3087 827.6886,-33.3087"/>
<text text-anchor="middle" x="706.3412" y="-34.0086" font-family="Times,serif" font-size="14.00" fill="#000000">a</text>
</g>
<!-- q3z2&#45;&gt;q3z1 -->
<g id="edge10" class="edge">
<title>q3z2&#45;&gt;q3z1</title>
<path fill="none" stroke="#000000" d="M642.513,-107.8833C634.1513,-92.4892 622.125,-73.6021 607.6166,-60.0086 602.166,-54.9018 595.6901,-50.3598 589.1327,-46.4476"/>
<polygon fill="#000000" stroke="#000000" points="590.6715,-43.2988 580.2289,-41.5093 587.2763,-49.4203 590.6715,-43.2988"/>
<text text-anchor="middle" x="604.1166" y="-64.0086" font-family="Times,serif" font-size="14.00" fill="#000000">b</text>
</g>
<!-- q4z2 -->
<g id="node9" class="node">
<title>q4z2</title>
<ellipse fill="none" stroke="#000000" cx="761.2572" cy="-134.8086" rx="29.6409" ry="29.6409"/>
<ellipse fill="none" stroke="#000000" cx="761.2572" cy="-134.8086" rx="33.6184" ry="33.6184"/>
<text text-anchor="middle" x="761.2572" y="-130.6086" font-family="Times,serif" font-size="14.00" fill="#000000">q4z2</text>
</g>
<!-- q3z2&#45;&gt;q4z2 -->
<g id="edge15" class="edge">
<title>q3z2&#45;&gt;q4z2</title>
<path fill="none" stroke="#000000" d="M685.4694,-134.8086C695.3797,-134.8086 706.6155,-134.8086 717.3428,-134.8086"/>
<polygon fill="#000000" stroke="#000000" points="717.4121,-138.3087 727.412,-134.8086 717.412,-131.3087 717.4121,-138.3087"/>
<text text-anchor="middle" x="706.3412" y="-139.0086" font-family="Times,serif" font-size="14.00" fill="#000000">a</text>
</g>
<!-- q4z1&#45;&gt;q4z1 -->
<g id="edge16" class="edge">
<title>q4z1&#45;&gt;q4z1</title>
<path fill="none" stroke="#000000" d="M858.52,-58.2759C858.2133,-68.8847 861.3315,-77.6173 867.8744,-77.6173 872.1683,-77.6173 874.9871,-73.8565 876.3311,-68.2726"/>
<polygon fill="#000000" stroke="#000000" points="879.8202,-68.5489 877.2288,-58.2759 872.8483,-67.9227 879.8202,-68.5489"/>
<text text-anchor="middle" x="867.8744" y="-81.8173" font-family="Times,serif" font-size="14.00" fill="#000000">a</text>
</g>
<!-- q4z1&#45;&gt;q4z2 -->
<g id="edge13" class="edge">
<title>q4z1&#45;&gt;q4z2</title>
<path fill="none" stroke="#000000" d="M851.1868,-54.6741C842.6058,-66.5656 831.5509,-80.613 820.0658,-91.8086 813.3482,-98.357 805.5864,-104.7204 797.9496,-110.4564"/>
<polygon fill="#000000" stroke="#000000" points="795.7916,-107.6981 789.7671,-116.4134 799.9116,-113.3573 795.7916,-107.6981"/>
<text text-anchor="middle" x="816.5658" y="-101.0086" font-family="Times,serif" font-size="14.00" fill="#000000">b</text>
</g>
<!-- q4z2&#45;&gt;q4z1 -->
<g id="edge14" class="edge">
<title>q4z2&#45;&gt;q4z1</title>
<path fill="none" stroke="#000000" d="M781.3132,-107.1658C790.4037,-95.45 801.6589,-81.9961 813.0658,-71.0086 819.6594,-64.6575 827.2378,-58.404 834.6142,-52.7628"/>
<polygon fill="#000000" stroke="#000000" points="837.1689,-55.2251 843.1096,-46.4524 832.9949,-49.6057 837.1689,-55.2251"/>
<text text-anchor="middle" x="816.5658" y="-75.0086" font-family="Times,serif" font-size="14.00" fill="#000000">b</text>
</g>
<!-- q4z2&#45;&gt;q4z2 -->
<g id="edge17" class="edge">
<title>q4z2&#45;&gt;q4z2</title>
<path fill="none" stroke="#000000" d="M751.1322,-167.189C751.1322,-177.9825 754.5072,-186.6173 761.2572,-186.6173 765.6868,-186.6173 768.663,-182.8986 770.1857,-177.2915"/>
<polygon fill="#000000" stroke="#000000" points="773.6817,-177.5313 771.3822,-167.189 766.7303,-176.708 773.6817,-177.5313"/>
<text text-anchor="middle" x="761.2572" y="-190.8173" font-family="Times,serif" font-size="14.00" fill="#000000">a</text>
</g>
</g>
</svg>
