<?xml version="1.0" encoding="UTF-8" standalone="no"?>
<!DOCTYPE svg PUBLIC "-//W3C//DTD SVG 1.1//EN"
 "http://www.w3.org/Graphics/SVG/1.1/DTD/svg11.dtd">
<!-- Generated by graphviz version 2.40.1 (20161225.0304)
 -->
<!-- Pages: 1 -->
<svg width="254pt" height="91pt"
 viewBox="0.00 0.00 253.71 91.10" xmlns="http://www.w3.org/2000/svg" xmlns:xlink="http://www.w3.org/1999/xlink">
<g id="graph0" class="graph" transform="scale(1 1) rotate(0) translate(4 87.1034)">
<polygon fill="#ffffff" stroke="transparent" points="-4,4 -4,-87.1034 249.7078,-87.1034 249.7078,4 -4,4"/>
<g id="node1" class="node">
<title></title>
</g>
<!-- z1 -->
<g id="node2" class="node">
<title>z1</title>
<ellipse fill="none" stroke="#000000" cx="134.2527" cy="-24.1517" rx="20.3045" ry="20.3045"/>
<text text-anchor="middle" x="134.2527" y="-19.9517" font-family="Times,serif" font-size="14.00" fill="#000000">z1</text>
</g>
<!-- &#45;&gt;z1 -->
<g id="edge1" class="edge">
<title>&#45;&gt;z1</title>
<path fill="none" stroke="#000000" d="M54.0644,-24.1517C69.1906,-24.1517 88.0888,-24.1517 103.7392,-24.1517"/>
<polygon fill="#000000" stroke="#000000" points="103.969,-27.6518 113.969,-24.1517 103.9689,-20.6518 103.969,-27.6518"/>
<text text-anchor="middle" x="84.0505" y="-28.3517" font-family="Times,serif" font-size="14.00" fill="#000000">start</text>
</g>
<!-- z1&#45;&gt;z1 -->
<g id="edge4" class="edge">
<title>z1&#45;&gt;z1</title>
<path fill="none" stroke="#000000" d="M127.0621,-42.9962C125.8402,-53.0992 128.2371,-62.3034 134.2527,-62.3034 138.1065,-62.3034 140.4751,-58.526 141.3585,-53.1548"/>
<polygon fill="#000000" stroke="#000000" points="144.8596,-53.0251 141.4432,-42.9962 137.8599,-52.9667 144.8596,-53.0251"/>
<text text-anchor="middle" x="134.2527" y="-66.5034" font-family="Times,serif" font-size="14.00" fill="#000000">a</text>
</g>
<!-- z2 -->
<g id="node3" class="node">
<title>z2</title>
<ellipse fill="none" stroke="#000000" cx="221.5561" cy="-24.1517" rx="20.2791" ry="20.2791"/>
<ellipse fill="none" stroke="#000000" cx="221.5561" cy="-24.1517" rx="24.3044" ry="24.3044"/>
<text text-anchor="middle" x="221.5561" y="-19.9517" font-family="Times,serif" font-size="14.00" fill="#000000">z2</text>
</g>
<!-- z1&#45;&gt;z2 -->
<g id="edge2" class="edge">
<title>z1&#45;&gt;z2</title>
<path fill="none" stroke="#000000" d="M154.5013,-24.1517C164.1971,-24.1517 176.0799,-24.1517 187.135,-24.1517"/>
<polygon fill="#000000" stroke="#000000" points="187.3822,-27.6518 197.3821,-24.1517 187.3821,-20.6518 187.3822,-27.6518"/>
<text text-anchor="middle" x="175.9044" y="-28.3517" font-family="Times,serif" font-size="14.00" fill="#000000">b</text>
</g>
<!-- z2&#45;&gt;z1 -->
<g id="edge3" class="edge">
<title>z2&#45;&gt;z1</title>
<path fill="none" stroke="#000000" d="M201.9419,-9.3788C193.1257,-4.4493 182.4607,-.7885 172.4044,-3.3517 168.2101,-4.4208 163.9796,-6.0554 159.9396,-7.9484"/>
<polygon fill="#000000" stroke="#000000" points="158.1725,-4.9236 150.9658,-12.6898 161.4426,-11.1128 158.1725,-4.9236"/>
<text text-anchor="middle" x="175.9044" y="-7.3517" font-family="Times,serif" font-size="14.00" fill="#000000">b</text>
</g>
<!-- z2&#45;&gt;z2 -->
<g id="edge5" class="edge">
<title>z2&#45;&gt;z2</title>
<path fill="none" stroke="#000000" d="M213.435,-47.1314C212.6616,-57.412 215.3686,-66.3034 221.5561,-66.3034 225.52,-66.3034 228.0554,-62.6544 229.1625,-57.3287"/>
<polygon fill="#000000" stroke="#000000" points="232.6686,-57.2951 229.6772,-47.1314 225.6775,-56.9422 232.6686,-57.2951"/>
<text text-anchor="middle" x="221.5561" y="-70.5034" font-family="Times,serif" font-size="14.00" fill="#000000">a</text>
</g>
</g>
</svg>
